<?xml version="1.0" encoding="UTF-8" standalone="no"?>
<!-- Creator: CorelDRAW X5 -->

<svg
   xmlns:dc="http://purl.org/dc/elements/1.1/"
   xmlns:cc="http://creativecommons.org/ns#"
   xmlns:rdf="http://www.w3.org/1999/02/22-rdf-syntax-ns#"
   xmlns:svg="http://www.w3.org/2000/svg"
   xmlns="http://www.w3.org/2000/svg"
   xmlns:sodipodi="http://sodipodi.sourceforge.net/DTD/sodipodi-0.dtd"
   xmlns:inkscape="http://www.inkscape.org/namespaces/inkscape"
   xml:space="preserve"
   width="8.5in"
   height="11in"
   style="shape-rendering:geometricPrecision; text-rendering:geometricPrecision; image-rendering:optimizeQuality; fill-rule:evenodd; clip-rule:evenodd"
   viewBox="0 0 8.5 11"
   id="svg2"
   version="1.1"
   inkscape:version="0.48.2 r9819"
   sodipodi:docname="OSM NEW SYMBOL.svg"><metadata
   id="metadata107"><rdf:RDF><cc:Work
       rdf:about=""><dc:format>image/svg+xml</dc:format><dc:type
         rdf:resource="http://purl.org/dc/dcmitype/StillImage" /></cc:Work></rdf:RDF></metadata><sodipodi:namedview
   pagecolor="#ffffff"
   bordercolor="#666666"
   borderopacity="1"
   objecttolerance="10"
   gridtolerance="10"
   guidetolerance="10"
   inkscape:pageopacity="0"
   inkscape:pageshadow="2"
   inkscape:window-width="1280"
   inkscape:window-height="692"
   id="namedview105"
   showgrid="false"
   inkscape:zoom="0.23838384"
   inkscape:cx="382.5"
   inkscape:cy="495"
   inkscape:window-x="0"
   inkscape:window-y="0"
   inkscape:window-maximized="0"
   inkscape:current-layer="svg2" />
 <defs
   id="defs4">
  <style
   type="text/css"
   id="style6">
   
    .str6 {stroke:#373435;stroke-width:0.00694488}
    .str1 {stroke:#FEFEFE;stroke-width:0.00694488}
    .str5 {stroke:#FEFEFE;stroke-width:0.0138898}
    .str0 {stroke:#FEFEFE;stroke-width:0.0208346}
    .str4 {stroke:#FEFEFE;stroke-width:0.0277795}
    .str2 {stroke:#FEFEFE;stroke-width:0.0555551}
    .str3 {stroke:#FEFEFE;stroke-width:0.11111}
    .fil2 {fill:none}
    .fil0 {fill:#373435}
    .fil1 {fill:#FEFEFE}
   
  </style>
 
  
  
  
  
  
  
  
  
  
  
  
  
 </defs>
 <g
   id="_236079464"
   transform="translate(-1.8644068,-4.1483051)">
   <rect
   style="fill:#373435"
   ry="0.36457899"
   rx="0.36457899"
   height="2.5729201"
   width="2.5729201"
   y="2.07775"
   x="0.61731899"
   class="fil0"
   id="_236073896" />
   <path
   style="fill:#fefefe"
   inkscape:connector-curvature="0"
   d="M 1.68537,2.95501 C 1.68965,2.975006 1.69394,2.995002 1.698224,3.014998 1.54833,2.981061 1.317504,2.89747 1.150173,3.170057 0.844681,3.314628 0.766842,3.530041 0.909795,3.846238 0.908366,3.793391 0.8726966,3.740549 0.8712674,3.687703 0.8998343,3.757687 0.9324288,3.829683 0.9831494,3.899668 0.9760074,3.851109 0.9426809,3.800534 0.9355392,3.751975 0.9698187,3.816247 1.0443782,3.872455 1.0786572,3.936727 1.0629442,3.879597 1.0129962,3.772113 0.9972832,3.714983 1.013795,3.739778 1.0305352,3.814211 1.0533856,3.828495 1.0181016,3.713184 0.8956886,3.335908 1.1322436,3.272487 c -0.00272,0.015575 -0.00545,0.031153 -0.00818,0.046728 -0.00119,0.21235 0.118043,0.356846 0.222807,0.56987 0.019996,0.062842 0.039992,0.125689 0.059988,0.188531 0.068555,0.091405 0.13711,0.182815 0.205665,0.27422 0.00714,0.038563 0.014284,0.077126 0.021425,0.115689 0.017138,0.017138 0.03428,0.03428 0.051417,0.051417 0.035705,-0.00571 0.071413,-0.011425 0.107118,-0.017138 C 1.7696373,4.4546711 1.746783,4.4075412 1.7239326,4.360407 1.6610901,4.2747141 1.5982476,4.189017 1.5354046,4.103324 1.5182668,4.054761 1.5011251,4.006202 1.4839873,3.957639 1.4797039,3.826241 1.4754165,3.69484 1.471133,3.563442 1.539688,3.610576 1.608243,3.657706 1.676798,3.70484 1.671088,3.754828 1.665373,3.80482 1.65966,3.854809 1.639664,3.874805 1.619672,3.894797 1.599676,3.914793 c 0.00714,0.017138 0.01428,0.03428 0.021421,0.051417 0.068555,0.05713 0.137114,0.11426 0.205669,0.17139 -0.025709,0 -0.051417,0 -0.077126,0 -0.00143,0.021425 -0.00285,0.042847 -0.00428,0.064272 0.02428,0.015713 0.048559,0.031421 0.072839,0.047134 0.00143,0.035705 0.00285,0.071413 0.00428,0.107118 0.02428,0.00428 0.048563,0.00857 0.072842,0.012854 0.018567,-0.018567 0.037134,-0.037138 0.055701,-0.055705 0.08998,0 0.179961,0 0.269941,0 C 2.236672,4.286135 2.252384,4.259001 2.268093,4.231864 2.262723,4.070817 2.272993,4.084955 2.345219,3.940502 2.346649,3.90051 2.348079,3.860522 2.349509,3.82053 2.382442,3.750172 2.429993,3.703916 2.443773,3.619148 2.442343,3.552018 2.440913,3.484892 2.439483,3.417762 2.433773,3.383483 2.428058,3.349207 2.422345,3.314927 2.450912,3.270651 2.479475,3.226376 2.508042,3.1821 c 0.031421,0.015713 0.062843,0.031421 0.094264,0.047134 0.039992,0.00286 0.07998,0.00571 0.119972,0.00857 0.019996,0.00285 0.039992,0.00571 0.059988,0.00857 C 2.799404,3.272083 2.816542,3.297791 2.833679,3.3235 2.856533,3.32636 2.879384,3.32921 2.902238,3.33207 2.912238,3.320645 2.922234,3.309216 2.93223,3.29779 2.947943,3.29636 2.963651,3.29494 2.979364,3.29351 2.977824,3.272534 2.976274,3.251553 2.974734,3.230577 2.981994,3.217278 2.989246,3.203975 2.996502,3.190675 2.983959,3.180057 2.971411,3.169443 2.958868,3.158825 2.927136,3.122309 2.895407,3.085794 2.863675,3.049278 2.84234,2.878585 2.842329,2.90718 2.730848,2.775054 2.716564,2.726495 2.702281,2.677932 2.687998,2.629373 2.680858,2.662223 2.673719,2.695074 2.666577,2.727924 2.61516,2.729354 2.563742,2.730774 2.512325,2.732204 2.485187,2.715066 2.458053,2.697924 2.430916,2.680787 2.435196,2.707925 2.439486,2.735059 2.44377,2.762196 2.415203,2.765056 2.38664,2.767906 2.358073,2.770766 2.359503,2.736486 2.360933,2.702211 2.362363,2.667931 2.328662,2.569632 2.313044,2.52147 2.259528,2.43227 2.272382,2.400849 2.263148,2.351754 2.276,2.320333 2.28457,2.296053 2.315228,2.289447 2.323799,2.265168 c -0.018567,0 -0.037138,0 -0.055705,0 C 2.186728,2.168995 2.061885,2.18403 2.032433,2.316581 1.982445,2.330865 1.932457,2.345148 1.882468,2.359431 1.712763,2.433403 1.732582,2.405088 1.633952,2.560813 1.587161,2.747967 1.560617,2.802533 1.685369,2.95501 z M 1.872657,3.891305 C 1.865687,3.876777 1.858708,3.862246 1.851736,3.847718 1.780445,3.909631 1.794563,3.903545 1.701799,3.920942 1.705869,3.931985 1.709939,3.943025 1.714004,3.954068 1.78665,4.024387 1.859291,4.094706 1.931937,4.165025 1.997248,4.178084 1.991949,4.163085 1.996445,4.226045 2.010973,4.223725 2.025504,4.221395 2.040032,4.219075 2.038292,4.209195 2.036542,4.199315 2.034802,4.189437 2.009231,4.162705 1.98366,4.135968 1.958089,4.109236 1.925987,4.035153 1.899593,3.967425 1.87266,3.891307 z M 2.158586,3.865152 C 2.127204,3.862832 2.095818,3.860502 2.064436,3.858182 2.09066,3.93817 2.102302,3.984186 2.114999,4.067395 c 5.827e-4,0.020921 0.00116,0.041842 0.00174,0.062764 0.011039,0.011622 0.022083,0.023248 0.033122,0.03487 0,-0.020921 0,-0.041843 0,-0.062764 0.00174,-0.046492 0.00349,-0.092984 0.00523,-0.139476 0.00116,-0.032543 0.00233,-0.065091 0.00349,-0.097634 z M 2.564346,3.115813 C 2.549381,3.133006 2.534421,3.150195 2.519456,3.167388 2.543015,3.181077 2.566574,3.19477 2.590133,3.208459 2.61592,3.212279 2.641712,3.216099 2.667499,3.21992 2.696152,3.22215 2.724806,3.22438 2.75346,3.22661 2.736905,3.209736 2.72035,3.192866 2.703795,3.175992 2.619763,3.189189 2.610803,3.19224 2.564346,3.115819 z M 1.960338,2.9099775 c -0.024921,-0.013594 -0.049843,-0.027185 -0.074764,-0.04078 0.012689,0.033528 0.025374,0.067059 0.038063,0.100587 0.00498,0.024016 0.00997,0.048028 0.014953,0.072043 0.04848,-0.00226 0.096965,-0.00453 0.145445,-0.0068 C 2.064098,3.0073952 2.044161,2.9797535 2.024224,2.9521157 2.0029287,2.9380685 1.9816334,2.9240251 1.9603382,2.9099779 z m 0.278654,-0.20661 C 2.217697,2.6757295 2.196401,2.6480875 2.175106,2.6204505 2.118468,2.6580565 2.06183,2.6956635 2.005193,2.7332695 c 0.041232,0.040779 0.082465,0.081559 0.123697,0.122339 0.013142,-0.00181 0.02628,-0.00363 0.039421,-0.00544 C 2.19459,2.8148255 2.22087,2.7794835 2.24715,2.7441405 2.24443,2.7305495 2.24171,2.7169555 2.23899,2.7033645 z"
   class="fil1"
   id="_236078432" />
  </g><g
   id="_236076176"
   transform="translate(-5.220339,-1.6779661)">
   <rect
   style="fill:#373435"
   ry="0.36457899"
   rx="0.36457899"
   height="2.5729201"
   width="2.5729201"
   y="5.3524399"
   x="3.7698801"
   class="fil0"
   id="_236080016" />
   <path
   style="fill:#fefefe;stroke:#fefefe;stroke-width:0.0208346"
   inkscape:connector-curvature="0"
   d="M 5.86446,6.59476 6.342799,6.420571 M 5.86446,7.107358 6.342799,7.281547 m -1.99796,-0.940906 0,-0.00158 C 4.135327,6.3018693 3.976217,6.1188223 3.976217,5.8986333 c 0,-0.247067 0.200272,-0.447339 0.447335,-0.447339 0.213441,0 0.391937,0.1495 0.436567,0.3495 0.047311,-0.028362 0.102669,-0.044681 0.161843,-0.044681 0.174118,0 0.315264,0.141146 0.315264,0.315264 0,0.114035 -0.060555,0.213906 -0.151252,0.269264 l 0.16735,0 c 0.062114,0 0.112933,0.050815 0.112933,0.112933 l 0,0.200134 0.094177,0 0,-0.0023 0.252622,-0.040083 0,-0.055244 0.051409,0 0,0.038681 0,0.00133 0,0.509937 0,0.00133 0,0.035413 -0.051409,0 0,-0.051976 -0.252622,-0.040079 0,-0.0023 -0.094177,0 0,0.195661 c 0,0.062118 -0.050819,0.112933 -0.112933,0.112933 l -0.502504,0 0.303236,0.56835 -0.118122,0 -0.303236,-0.56835 -0.071677,0 -0.303236,0.56835 -0.118122,0 0.303236,-0.56835 -0.44161,0 c -0.062114,0 -0.112933,-0.050815 -0.112933,-0.112933 l 0,-0.7905 c 0,-0.062118 0.050819,-0.112933 0.112933,-0.112933 l 0.243551,0 z M 4.740741,6.214003 c -0.00185,0.00185 -0.0037,0.0037 -0.00557,0.00552 l 0.00846,0 c -9.764e-4,-0.00183 -0.00194,-0.00367 -0.00289,-0.00552 z"
   class="fil1 str0"
   id="_236080880" />
  </g><g
   id="_237228880"
   transform="translate(3.309322,-4.1016949)">
   <rect
   style="fill:#373435;stroke:#fefefe;stroke-width:0.00694488"
   ry="0.36457899"
   rx="0.36457899"
   height="2.5729201"
   width="2.5729201"
   y="2.07775"
   x="10.206"
   class="fil0 str1"
   id="_236073872" />
   <g
   id="g18">
    <path
   style="fill:#fefefe;stroke:#fefefe;stroke-width:0.00694488"
   inkscape:connector-curvature="0"
   d="m 10.6361,2.97247 0,-0.087677 0,-0.132406 c 0,-0.224504 0.183681,-0.408185 0.408185,-0.408185 l 0.896378,0 c 0.224504,0 0.408185,0.183681 0.408185,0.408185 l 0,0.132406 0,0.087677 0,0.31039 -0.06558,0 0,-0.29998 0,-0.050504 0,-0.030461 0,-0.122264 c 0,-0.207315 -0.169614,-0.376933 -0.376929,-0.376933 l -0.82774,0 c -0.207315,0 -0.376929,0.169618 -0.376929,0.376933 l 0,0.122264 0,0.030461 0,0.050504 0,0.29998 -0.06557,0 0,-0.31039 z"
   class="fil1 str1"
   id="_236076104" />
    <g
   id="g21">
     <g
   id="g23">
      <path
   style="fill:#fefefe;stroke:#fefefe;stroke-width:0.00694488"
   inkscape:connector-curvature="0"
   d="m 12.0697,3.28286 0.08815,0 L 12.11378,3.319659 12.0697,3.28286 z m 0.279161,0.229764 0,0.0033 -0.002,-0.00165 0.002,-0.00165 z m -0.08368,-0.192969 0.0817,0.068209 -0.0757,0.063205 -0.0817,-0.068209 0.0757,-0.063205 z"
   class="fil1 str1"
   id="_236075240" />
      <path
   style="fill:#fefefe;stroke:#fefefe;stroke-width:0.00694488"
   inkscape:connector-curvature="0"
   d="m 11.7549,3.28286 0.08815,0 L 11.79898,3.319655 11.7549,3.28286 z m 0.593976,0.492587 0,0.0033 -0.002,-0.00165 0.002,-0.00165 z m -0.398492,-0.455791 0.0817,0.068209 -0.07571,0.063201 -0.0817,-0.068209 0.0757,-0.063201 z m 0.157409,0.131413 0.0817,0.068213 -0.0757,0.063201 -0.0817,-0.068209 0.0757,-0.063205 z m 0.157406,0.131413 0.0817,0.068209 -0.07571,0.063205 -0.0817,-0.068213 0.07571,-0.063201 z"
   class="fil1 str1"
   id="_236078336" />
      <path
   style="fill:#fefefe;stroke:#fefefe;stroke-width:0.00694488"
   inkscape:connector-curvature="0"
   d="m 12.3488,4.03828 0,0.00135 -3.1e-5,0.00191 -0.0019,-0.00162 0.002,-0.00165 z m -0.908791,-0.755413 0.08815,0 -0.04407,0.036795 -0.04407,-0.036795 z m 0.195484,0.036795 0.0817,0.068209 -0.0757,0.063201 -0.0817,-0.068209 0.07571,-0.063201 z m 0.157406,0.131409 0.0817,0.068213 -0.0757,0.063201 -0.08171,-0.068209 0.07571,-0.063205 z m 0.157409,0.131417 0.0817,0.068209 -0.07571,0.063205 -0.0817,-0.068213 0.0757,-0.063201 z m 0.157409,0.131413 0.0817,0.068209 -0.0757,0.063201 -0.0817,-0.068209 0.0757,-0.063201 z m 0.157406,0.131409 0.0817,0.068213 -0.07571,0.063201 -0.0817,-0.068209 0.07571,-0.063205 z"
   class="fil1 str1"
   id="_236077040" />
      <path
   style="fill:#fefefe;stroke:#fefefe;stroke-width:0.00694488"
   inkscape:connector-curvature="0"
   d="M 12.3241,4.15737 C 12.3157,4.176634 12.30537,4.195087 12.29325,4.21259 L 12.26604,4.235303 12.18941,4.171331 12.26512,4.10813 12.3241,4.15737 z m -1.19891,-0.874512 0.08815,0 -0.04407,0.036795 -0.04407,-0.036795 z m 0.195484,0.036795 0.0817,0.068209 -0.0757,0.063201 -0.0817,-0.068209 0.07571,-0.063201 z m 0.157406,0.131409 0.0817,0.068213 -0.0757,0.063201 -0.08171,-0.068209 0.07571,-0.063205 z m 0.157409,0.131413 0.0817,0.068209 -0.07571,0.063205 -0.0817,-0.068213 0.0757,-0.063201 z m 0.157406,0.131413 0.0817,0.068209 -0.0757,0.063205 -0.0817,-0.068209 0.0757,-0.063205 z m 0.157409,0.131409 0.08171,0.068213 -0.07571,0.063205 -0.0817,-0.068209 0.0757,-0.063209 z m 0.157409,0.131413 0.0817,0.068209 -0.0757,0.063209 -0.0817,-0.068213 0.07571,-0.063205 z"
   class="fil1 str1"
   id="_236076944" />
      <path
   style="fill:#fefefe;stroke:#fefefe;stroke-width:0.00694488"
   inkscape:connector-curvature="0"
   d="m 12.1416,4.33926 c -0.01414,0.0068 -0.0288,0.012913 -0.04391,0.018276 l -0.06562,-0.054784 0.0757,-0.063209 0.07663,0.06398 -0.04281,0.035736 z m -1.33117,-1.05639 0.08815,0 -0.04407,0.036795 -0.04407,-0.036795 z m 0.19548,0.036795 0.0817,0.068209 -0.0757,0.063201 -0.0817,-0.068209 0.0757,-0.063201 z m 0.157413,0.131409 0.0817,0.068213 -0.07571,0.063201 -0.0817,-0.068209 0.07571,-0.063205 z m 0.157409,0.131413 0.0817,0.068209 -0.07571,0.063205 -0.08171,-0.068213 0.07571,-0.063201 z m 0.157406,0.131413 0.08171,0.068209 -0.07571,0.063201 -0.0817,-0.068209 0.07571,-0.063201 z m 0.157409,0.131409 0.0817,0.068213 -0.0757,0.063205 -0.08171,-0.068209 0.07571,-0.063209 z m 0.157406,0.131413 0.0817,0.068209 -0.07571,0.063209 -0.0817,-0.068213 0.07571,-0.063205 z m 0.157409,0.131413 0.0817,0.068209 -0.07571,0.063205 -0.0817,-0.068209 0.07571,-0.063205 z"
   class="fil1 str1"
   id="_236077376" />
      <path
   style="fill:#fefefe;stroke:#fefefe;stroke-width:0.00694488"
   inkscape:connector-curvature="0"
   d="m 11.9654,4.38355 c -0.0082,4.173e-4 -0.01647,6.614e-4 -0.02478,6.614e-4 l -0.0062,0 0.01588,-0.013256 0.01509,0.012594 z m -1.32935,-0.983394 0,-0.034591 0.05499,-0.045905 0.0817,0.068209 -0.07571,0.063201 -0.06099,-0.050913 z m 0.212398,0.050913 0.0817,0.068213 -0.0757,0.063201 -0.0817,-0.068209 0.0757,-0.063205 z m 0.157406,0.131413 0.08171,0.068209 -0.0757,0.063205 -0.08171,-0.068213 0.0757,-0.063201 z m 0.157413,0.131413 0.08171,0.068209 -0.07571,0.063201 -0.0817,-0.068209 0.0757,-0.063201 z m 0.157409,0.131409 0.0817,0.068213 -0.0757,0.063201 -0.0817,-0.068209 0.07571,-0.063205 z m 0.157406,0.131413 0.0817,0.068209 -0.0757,0.063205 -0.08171,-0.068213 0.07571,-0.063201 z m 0.157409,0.131413 0.0817,0.068209 -0.07571,0.063201 -0.0817,-0.068209 0.0757,-0.063201 z m 0.157406,0.131409 0.0817,0.068213 -0.0757,0.063201 -0.0817,-0.068209 0.0757,-0.063205 z"
   class="fil1 str1"
   id="_236079632" />
      <path
   style="fill:#fefefe;stroke:#fefefe;stroke-width:0.00694488"
   inkscape:connector-curvature="0"
   d="m 11.6514,4.38421 -0.03176,0 0.01588,-0.013256 0.01588,0.013256 z m -1.01532,-0.721228 0,-0.034591 0.05499,-0.045909 0.08171,0.068209 -0.07571,0.063205 -0.06099,-0.050913 z m 0.212398,0.050913 0.0817,0.068209 -0.07571,0.063201 -0.0817,-0.068209 0.0757,-0.063201 z m 0.157409,0.131409 0.08171,0.068213 -0.07571,0.063201 -0.0817,-0.068209 0.0757,-0.063205 z m 0.157409,0.131413 0.0817,0.068209 -0.07571,0.063205 -0.0817,-0.068213 0.07571,-0.063201 z m 0.157409,0.131413 0.0817,0.068209 -0.0757,0.063201 -0.0817,-0.068209 0.07571,-0.063201 z m 0.157406,0.131409 0.0817,0.068213 -0.0757,0.063201 -0.08171,-0.068209 0.07571,-0.063205 z"
   class="fil1 str1"
   id="_236080400" />
      <path
   style="fill:#fefefe;stroke:#fefefe;stroke-width:0.00694488"
   inkscape:connector-curvature="0"
   d="m 11.3467,4.38421 -0.04189,0 0.02095,-0.017488 0.02095,0.017488 z m -0.710642,-0.466874 0,-0.026126 0.06006,-0.050142 0.0817,0.068213 -0.0757,0.063205 -0.06606,-0.05515 z m 0.217469,0.05515 0.0817,0.068209 -0.0757,0.063205 -0.08171,-0.068213 0.07571,-0.063201 z m 0.157409,0.131413 0.08171,0.068209 -0.07571,0.063201 -0.0817,-0.068209 0.0757,-0.063201 z m 0.157409,0.131409 0.0817,0.068213 -0.0757,0.063201 -0.0817,-0.068209 0.07571,-0.063205 z"
   class="fil1 str1"
   id="_236081456" />
      <path
   style="fill:#fefefe;stroke:#fefefe;stroke-width:0.00694488"
   inkscape:connector-curvature="0"
   d="M 11.042,4.38418 C 11.0255,4.3841052 11.00922,4.3832076 10.99323,4.38151 L 11.01601,4.36249 11.042,4.384183 z M 10.875665,4.353251 c -0.01701,-0.00657 -0.0334,-0.014098 -0.04908,-0.022504 l -0.04368,-0.036468 0.0757,-0.063205 0.08171,0.068213 -0.06464,0.053965 z M 10.701858,4.226617 c -0.02064,-0.026779 -0.03698,-0.056098 -0.04823,-0.087248 l 0.04757,-0.039709 0.0817,0.068209 -0.0757,0.063201 -0.0053,-0.00445 z"
   class="fil1 str1"
   id="_237230176" />
     </g>
     <g
   id="g34">
      <polygon
   style="fill:#fefefe;stroke:#fefefe;stroke-width:0.00694488"
   points="10.6361,3.28286 10.6361,3.36556 10.7351,3.28286 "
   class="fil1 str1"
   id="_237231400" />
      <polygon
   style="fill:#fefefe;stroke:#fefefe;stroke-width:0.00694488"
   points="10.8986,3.28286 10.6361,3.50198 10.6361,3.62839 11.05,3.28286 "
   class="fil1 str1"
   id="_237230056" />
      <polygon
   style="fill:#fefefe;stroke:#fefefe;stroke-width:0.00694488"
   points="10.6361,3.89121 11.3648,3.28286 11.2134,3.28286 10.6361,3.76481 10.6361,3.85384 "
   class="fil1 str1"
   id="_237229552" />
      <path
   style="fill:#fefefe;stroke:#fefefe;stroke-width:0.00694488"
   inkscape:connector-curvature="0"
   d="m 11.5282,3.28286 -0.892098,0.744772 0,0.011996 c 0,0.034646 0.0062,0.068134 0.01757,0.09974 l 1.02594,-0.856508 -0.151409,0 z"
   class="fil1 str1"
   id="_237228160" />
      <path
   style="fill:#fefefe;stroke:#fefefe;stroke-width:0.00694488"
   inkscape:connector-curvature="0"
   d="m 11.843,3.28286 -1.13691,0.94915 c 0.02003,0.024965 0.04385,0.047618 0.07071,0.06737 l 1.21761,-1.01652 -0.151409,0 z"
   class="fil1 str1"
   id="_237229456" />
      <path
   style="fill:#fefefe;stroke:#fefefe;stroke-width:0.00694488"
   inkscape:connector-curvature="0"
   d="m 12.1578,3.28286 -1.28214,1.07039 c 0.03665,0.01415 0.07618,0.023847 0.117571,0.028256 l 1.31598,-1.09865 -0.151409,0 z"
   class="fil1 str1"
   id="_237229576" />
      <polygon
   style="fill:#fefefe;stroke:#fefefe;stroke-width:0.00694488"
   points="12.3488,3.38622 11.1534,4.38421 11.3048,4.38421 12.3488,3.51263 "
   class="fil1 str1"
   id="_237228352" />
      <polygon
   style="fill:#fefefe;stroke:#fefefe;stroke-width:0.00694488"
   points="12.3488,3.64905 11.4682,4.38421 11.6196,4.38421 12.3488,3.77545 "
   class="fil1 str1"
   id="_237230992" />
      <polygon
   style="fill:#fefefe;stroke:#fefefe;stroke-width:0.00694488"
   points="12.3488,4.03828 12.3488,3.92786 12.3488,3.91187 11.7831,4.38421 11.9345,4.38421 "
   class="fil1 str1"
   id="_237231088" />
      <path
   style="fill:#fefefe;stroke:#fefefe;stroke-width:0.00694488"
   inkscape:connector-curvature="0"
   d="M 12.2933,4.2126 12.141595,4.33925 C 12.204355,4.3090492 12.256847,4.2652146 12.2933,4.2126 z"
   class="fil1 str1"
   id="_237229408" />
     </g>
    </g>
    <path
   style="fill:#fefefe;stroke:#fefefe;stroke-width:0.00694488"
   inkscape:connector-curvature="0"
   d="m 11.1745,2.95904 c 0.210201,0 0.388748,0.135449 0.453165,0.323823 l -0.906331,0 C 10.785751,3.094489 10.964299,2.95904 11.174499,2.95904 z"
   class="fil1 str1"
   id="_237230416" />
    <path
   style="fill:#fefefe;stroke:#fefefe;stroke-width:0.00694488"
   inkscape:connector-curvature="0"
   d="m 11.4901,3.28286 c 0.02889,-0.067594 0.06344,-0.140055 0.106488,-0.214559 0.03964,-0.068614 0.176756,-0.243783 0.254457,-0.337346 -0.04927,0.112567 -0.08355,0.197783 -0.113091,0.279028 0.01448,-0.019032 0.02962,-0.038181 0.04551,-0.05739 0.05052,-0.061055 0.214882,-0.210953 0.307075,-0.290272 -0.09327,0.142409 -0.149453,0.237854 -0.205701,0.343079 0.05453,-0.063665 0.21324,-0.208295 0.30322,-0.285713 -0.150992,0.230551 -0.204803,0.338 -0.319004,0.563173 l -0.378957,0 z m 0.652287,0 c 0.0644,-0.056898 0.140815,-0.120823 0.192752,-0.162559 -0.0462,0.061799 -0.08417,0.114197 -0.117917,0.162559 l -0.07484,0 z"
   class="fil1 str1"
   id="_237230128" />
    <path
   style="fill:#fefefe;stroke:#fefefe;stroke-width:0.00694488"
   inkscape:connector-curvature="0"
   d="m 11.4347,3.12095 c 0.105098,0 0.194374,0.067724 0.226583,0.161909 l -0.453165,0 c 0.03221,-0.094185 0.12148,-0.161909 0.226583,-0.161909 z"
   class="fil1 str1"
   id="_237231232" />
    <path
   style="fill:#fefefe;stroke:#fefefe;stroke-width:0.00694488"
   inkscape:connector-curvature="0"
   d="m 12.0005,3.20191 c 0.05255,0 0.09718,0.033862 0.113291,0.080957 l -0.226583,0 c 0.01611,-0.047095 0.06074,-0.080957 0.113291,-0.080957 z"
   class="fil1 str1"
   id="_237231304" />
   </g>
  </g><g
   id="_237229000"
   transform="translate(1.2118644,-4.0084746)">
   <rect
   style="fill:#373435"
   ry="0.36457899"
   rx="0.36457899"
   height="2.5729201"
   width="2.5729201"
   y="2.07775"
   x="7.0203199"
   class="fil0"
   id="_237229024" />
   <path
   style="fill:#fefefe"
   inkscape:connector-curvature="0"
   d="m 9.42468,3.67884 0,0.548697 c 0,0.140016 -0.114555,0.254571 -0.254571,0.254571 l -1.72665,0 c -0.140016,0 -0.254571,-0.114555 -0.254571,-0.254571 l 0,-0.548697 0,-0.192543 0,-0.413504 0.078913,0 0,0.413504 0,0.00939 0,0.18315 0,0.379504 0,0.12626 c 0,0.130134 0.106472,0.236602 0.236602,0.236602 l 1.60476,0 c 0.130134,0 0.236602,-0.106469 0.236602,-0.236602 l 0,-0.12626 0,-0.562654 0,-0.00939 2.677e-4,0 0,-0.413504 0.078913,0 0,0.606047 -2.677e-4,0 z"
   class="fil1"
   id="_237229240" />
   <path
   style="fill:#fefefe"
   inkscape:connector-curvature="0"
   d="m 7.44345,2.24631 1.72665,0 c 0.140016,0 0.254571,0.07426 0.254571,0.165024 l 0,0.573075 -1.1179,-0.478571 0,0 -1.11789,0.478571 0,-0.573075 c 0,-0.090764 0.114555,-0.165024 0.254571,-0.165024 z"
   class="fil1"
   id="_237231880" />
   <path
   style="fill:#fefefe;stroke:#fefefe;stroke-width:0.00694488"
   inkscape:connector-curvature="0"
   d="m 7.66222,4.13402 c 0.012071,0 0.021854,0.00978 0.021854,0.021858 0,0.011362 -0.00868,0.020701 -0.019764,0.021756 9.685e-4,6.3e-5 0.00195,9.84e-5 0.00294,9.84e-5 8.268e-4,0 0.00165,-2.36e-5 0.00246,-7.08e-5 l 0,0.00932 0.0017,0 0.020232,0.00738 0.019571,0.045102 0.00532,0.037933 -0.014197,0.00623 -0.00546,-0.030209 -0.00522,-0.00979 0,0.049268 -4.134e-4,0 0,0.128303 -0.021299,0 -0.0096,-0.128303 -0.0096,0.128303 -0.021299,0 0,-0.128303 0,-0.049268 -0.00522,0.00979 -0.00546,0.030209 -0.014193,-0.00623 0.00531,-0.037933 0.019567,-0.045102 0.0205,-0.00736 0,-0.013047 c -0.00578,-0.00393 -0.00957,-0.010559 -0.00957,-0.018075 0,-0.012075 0.00979,-0.021858 0.021858,-0.021858 z"
   class="fil1 str1"
   id="_237228232" />
   <path
   style="fill:#fefefe;stroke:#fefefe;stroke-width:0.00694488"
   inkscape:connector-curvature="0"
   d="m 7.8568,4.21725 c 0.00857,0 0.01552,0.00695 0.01552,0.015524 0,0.00807 -0.00616,0.014701 -0.014035,0.015449 6.89e-4,4.72e-5 0.00139,7.09e-5 0.00209,7.09e-5 5.867e-4,0 0.00117,-1.58e-5 0.00174,-4.73e-5 l 0,0.00661 0.0012,0 0.01437,0.00525 0.013898,0.032028 0.00378,0.026941 -0.010083,0.00443 -0.00388,-0.021457 -0.00371,-0.00695 0,0.034992 -2.913e-4,0 0,0.091118 -0.01513,0 -0.00682,-0.091118 -0.00681,0.091118 -0.01513,0 0,-0.091118 0,-0.034992 -0.00371,0.00695 -0.00388,0.021457 -0.010083,-0.00443 0.00378,-0.026941 0.013894,-0.032028 0.014563,-0.00523 0,-0.00926 c -0.0041,-0.0028 -0.0068,-0.0075 -0.0068,-0.012839 0,-0.00857 0.00695,-0.015524 0.015524,-0.015524 z"
   class="fil1 str1"
   id="_237231160" />
  </g><g
   id="_236439216"
   transform="translate(-4.5211865,-1.5847458)">
   <rect
   style="fill:#373435"
   ry="0.36457899"
   rx="0.36457899"
   height="2.5729201"
   width="2.5729201"
   y="5.3524399"
   x="-2.5340199"
   class="fil0"
   id="_236439600" />
   <path
   style="fill:#fefefe;stroke:#373435;stroke-width:0.00694488"
   inkscape:connector-curvature="0"
   d="m -2.34059,7.05789 0.180016,-0.168016 c 0.042004,-0.126008 0.084004,-0.25202 0.126008,-0.378028 0.265252,-0.561122 0.555118,-0.683366 1.11609,-0.618047 0.563634,0.1425 0.663193,0.473362 0.691929,1.01946 0.0240039,0.108008 0.00574,0.208331 0.0720079,0.324024 -0.0761457,0.110878 -0.234283,0.163299 -0.367906,0.162638 -0.280646,-0.021925 -0.468953,-0.071457 -0.744055,-0.131063 -0.257059,-0.038366 -0.43013,-0.060098 -0.690055,-0.060953 -0.213815,-0.028551 -0.37528,-0.070193 -0.384031,-0.150012 z m 0.512882,-0.654417 0.024016,0.146654 0.130339,7.323e-4 -0.115437,0.089319 0.024504,0.146472 -0.095354,-0.091457 -0.115193,0.089795 0.056504,-0.145839 -0.095705,-0.09098 0.13028,0.00133 0.056047,-0.146024 z"
   class="fil1 str6"
   id="_236440296" />
  </g><g
   id="_235416736"
   transform="translate(-4.3347458,-4.1949153)">
   <rect
   style="fill:#373435"
   ry="0.36457899"
   rx="0.36457899"
   height="2.5729201"
   width="2.5729201"
   y="2.07775"
   x="-2.5340199"
   class="fil0"
   id="_236439744" />
   <g
   id="g81">
    <polygon
   style="fill:#fefefe"
   points="-0.853508,2.85717 -0.908618,2.6753 -0.991287,2.55405 -0.566921,2.4824 -1.26685,2.32257 -1.96679,2.49343 -1.74633,2.54854 -1.77389,2.69183 -1.80145,3.00598 -1.86207,3.33665 -1.76287,3.3587 -1.73531,3.10518 -1.7298,2.75797 -1.70776,2.65325 -1.69122,2.53752 -1.56446,2.57059 -1.66918,2.84615 -1.22276,3.00046 "
   class="fil1"
   id="_235417144" />
    <polygon
   style="fill:#fefefe"
   points="-1.35504,4.09721 -1.25583,4.23499 -1.15111,4.19641 -1.01333,3.93187 -0.941689,3.7004 -0.936177,3.52404 -0.985776,3.43034 -0.671634,3.57915 -0.48976,3.62875 -0.357492,3.71693 -0.357492,4.40584 -2.13764,4.40584 -2.13764,3.72796 -2.07702,3.63977 -1.88963,3.57915 -1.49833,3.44688 -1.56998,3.63426 -1.4818,3.87125 "
   class="fil1"
   id="_235417024" />
   </g>
  </g><g
   id="_237664832"
   transform="translate(-0.23305087,-4.1016949)">
   <rect
   style="fill:#373435"
   ry="0.36457899"
   rx="0.36457899"
   height="2.5729201"
   width="2.5729201"
   y="2.07775"
   x="3.7698801"
   class="fil0"
   id="_237665720" />
   <path
   style="fill:#fefefe;stroke:#fefefe;stroke-width:0.00694488"
   inkscape:connector-curvature="0"
   d="M 5.15675,2.67312 C 5.1215177,2.7114428 5.052632,2.784541 4.972337,2.772935 4.8920417,2.7613326 4.830518,2.6782145 4.832199,2.604628 4.725715,2.5507264 4.575817,2.407541 4.629246,2.37551 4.6154625,2.3396911 4.969317,2.3069509 5.070695,2.257742 5.15512,2.35014 5.425262,2.552407 5.423061,2.577329 5.437144,2.661026 5.254372,2.667864 5.15675,2.67312 z M 5.119069,3.304616 C 5.202132,3.247151 5.285183,3.189687 5.368246,3.132222 5.302096,3.09321 5.235947,3.054202 5.169797,3.015191 5.106797,2.952191 5.045584,2.8999 4.982584,2.8369 4.913891,2.949908 4.843411,3.052199 4.774722,3.165207 4.889505,3.211676 5.004289,3.258148 5.119068,3.304616 z M 5.44914,3.089352 C 5.628404,2.965324 5.882632,2.776332 6.061896,2.652301 6.112298,2.712781 6.133337,2.760679 6.213101,2.833746 6.230743,2.92699 6.248381,3.02023 6.266022,3.11347 6.230743,3.10843 6.195459,3.103387 6.160179,3.098348 6.147577,3.012671 6.129388,2.907407 6.116785,2.821726 6.094104,2.794005 6.077017,2.785864 6.054336,2.758143 5.895336,2.803485 5.74382,2.936273 5.589816,3.044076 5.547261,3.079915 5.507198,3.153237 5.464647,3.189072 5.459957,3.186312 5.455267,3.183542 5.450576,3.180772 5.326938,3.216603 5.292163,3.319646 5.191009,3.390453 5.183449,3.413134 5.143336,3.40454 5.135777,3.427221 5.03232,3.377879 4.917525,3.362556 4.814068,3.313217 4.841922,3.354997 4.869773,3.396776 4.897631,3.43856 4.912753,3.609922 4.910737,3.798552 4.925859,3.969914 4.889961,4.010406 4.86456,4.015406 4.799347,3.975334 4.816256,3.782428 4.75078,3.669263 4.733138,3.50294 4.680217,3.450019 4.653819,3.43429 4.600898,3.381369 4.628619,3.514932 4.643103,3.584727 4.670823,3.718286 4.693504,3.940054 4.693898,4.16288 4.716579,4.384648 c 0,0 -0.083551,0.086279 -0.136476,0.00649 C 4.537261,4.19204 4.495264,3.990949 4.489379,3.703162 4.388084,3.577816 4.277324,3.537938 4.194536,3.246154 4.235418,3.068343 4.406217,2.885532 4.51206,2.705221 4.601048,2.570587 4.764588,2.568201 4.791111,2.580977 4.775241,2.697579 4.854784,2.812257 4.979902,2.811906 5.059382,2.814426 5.112607,2.757922 5.1153,2.707221 c 0.039472,0.048917 0.060386,0.107846 0.099858,0.156764 0.10298,0.053468 0.131,0.171898 0.23398,0.225366 z"
   class="fil1 str1"
   id="_237661280" />
  </g><rect
   style="fill:#373435"
   id="rect88"
   ry="0.36457899"
   rx="0.36457899"
   height="2.5729201"
   width="2.5729201"
   y="3.6933038"
   x="3.2448967"
   class="fil0" /><g
   id="_237662720"
   transform="translate(-3.7754238,-1.6313559)">
   <path
   style="fill:#fefefe"
   inkscape:connector-curvature="0"
   d="M 7.21471,5.97822 C 7.582588,5.785901 7.905631,5.823566 8.182702,6.097181 l 0.22148,1.00704 C 8.062469,6.826713 7.719788,6.814406 7.376032,7.099469 L 7.214709,5.978229 z"
   class="fil1"
   id="_237663128" />
   <polygon
   style="fill:#fefefe"
   points="7.21471,5.97822 7.1614,6.15857 7.32588,7.26096 7.37604,7.09946 "
   class="fil1"
   id="_237664688" />
   <path
   style="fill:#fefefe"
   inkscape:connector-curvature="0"
   d="M 7.37604,7.09946 7.325887,7.260948 C 7.720013,6.974172 8.047867,6.877369 8.370067,7.230802 L 8.404189,7.104211 C 8.062476,6.826703 7.719795,6.814396 7.376039,7.099461 z"
   class="fil1"
   id="_237663032" />
   <path
   style="fill:#fefefe"
   inkscape:connector-curvature="0"
   d="M 8.40419,7.10422 8.18271,6.09718 C 8.368887,5.937869 8.745045,5.838794 9.079175,5.992121 l 0.379488,1.02792 C 9.106257,6.806698 8.78847,6.805443 8.404193,7.1042182 z"
   class="fil1"
   id="_237664328" />
   <path
   style="fill:#fefefe"
   inkscape:connector-curvature="0"
   d="M 8.40419,7.10422 8.370068,7.230811 C 8.764194,6.944039 9.077643,6.874933 9.428438,7.127803 L 9.458659,7.020043 C 9.1062525,6.8067 8.7884655,6.805445 8.4041885,7.1042202 z"
   class="fil1"
   id="_237667592" />
   <path
   style="fill:none"
   inkscape:connector-curvature="0"
   d="M 7.3377,7.2047 C 7.725936,6.937846 8.050964,6.850613 8.37694,7.1912906"
   class="fil2"
   id="_237666296" />
   <path
   style="fill:none"
   inkscape:connector-curvature="0"
   d="M 7.35982,7.14637 C 7.74806,6.879516 8.050517,6.839846 8.38624,7.1598109"
   class="fil2"
   id="_237664736" />
   <line
   style="fill:none"
   y2="6.5308499"
   x2="7.2527199"
   y1="6.07939"
   x1="7.1848102"
   class="fil2"
   id="_237661040" />
   <line
   style="fill:none"
   y2="7.1872902"
   x2="7.3456702"
   y1="6.70468"
   x1="7.2664099"
   class="fil2"
   id="_237666440" />
   <path
   style="fill:none"
   inkscape:connector-curvature="0"
   d="M 8.37234,7.1693 C 8.760576,6.90245 9.093135,6.795355 9.43873,7.0911031"
   class="fil2"
   id="_237663800" />
   <path
   style="fill:none"
   inkscape:connector-curvature="0"
   d="M 8.38062,7.19164 C 8.76886,6.924786 8.910959,6.940089 8.969179,6.937542"
   class="fil2"
   id="_237664208" />
  </g><g
   id="_237667160"
   transform="translate(-2.0042373,-1.4449153)">
   <rect
   style="fill:#373435"
   ry="0.36457899"
   rx="0.36457899"
   height="2.5729201"
   width="2.5729201"
   y="5.2730398"
   x="10.206"
   class="fil0"
   id="_237666824" />
   <path
   style="fill:#fefefe"
   inkscape:connector-curvature="0"
   d="m 10.7562,5.49042 c 0.422047,-0.00277 0.844091,-0.00554 1.26614,-0.00831 -0.04201,0.075319 -0.08401,0.150634 -0.126016,0.225953 -0.02607,0.011587 -0.05214,0.023173 -0.07821,0.03476 -0.01159,0.099941 -0.02317,0.199878 -0.03476,0.299819 -0.0049,0.013122 -0.01929,0.021382 -0.06084,0.013035 -0.03042,-0.00579 -0.06083,-0.011587 -0.09125,-0.017378 -0.01798,0.024634 -0.02179,0.056898 -0.02172,0.091244 -0.0029,0.011618 -0.02598,0.014709 -0.09125,0 0.0043,0.021728 0.0053,0.024768 0.0021,0.067366 -0.03181,-0.00369 -0.04698,0.0094 -0.07595,0.015193 -0.02897,0.028969 -0.05793,0.057933 -0.0869,0.086906 -0.0963,0.053185 -0.211406,-0.09311 -0.269402,-0.160772 -0.08894,0 -0.145173,0.095685 -0.204224,0.156429 -0.0484,0.128909 -0.04089,0.257815 -0.01738,0.38672 0.02897,0.060831 0.05794,0.121665 0.08691,0.182496 -0.0014,0.073866 -0.0029,0.147736 -0.0043,0.221606 0.0072,0.126008 0.01449,0.252024 0.02173,0.378031 0.03041,0.0029 0.06083,0.00579 0.09125,0.00869 0.01593,-0.068075 0.03187,-0.136146 0.0478,-0.204224 -0.0029,-0.049248 -0.0058,-0.098488 -0.0087,-0.147736 0.02172,-0.086905 0.04345,-0.173803 0.06518,-0.260709 0.03476,-0.043453 0.06953,-0.086902 0.104287,-0.130354 0.02462,-0.028972 0.04924,-0.057937 0.07387,-0.086905 0.01448,-0.026075 0.02897,-0.052142 0.04345,-0.078216 0.065,0.019504 0.08246,0.030394 0.06952,0.108634 -0.02462,0.050693 -0.04925,0.101386 -0.07387,0.152079 0.05649,-0.056488 0.112972,-0.112972 0.169461,-0.169465 0.04635,-0.04924 0.0927,-0.098488 0.139047,-0.147732 0.02318,-0.023173 0.04636,-0.04635 0.06953,-0.069528 0.02462,-0.00434 0.04587,-0.035618 0.07387,-0.013032 0.01303,0.021728 0.01738,0.028969 0.02607,0.043453 0.02462,-0.00724 0.04756,-0.03974 0.07387,-0.021728 0.02239,0.01378 0.01448,0.037661 0.02172,0.056488 -0.0087,0.024626 -0.01738,0.049244 -0.02607,0.073866 0.02752,0.00145 0.05692,-0.028976 0.08256,0.00435 0,0.032591 0.02813,0.032205 0,0.065177 -0.03331,0.053591 -0.06663,0.107181 -0.09994,0.160776 0.02752,-0.00145 0.05504,-0.046024 0.08256,-0.00435 0.02497,0.01363 0.0087,0.03476 0.01304,0.052142 -0.05214,0.068079 -0.104283,0.13615 -0.156429,0.204224 -0.04056,0.063728 -0.08111,0.127457 -0.121665,0.191185 -0.06808,0.055039 -0.136146,0.110083 -0.20422,0.165122 -0.01593,0.015933 -0.03187,0.031866 -0.0478,0.047795 -0.01448,0.055039 -0.02897,0.110079 -0.04345,0.165118 -0.246028,0 -0.492059,0 -0.738091,0 0,-3.465e-4 0,-6.89e-4 0,-0.00103 -0.0074,0 -0.01488,0 -0.02232,0 -0.135575,0 -0.246496,-0.110921 -0.246496,-0.246496 0,-0.548287 0,-1.09657 0,-1.64485 0,-0.135575 0.110921,-0.246496 0.246496,-0.246496 0.02696,0 0.05392,0 0.08088,0 0,2.165e-4 0,4.37e-4 0,6.535e-4 z"
   class="fil1"
   id="_237666776" />
  </g>
<text
   xml:space="preserve"
   style="font-size:0.44444439px;font-style:normal;font-weight:normal;line-height:125%;letter-spacing:0px;word-spacing:0px;fill:#000000;fill-opacity:1;stroke:none;font-family:Sans"
   x="-6.7584739"
   y="1.4449152"
   id="text3172"
   sodipodi:linespacing="125%"><tspan
     sodipodi:role="line"
     id="tspan3174"
     x="-6.7584739"
     y="1.4449152">University</tspan></text>
<text
   xml:space="preserve"
   style="font-size:0.44444439px;font-style:normal;font-weight:normal;line-height:125%;letter-spacing:0px;word-spacing:0px;fill:#000000;fill-opacity:1;stroke:none;font-family:Sans"
   x="-1.4449151"
   y="1.3983049"
   id="text3176"
   sodipodi:linespacing="125%"><tspan
     sodipodi:role="line"
     id="tspan3178"
     x="-1.4449151"
     y="1.3983049">Horse Racing</tspan></text>
<text
   xml:space="preserve"
   style="font-size:0.44444439px;font-style:normal;font-weight:normal;line-height:125%;letter-spacing:0px;word-spacing:0px;fill:#000000;fill-opacity:1;stroke:none;font-family:Sans"
   x="2.5635591"
   y="1.3983049"
   id="text3180"
   sodipodi:linespacing="125%"><tspan
     sodipodi:role="line"
     id="tspan3182"
     x="2.5635591"
     y="1.3983049">Traditional Farming</tspan></text>
<text
   xml:space="preserve"
   style="font-size:0.44444439px;font-style:normal;font-weight:normal;line-height:125%;letter-spacing:0px;word-spacing:0px;fill:#000000;fill-opacity:1;stroke:none;font-family:Sans"
   x="8.949152"
   y="1.3516948"
   id="text3184"
   sodipodi:linespacing="125%"><tspan
     sodipodi:role="line"
     id="tspan3186"
     x="8.949152"
     y="1.3516948">Hall</tspan></text>
<text
   xml:space="preserve"
   style="font-size:0.44444439px;font-style:normal;font-weight:normal;line-height:125%;letter-spacing:0px;word-spacing:0px;fill:#000000;fill-opacity:1;stroke:none;font-family:Sans"
   x="12.864405"
   y="1.2118644"
   id="text3188"
   sodipodi:linespacing="125%"><tspan
     sodipodi:role="line"
     id="tspan3190"
     x="12.864405"
     y="1.2118644">Traditional Market</tspan></text>
<text
   xml:space="preserve"
   style="font-size:0.44444439px;font-style:normal;font-weight:normal;line-height:125%;letter-spacing:0px;word-spacing:0px;fill:#000000;fill-opacity:1;stroke:none;font-family:Sans"
   x="-6.6652532"
   y="7.1779656"
   id="text3192"
   sodipodi:linespacing="125%"><tspan
     sodipodi:role="line"
     id="tspan3194"
     x="-6.6652532"
     y="7.1779656">Military</tspan></text>
<text
   xml:space="preserve"
   style="font-size:0.44444439px;font-style:normal;font-weight:normal;line-height:125%;letter-spacing:0px;word-spacing:0px;fill:#000000;fill-opacity:1;stroke:none;font-family:Sans"
   x="-1.0720341"
   y="6.9449148"
   id="text3196"
   sodipodi:linespacing="125%"><tspan
     sodipodi:role="line"
     id="tspan3198"
     x="-1.0720341"
     y="6.9449148">Cinema</tspan></text>
<text
   xml:space="preserve"
   style="font-size:0.44444439px;font-style:normal;font-weight:normal;line-height:125%;letter-spacing:0px;word-spacing:0px;fill:#000000;fill-opacity:1;stroke:none;font-family:Sans"
   x="3.6355932"
   y="7.0381351"
   id="text3200"
   sodipodi:linespacing="125%"><tspan
     sodipodi:role="line"
     id="tspan3202"
     x="3.6355932"
     y="7.0381351">Library</tspan></text>
<text
   xml:space="preserve"
   style="font-size:0.44444439px;font-style:normal;font-weight:normal;line-height:125%;letter-spacing:0px;word-spacing:0px;fill:#000000;fill-opacity:1;stroke:none;font-family:Sans"
   x="7.5508466"
   y="7.0381355"
   id="text3204"
   sodipodi:linespacing="125%"><tspan
     sodipodi:role="line"
     id="tspan3206"
     x="7.5508466"
     y="7.0381355">Place of Worship</tspan></text>
</svg>