<?xml version="1.0" encoding="UTF-8" standalone="no"?>
<!-- Creator: CorelDRAW X5 -->

<svg
   xmlns:dc="http://purl.org/dc/elements/1.1/"
   xmlns:cc="http://creativecommons.org/ns#"
   xmlns:rdf="http://www.w3.org/1999/02/22-rdf-syntax-ns#"
   xmlns:svg="http://www.w3.org/2000/svg"
   xmlns="http://www.w3.org/2000/svg"
   xmlns:sodipodi="http://sodipodi.sourceforge.net/DTD/sodipodi-0.dtd"
   xmlns:inkscape="http://www.inkscape.org/namespaces/inkscape"
   xml:space="preserve"
   width="8.5in"
   height="11in"
   style="shape-rendering:geometricPrecision; text-rendering:geometricPrecision; image-rendering:optimizeQuality; fill-rule:evenodd; clip-rule:evenodd"
   viewBox="0 0 8.5 11"
   id="svg2"
   version="1.1"
   inkscape:version="0.48.2 r9819"
   sodipodi:docname="OSM symbol 2.svg"><metadata
   id="metadata39"><rdf:RDF><cc:Work
       rdf:about=""><dc:format>image/svg+xml</dc:format><dc:type
         rdf:resource="http://purl.org/dc/dcmitype/StillImage" /></cc:Work></rdf:RDF></metadata><sodipodi:namedview
   pagecolor="#ffffff"
   bordercolor="#666666"
   borderopacity="1"
   objecttolerance="10"
   gridtolerance="10"
   guidetolerance="10"
   inkscape:pageopacity="0"
   inkscape:pageshadow="2"
   inkscape:window-width="1280"
   inkscape:window-height="694"
   id="namedview37"
   showgrid="false"
   inkscape:zoom="0.23838384"
   inkscape:cx="382.5"
   inkscape:cy="-343.98305"
   inkscape:window-x="0"
   inkscape:window-y="0"
   inkscape:window-maximized="0"
   inkscape:current-layer="svg2" />
 <defs
   id="defs4">
  <style
   type="text/css"
   id="style6">
   
    .str1 {stroke:#373435;stroke-width:0.00694488}
    .str0 {stroke:#FEFEFE;stroke-width:0.00694488}
    .str2 {stroke:#FEFEFE;stroke-width:0.11111}
    .fil2 {fill:none}
    .fil0 {fill:#373435}
    .fil1 {fill:#FEFEFE}
   
  </style>
 
  
  
  
  
  
  
  
 </defs>
 <g
   id="_237663968"
   transform="translate(-16.872882,7.7838979)">
   <rect
   style="fill:#373435"
   ry="0.84173203"
   rx="0.84173203"
   height="5.9403"
   width="5.9403"
   y="-3.9788401"
   x="2.7509401"
   class="fil0"
   id="_237666152" />
   <path
   style="fill:#fefefe"
   inkscape:connector-curvature="0"
   d="m 7.07872,-2.27046 c 0,0.518677 -0.901618,0.634256 -1.57025,1.10616 0,0.651843 0,1.30367 0,1.95552 0.165319,0.198571 0.467799,0.218831 0.762142,0.249661 l 0,0.078843 -1.78707,0 c 0,-0.026276 0,-0.052567 0,-0.078843 C 4.811349,1.011302 5.056971,0.921948 5.245672,0.79122 l 0,-1.97756 C 4.534416,-1.59699 3.675422,-1.751773 3.675422,-2.27045 l 3.4033,0 z"
   class="fil1"
   id="_235280520" />
   <path
   style="fill:#fefefe"
   inkscape:connector-curvature="0"
   d="m 6.69767,-1.04841 c 1.89695,-0.464169 1.74439,-2.56853 -1.56368,-2.15499 -0.386909,0.090039 -0.551886,0.42048 -0.827831,0.630728 0.362791,0.036264 -0.00811,0.057559 0.355488,0.030968 0.570705,-0.027969 0.900697,-0.386394 1.27389,-0.438319 0.581803,-0.027713 0.590618,-0.013366 1.1432,0.170827 1.0876,0.67976 -0.160768,1.40999 -0.851689,1.56028 C 5.715371,-1.153896 5.43743,-1.220113 4.957998,-1.01279 4.853805,-0.9677113 4.832915,-0.9346522 4.750805,-0.856944 4.68838,-0.761759 4.62597,-0.66657 4.563545,-0.571385 4.337801,-0.052948 4.603718,0.199497 4.970951,0.425713 5.55829,0.825626 7.095641,0.948493 7.368311,0.247122 7.587634,-0.046736 7.446342,-0.549287 6.90922,-0.907368 6.8387,-0.9543877 6.768189,-1.0013956 6.697669,-1.048411 z M 6.316599,-0.811886 C 6.313259,-0.813138 6.309899,-0.814394 6.30656,-0.815646 6.239832,-0.8406696 6.173091,-0.8657051 6.106363,-0.8907326 c 0.197102,-0.0525551 0.394205,-0.105122 0.591307,-0.157677 -0.197102,0.0525551 -0.394205,0.105122 -0.591307,0.157677 m 0,0 c -1.84972,0.0324606 -1.32717,1.26278 0.117335,1.26278 0.848732,-0.143957 0.859693,-0.700437 0.395126,-1.02625 L 6.3166,-0.8118836 m -1.75305,0.2405 c 0.062425,-0.095185 0.124835,-0.190374 0.18726,-0.285559 0.015382,-0.0145551 0.170224,-0.139819 0.107232,-0.112622 -0.640937,0.208299 -0.930898,0.393819 -1.05024,1.00742 0.229843,-0.441232 0.27435,-0.502228 0.755744,-0.609236 m 0.571469,-2.43218 c 0.040386,0 0.073122,0.032736 0.073122,0.073122 0,0.040386 -0.032736,0.073126 -0.073122,0.073126 -0.040386,0 -0.073126,-0.03274 -0.073126,-0.073126 0,-0.040386 0.03274,-0.073122 0.073126,-0.073122 z"
   class="fil1"
   id="_233871072" />
  </g><g
   id="_234313752"
   transform="translate(-9.2754238,15.008475)">
   <rect
   style="fill:#373435"
   ry="0.84173203"
   rx="0.84173203"
   height="5.9403"
   width="5.9403"
   y="-11.0414"
   x="2.7509401"
   class="fil0"
   id="_237662744" />
   <path
   style="fill:#fefefe;stroke:#fefefe;stroke-width:0.00694488"
   inkscape:connector-curvature="0"
   d="M 5.23004,-8.50922 C 5.154457,-8.608378 5.048568,-8.707515 5.182449,-8.806657 c 0.955764,-0.45211 1.91153,-0.904209 2.8673,-1.35631 0.336528,0.387626 0.500689,1.23991 0.309339,1.61806 -0.612535,0.00698 -1.22507,0.013969 -1.83761,0.020961 0.015992,0.032925 0.031988,0.065846 0.04798,0.098772 0.26539,0.030854 0.19985,0.014638 0.292717,0.278559 -0.077579,0.219791 -0.085055,0.243787 -0.089705,0.476839 0.094421,0.092854 0.18885,0.185705 0.283272,0.278559 -0.159323,0.326224 -0.359421,0.906933 -0.632638,1.12365 C 6.111258,-6.290303 5.843435,-6.29926 5.530789,-6.29589 l 0.129181,0.873425 -1.84145,0.00685 -0.066453,0 c -0.326512,0 -0.598012,-0.247378 -0.636433,-0.563957 l -0.00469,0 0,-0.077165 0,-0.441512 0,-0.531642 C 3.26092,-7.227899 3.396586,-7.367269 3.585649,-7.561186 3.814247,-7.78082 3.811259,-7.731855 3.887806,-8.038025 3.851605,-8.097832 3.815416,-8.157631 3.779215,-8.217431 3.422424,-8.558045 3.290648,-8.770462 3.514829,-9.227781 3.729046,-9.490383 3.957372,-9.51258 4.326876,-9.449679 c 0.127472,0.172327 0.169969,0.229768 0.254949,0.34465 0.00472,0.047213 0.00944,0.094425 0.014165,0.141634 0.086555,0.044067 0.173106,0.088138 0.259665,0.132201 0.043728,0.061327 -0.017362,0.081342 -0.075535,0.146358 0.015736,0.017311 0.031468,0.034618 0.047209,0.051929 -0.076642,0.059575 -0.109374,0.237406 0.047213,0.266756 -0.00315,0.026756 -0.00157,0.013378 -0.00472,0.040134 0.00315,0.059799 0.0063,0.119598 0.00944,0.179406 -0.062949,0.020457 -0.125898,0.040913 -0.18885,0.061374 -0.036197,0.020457 -0.072386,0.040913 -0.108587,0.06137 -0.159437,0.181413 -0.145528,0.119669 -0.089705,0.354094 0.578276,0.115661 0.593075,-3.622e-4 0.911197,0.47685 0.333283,0.193909 0.426303,0.285386 0.807335,0.354091 0.108587,-0.278555 0.217173,-0.557106 0.32576,-0.835657 C 6.528542,-7.743737 6.520672,-7.812977 6.51281,-7.882225 6.274345,-8.110749 6.105353,-8.132461 6.272027,-8.40628 6.251173,-8.444312 6.230314,-8.482355 6.209456,-8.520382 5.865905,-8.514072 5.523153,-8.507886 5.230047,-8.509209 z"
   class="fil1 str0"
   id="_232514784" />
  </g><rect
   style="fill:none;stroke:#373435;stroke-width:0.00694488"
   id="rect17"
   height="3.46894"
   width="1.3090301"
   y="-0.88958246"
   x="-0.76427323"
   class="fil2 str1" /><g
   id="_235385768"
   transform="translate(-9.2754238,15.008475)">
   <path
   style="fill:#373435"
   inkscape:connector-curvature="0"
   d="m 18.0531,-11.0414 0.604331,0 0.848268,0 c 0.462957,0 0.841732,0.378776 0.841732,0.841732 l 0,4.25683 c 0,0.462957 -0.378776,0.841732 -0.841732,0.841732 l -0.848268,0 -0.604331,0 c -0.462957,0 -0.841732,-0.378776 -0.841732,-0.841732 l 0,-4.25683 c 0,-0.462957 0.378776,-0.841732 0.841732,-0.841732 z"
   class="fil0"
   id="_237230008" />
   <g
   id="g21">
    <path
   style="fill:#fefefe;stroke:#373435;stroke-width:0.00694488"
   inkscape:connector-curvature="0"
   d="m 18.1562,-9.15869 c -0.0059,0.022228 -0.01179,0.044453 -0.01768,0.066685 0,0.20548 0,0.410957 0,0.616437 0.124587,0.124587 0.159224,0.16926 0.314264,0.253823 0.01995,-0.031465 0.03991,-0.062929 0.05986,-0.094394 -0.04315,-0.048772 -0.08629,-0.097551 -0.129441,-0.146323 -0.02251,-0.033764 -0.04502,-0.067535 -0.06753,-0.101299 0.0033,-0.031035 0.0066,-0.062075 0.0099,-0.09311 -0.02019,-0.079646 -0.04037,-0.159287 -0.06056,-0.238929 0.05065,-0.069409 0.101303,-0.138819 0.151953,-0.208228 0.240303,-0.073937 0.183811,-0.081803 0.416457,0.011256 0.03189,0.060028 0.06378,0.120059 0.09567,0.180087 0,0.035642 0,0.071291 0,0.106933 0.0094,0.067531 0.01876,0.135063 0.02814,0.202598 -0.02454,0.165685 -0.0057,0.135091 -0.123811,0.253248 0.01501,0.020638 0.03001,0.041272 0.04502,0.061909 0.01876,-0.024386 0.03752,-0.04878 0.05628,-0.073165 0.03564,-0.112555 0.07129,-0.225114 0.106929,-0.337669 0.02251,-0.00375 0.04502,-0.0075 0.06753,-0.011252 -0.0038,-0.080669 -0.0075,-0.161331 -0.01126,-0.241996 -0.03604,-0.183831 -0.05655,-0.296669 -0.06191,-0.483988 -0.02814,-0.031894 -0.05627,-0.06378 -0.08441,-0.095673 -0.01126,-0.065658 -0.02252,-0.131311 -0.03377,-0.196969 0.01324,0.0021 0.02649,0.0042 0.03973,0.00631 0.0097,0.023185 0.01932,0.04637 0.02898,0.069559 0.0024,-0.077287 0.0048,-0.154575 0.0072,-0.231858 0.01256,0.00435 0.02512,0.00869 0.03768,0.013039 0.0053,0.048787 0.01063,0.097575 0.01594,0.146362 0.01546,-0.047339 0.03092,-0.094677 0.04637,-0.14202 0.01015,0.010146 0.02028,0.020291 0.03043,0.030437 -0.0048,0.044925 -0.0097,0.089847 -0.01449,0.134768 0.01063,-0.037677 0.02126,-0.075354 0.03188,-0.113035 0.01401,0.00676 0.02802,0.013528 0.04202,0.020291 -0.0072,0.044925 -0.01449,0.089847 -0.02174,0.134772 0.01594,-0.032846 0.03188,-0.065697 0.04782,-0.098543 0.0082,0.012075 0.01643,0.024153 0.02464,0.036228 -0.01545,0.058445 -0.03091,0.116898 -0.04637,0.175343 0.0019,0.031398 0.0039,0.062795 0.0058,0.094193 0.04058,0.185972 0.08115,0.371945 0.121724,0.557917 -0.0097,0.099508 -0.01932,0.199012 -0.02898,0.29852 0.03092,0.035748 0.06183,0.071488 0.09274,0.107236 -0.05937,0.146685 -0.08705,0.23863 -0.123173,0.392713 0.0096,0.287634 0.07553,0.440469 0.159402,0.714421 -0.01207,0.036228 -0.02415,0.072457 -0.03623,0.108685 0.02464,0.136217 0.04928,0.272437 0.07391,0.408654 0.05072,0.16472 0.101437,0.329433 0.152157,0.494154 -0.03622,0.019803 -0.07246,0.03961 -0.108685,0.059413 0.0063,0.077772 0.01256,0.155539 0.01884,0.233311 0.01739,0.086949 0.03478,0.173898 0.05217,0.260846 0.0068,0.034779 0.01352,0.069555 0.02029,0.104335 0.08743,0.065209 0.174862,0.130425 0.262291,0.195634 0.0058,0.031878 0.01159,0.063764 0.01739,0.095642 -0.03043,0.031398 -0.06086,0.062795 -0.09129,0.094193 -0.0401,-0.022705 -0.08019,-0.045406 -0.12028,-0.06811 -0.09322,-0.076323 -0.186453,-0.152642 -0.279677,-0.228965 -9.69e-4,-0.060378 -0.0019,-0.120756 -0.0029,-0.181134 -0.01836,-0.055551 -0.03671,-0.111102 -0.05506,-0.166654 -0.01256,-0.03913 -0.02512,-0.078252 -0.03768,-0.117382 -0.0082,-0.043469 -0.01642,-0.086949 -0.02463,-0.130417 -0.03188,0.00193 -0.06376,0.00386 -0.09564,0.0058 -0.05845,-0.121244 -0.116898,-0.242488 -0.175346,-0.363732 -0.02995,0.084535 -0.05989,0.169063 -0.08984,0.253598 -0.02657,0.060862 -0.05314,0.121728 -0.07971,0.182587 -0.05893,0.016425 -0.117862,0.03285 -0.176795,0.049276 -0.07825,0.122209 -0.156508,0.244417 -0.234756,0.366626 -0.0048,0.06811 -0.0097,0.136217 -0.01449,0.204331 4.81e-4,0.050232 9.69e-4,0.100472 0.0014,0.150709 -0.01401,0.032847 -0.02801,0.065693 -0.04202,0.098539 -0.04106,0.019803 -0.08212,0.039614 -0.123177,0.059417 -0.01111,-0.028504 -0.02222,-0.057 -0.03333,-0.0855 -9.69e-4,-0.156024 -0.0019,-0.312051 -0.0029,-0.468071 0.03816,-0.049756 0.07632,-0.099504 0.114484,-0.14926 0.01207,-0.045405 0.02415,-0.090811 0.03623,-0.136217 0.02222,-0.042508 0.04444,-0.085016 0.06666,-0.127524 -0.03043,-0.019323 -0.06087,-0.038642 -0.0913,-0.057965 0.0077,-0.13187 0.01546,-0.263744 0.02319,-0.39561 -4.81e-4,-0.067146 -9.65e-4,-0.134291 -0.0014,-0.201433 -0.0063,-0.077772 -0.01256,-0.155535 -0.01884,-0.233307 -0.02318,-0.02222 -0.04637,-0.044445 -0.06955,-0.066661 -0.04376,-0.238453 -0.03809,-0.353531 -0.03044,-0.595591 -0.06665,-0.145803 -0.107382,-0.203134 -0.202874,-0.331854 -0.03526,-0.059894 -0.07053,-0.119795 -0.105787,-0.179689 0.0029,-0.01739 0.0058,-0.034779 0.0087,-0.052169 0.0092,-0.023665 0.01835,-0.047339 0.02754,-0.071008 -0.01304,-0.056032 -0.02609,-0.112067 -0.03913,-0.168098 0.0097,-0.063276 0.01932,-0.126559 0.02898,-0.189835 0.02222,-0.124626 0.04444,-0.249252 0.06666,-0.373878 -0.01208,-0.059413 -0.02415,-0.118831 -0.03623,-0.178244 0,-0.054098 0,-0.108201 0,-0.162299 0.0087,-0.03961 0.01739,-0.07922 0.02609,-0.118831 0.0092,-0.016421 0.01836,-0.03285 0.02754,-0.049272 0.01111,0.00435 0.02222,0.00869 0.03333,0.013043 -0.0039,0.033811 -0.0077,0.06763 -0.01159,0.101441 0.01207,-0.028504 0.02415,-0.057 0.03623,-0.0855 0.01063,0.0058 0.02126,0.011591 0.03188,0.01739 -0.0068,0.034299 -0.01353,0.068591 -0.02029,0.10289 0.01159,-0.023669 0.02319,-0.047339 0.03478,-0.071008 0.01015,0.012075 0.02029,0.024154 0.03044,0.036228 -0.01015,0.028496 -0.02029,0.057 -0.03044,0.085496 0.01498,-0.019803 0.02995,-0.03961 0.04492,-0.059413 0.0068,0.00821 0.01352,0.016421 0.02028,0.024634 -0.0097,0.028016 -0.01932,0.056035 -0.02898,0.084051 -0.0014,0.065693 -0.0029,0.13139 -0.0044,0.197079 z"
   class="fil1 str1"
   id="_232511704" />
    <circle
   style="fill:#fefefe;stroke:#373435;stroke-width:0.00694488"
   sodipodi:ry="0.46534601"
   sodipodi:rx="0.46534601"
   sodipodi:cy="-10.482"
   sodipodi:cx="18.754999"
   d="m 19.220345,-10.482 c 0,0.257003 -0.208342,0.465346 -0.465346,0.465346 -0.257003,0 -0.465346,-0.208343 -0.465346,-0.465346 0,-0.257004 0.208343,-0.465346 0.465346,-0.465346 0.257004,0 0.465346,0.208342 0.465346,0.465346 z"
   r="0.46534601"
   cy="-10.482"
   cx="18.754999"
   class="fil1 str1"
   id="_236440008" />
   </g>
  </g><g
   id="_235281056"
   transform="translate(3.0296609,7.8771189)">
   <rect
   style="fill:#373435"
   ry="0.84173203"
   rx="0.84173203"
   height="5.9403"
   width="5.9403"
   y="-3.9788401"
   x="9.9635696"
   class="fil0"
   id="_232513624" />
   <path
   style="fill:#fefefe;stroke:#373435;stroke-width:0.00694488"
   inkscape:connector-curvature="0"
   d="m 12.197,-2.93727 c 0.03069,-0.030697 0.06139,-0.061398 0.09208,-0.092094 0.155728,0.311476 0.09706,0.333047 0.05526,0.681453 0.03683,0.098228 0.07367,0.196457 0.110508,0.294685 0.05218,0.018417 0.104362,0.036839 0.156543,0.055256 0.473705,0.54137 0.670354,0.771386 1.37211,0.810374 0.0706,-0.021488 0.08882,-0.096299 0.159417,-0.117787 -0.03684,-0.049114 -0.04402,-0.031984 -0.08086,-0.081098 -0.0092,-0.052185 -0.04172,-0.172539 -0.05093,-0.224724 -0.0307,-0.036839 -0.01535,-0.018417 -0.04604,-0.055256 0.02149,-0.067531 0.04298,-0.135063 0.06447,-0.202594 -0.04912,-0.082878 -0.09823,-0.165756 -0.14735,-0.248634 0.720839,-0.961126 1.60064,-0.01861 1.06822,0.764331 0.02149,0.067531 0.04298,0.135063 0.06447,0.202594 0.01228,0.070602 0.02455,0.141205 0.03683,0.211807 0.136429,0.375185 0.105441,0.333012 0.03684,0.727492 0.104366,0 0.208728,0 0.313094,0 0.03683,0.113579 0.07367,0.227154 0.110508,0.340732 -0.03159,0.199268 -0.06318,0.398531 -0.09477,0.597799 0,0.0438701 0,0.0877441 0,0.131614 0,0.0627126 -0.0087,0.12348 -0.02494,0.181189 0,3.15e-5 0,6.3e-5 0,9.45e-5 -1.2e-5,3.9e-6 -2e-5,1.18e-5 -3.2e-5,1.57e-5 -0.07967,0.28311 -0.340858,0.492209 -0.648535,0.492209 -1.23839,0 -2.47677,0 -3.71515,0 -0.310374,0 -0.573425,-0.212791 -0.650571,-0.499677 -0.0076,0 -0.01529,0 -0.02294,0 0,-0.0579449 0,-0.11588596 0,-0.17383096 0,-0.144303 0,-0.288602 0,-0.432906 0,-0.0558622 0,-0.11172 0,-0.167583 0.03377,-0.0306969 0.06753,-0.0613976 0.101299,-0.0920945 0.06753,-0.174969 0.135059,-0.349933 0.202591,-0.524902 -0.0031,-0.0552559 -0.0061,-0.110508 -0.0092,-0.165764 -0.06446,-0.027622 -0.128925,-0.055248 -0.19339,-0.0828701 0.02456,-0.0306969 0.04912,-0.0613976 0.07368,-0.0920945 0.316169,0.0951575 0.632335,0.190319 0.948504,0.285476 0.04604,-0.0491142 0.09209,-0.0982283 0.138134,-0.147343 0.101299,-0.027626 0.202594,-0.0552559 0.303894,-0.0828819 0.05832,-0.0736693 0.116642,-0.147339 0.174965,-0.221008 0.01228,0.0337638 0.02456,0.0675315 0.03683,0.101295 -0.04911,0.0675315 -0.09822,0.135063 -0.147339,0.202594 0.32565,0.399654 0.747976,0.318559 1.28003,0.386776 0.190315,-0.135063 0.38063,-0.270126 0.570945,-0.405189 -0.01842,-0.0337677 -0.03684,-0.0675315 -0.05526,-0.101299 -0.483193,-0.118673 -0.502244,-0.113283 -0.911673,-0.39598404 -0.15348,-0.15348 -0.306961,-0.306961 -0.460441,-0.460441 -0.01535,-0.082878 -0.0307,-0.16576 -0.04604,-0.248638 -0.08595,-0.128925 -0.171898,-0.257846 -0.257846,-0.386772 -0.0031,-0.076736 -0.0061,-0.153476 -0.0092,-0.230213 0.02455,-0.073673 0.04911,-0.147343 0.07367,-0.221016 0.0092,-0.104366 0.01842,-0.208728 0.02763,-0.313094 z m 1.40894,3.36121 c 0.03683,-0.125854 0.07367,-0.251705 0.110508,-0.377559 -0.107437,0.0736693 -0.21487,0.147339 -0.322307,0.221008 0,0.28261 0.212055,0.156807 0.211799,0.156551 z M 11.1623,-0.390836 c -0.115398,0 -0.230799,0 -0.346197,0 -0.09313,0.236866 -0.186256,0.473732 -0.279382,0.710598 0.753118,0 1.50623,0 2.25935,0 C 12.786047,0.2823526 12.776024,0.2449431 12.766,0.207534 12.231433,0.008077 11.69687,-0.191379 11.1623,-0.390836 z"
   class="fil1 str1"
   id="_236440296" />
  </g><g
   id="_235948192"
   transform="translate(-9.2754238,15.008475)">
   <rect
   style="fill:#373435"
   ry="0.84173203"
   rx="0.84173203"
   height="5.9403"
   width="5.9403"
   y="-11.0414"
   x="9.9635696"
   class="fil0"
   id="_237228400" />
   <path
   style="fill:#fefefe"
   inkscape:connector-curvature="0"
   d="m 14.1367,-8.71381 c 0.03476,-0.108594 -0.780921,-0.389185 -1.17138,-0.58378 -0.403622,0.190071 -1.30892,0.461362 -1.21087,0.570209 0.09213,0.276051 0.198594,0.504327 0.276398,0.828154 0.0044,0.307728 0.0088,0.615457 0.01316,0.923185 l 1.84263,0 c 0.0044,-0.362035 0.0088,-0.724067 0.01317,-1.0861 0.05508,-0.250665 0.157937,-0.434445 0.236906,-0.651665 z"
   class="fil1"
   id="_235947976" />
   <polyline
   style="fill:none;stroke:#fefefe;stroke-width:0.11111"
   points="12.1299,-8.85765 12.1299,-9.27817 12.4651,-9.27817 12.4651,-9.59043 13.4654,-9.59043 13.4654,-9.26459 13.7945,-9.26459 13.7945,-8.8233 "
   class="fil2 str2"
   id="_236073872" />
   <polygon
   style="fill:#fefefe"
   points="12.74,-10.0552 13.1906,-10.0552 13.1906,-9.59042 12.74,-9.59042 "
   class="fil1"
   id="_232514712" />
   <g
   id="g33">
    <path
   style="fill:#fefefe"
   inkscape:connector-curvature="0"
   d="m 10.8201,-7.08393 c 0.446614,0.279449 0.645382,-0.196193 0.956008,-0.166547 0.0977,0.00117 0.218756,0.049638 0.340008,0.101937 l 0,-3.9e-6 2.4e-5,7.8e-6 c 0.05715,0.024657 0.11435,0.05015 0.169173,0.071961 0.411571,0.123094 0.584933,-0.234878 0.882102,-0.206516 0.14765,0.00178 0.34861,0.111535 0.523051,0.17935 l 0,0.00589 c 0.456335,0.179713 0.631811,-0.214961 0.943299,-0.185236 0.126681,0.00153 0.292606,0.082539 0.447362,0.14835 l 0,0.310232 c -0.193866,-0.080626 -0.355591,-0.187693 -0.508209,-0.151535 -0.360697,0.126606 -0.500311,0.382 -0.974189,0.144772 -0.186776,-0.079685 -0.343768,-0.179933 -0.492161,-0.144772 -0.314508,0.110394 -0.460913,0.318728 -0.807406,0.213008 l 0,3.189e-4 c -0.0026,-9.252e-4 -0.0052,-0.00187 -0.0079,-0.0028 -0.0539,-0.017031 -0.112575,-0.041539 -0.177476,-0.075173 -0.146787,-0.068055 -0.275626,-0.131866 -0.398555,-0.10274 -0.33837,0.118768 -0.499323,0.351661 -0.895165,0.159909 l 0,-0.300406 z"
   class="fil1"
   id="_237228496" />
    <path
   style="fill:#fefefe"
   inkscape:connector-curvature="0"
   d="m 10.8201,-6.51902 c 0.446614,0.279453 0.645382,-0.196193 0.956008,-0.166547 0.0977,0.00118 0.218756,0.049638 0.340008,0.101937 l 0,0 2.4e-5,7.9e-6 c 0.05715,0.02465 0.11435,0.050146 0.169173,0.071957 0.411571,0.123094 0.584933,-0.234878 0.882102,-0.206512 0.14765,0.00177 0.34861,0.111535 0.523051,0.179346 l 0,0.00589 c 0.456335,0.179713 0.631811,-0.214969 0.943299,-0.185236 0.126681,0.00152 0.292606,0.082535 0.447362,0.148346 l 0,0.310236 c -0.193866,-0.080626 -0.355591,-0.187701 -0.508209,-0.151539 -0.360697,0.126606 -0.500311,0.381996 -0.974189,0.144776 -0.186776,-0.079689 -0.343768,-0.179933 -0.492161,-0.144776 -0.314508,0.11039 -0.460913,0.318728 -0.807406,0.213004 l 0,3.229e-4 c -0.0026,-9.252e-4 -0.0052,-0.00187 -0.0079,-0.0028 -0.0539,-0.017035 -0.112575,-0.041539 -0.177476,-0.075173 -0.146787,-0.068063 -0.275626,-0.131866 -0.398555,-0.10274 -0.33837,0.118764 -0.499323,0.351661 -0.895165,0.159909 l 0,-0.300409 z"
   class="fil1"
   id="_235568496" />
   </g>
  </g>
<text
   xml:space="preserve"
   style="font-size:0.44444439px;font-style:normal;font-weight:normal;line-height:125%;letter-spacing:0px;word-spacing:0px;fill:#000000;fill-opacity:1;stroke:none;font-family:Sans"
   x="-13.703388"
   y="10.76695"
   id="text3040"
   sodipodi:linespacing="125%"><tspan
     sodipodi:role="line"
     id="tspan3042"
     x="-13.703388"
     y="10.76695">Pharmacy</tspan></text>
<text
   xml:space="preserve"
   style="font-size:0.44444439px;font-style:normal;font-weight:normal;line-height:125%;letter-spacing:0px;word-spacing:0px;fill:#000000;fill-opacity:1;stroke:none;font-family:Sans"
   x="-5.6398301"
   y="10.81356"
   id="text3044"
   sodipodi:linespacing="125%"><tspan
     sodipodi:role="line"
     id="tspan3046"
     x="-5.6398301"
     y="10.81356">Complaint Center</tspan></text>
<text
   xml:space="preserve"
   style="font-size:0.44444439px;font-style:normal;font-weight:normal;line-height:125%;letter-spacing:0px;word-spacing:0px;fill:#000000;fill-opacity:1;stroke:none;font-family:Sans"
   x="1.2118642"
   y="10.72034"
   id="text3048"
   sodipodi:linespacing="125%"><tspan
     sodipodi:role="line"
     id="tspan3050"
     x="1.2118642"
     y="10.72034">Water Transportation</tspan></text>
<text
   xml:space="preserve"
   style="font-size:0.44444439px;font-style:normal;font-weight:normal;line-height:125%;letter-spacing:0px;word-spacing:0px;fill:#000000;fill-opacity:1;stroke:none;font-family:Sans"
   x="8.0169487"
   y="10.673731"
   id="text3052"
   sodipodi:linespacing="125%"><tspan
     sodipodi:role="line"
     id="tspan3054"
     x="8.0169487"
     y="10.673731">Kindergaten</tspan></text>
<text
   xml:space="preserve"
   style="font-size:0.44444439px;font-style:normal;font-weight:normal;line-height:125%;letter-spacing:0px;word-spacing:0px;fill:#000000;fill-opacity:1;stroke:none;font-family:Sans"
   x="15.334744"
   y="10.44068"
   id="text3056"
   sodipodi:linespacing="125%"><tspan
     sodipodi:role="line"
     id="tspan3058"
     x="15.334744"
     y="10.44068">School</tspan></text>
</svg>