<?xml version="1.0" encoding="UTF-8"?>
<!DOCTYPE svg PUBLIC "-//W3C//DTD SVG 1.1//EN" "http://www.w3.org/Graphics/SVG/1.1/DTD/svg11.dtd">
<!-- Creator: CorelDRAW X5 -->
<svg xmlns="http://www.w3.org/2000/svg" xml:space="preserve" width="8.5in" height="11in" style="shape-rendering:geometricPrecision; text-rendering:geometricPrecision; image-rendering:optimizeQuality; fill-rule:evenodd; clip-rule:evenodd"
viewBox="0 0 8.5 11"
 xmlns:xlink="http://www.w3.org/1999/xlink">
 <defs>
  <style type="text/css">
   <![CDATA[
    .fil0 {fill:#373435}
    .fil1 {fill:#FEFEFE}
   ]]>
  </style>
 </defs>
 <g id="Layer_x0020_1">
  <metadata id="CorelCorpID_0Corel-Layer"/>
  <rect class="fil0" x="1.26578" y="1.34239" width="5.9403" height="5.9403" rx="0.841732" ry="0.841732"/>
  <path class="fil1" d="M4.13583 1.64628c0.471717,0 0.854126,0.382409 0.854126,0.85413 0,0.47172 -0.382409,0.854126 -0.854126,0.854126 -0.47172,0 -0.85413,-0.382406 -0.85413,-0.854126 0,-0.47172 0.382409,-0.85413 0.85413,-0.85413zm-0.360374 1.97875l0.984472 -0.0420039c0.716244,-0.030563 0.942224,0.559299 1.17852,1.09854 0.301988,0.689193 0.288051,1.33648 -0.925843,1.86072 -0.219728,0.0111969 -0.273445,-0.122921 -0.305736,-0.193087 -0.181839,-0.324559 0.0455551,-0.31815 0.280728,-0.713693 -0.157398,0.0301417 -0.313827,0.0692126 -0.511413,-0.00111024 -0.503602,-0.111693 -0.634886,-0.88661 -0.970976,-0.677067 -0.0724016,0.0451457 -0.180118,0.211244 -0.0943622,0.357055 0.097122,0.174138 0.194236,0.348291 0.291358,0.522429 0.111811,0.123134 -0.618638,0.0139094 -0.557634,0.129768 -0.0602638,0.111787 0.491551,0.346339 1.18053,0.211819 0.322882,-0.0759094 0.498752,0.323811 0.270831,0.541673 -1.15257,0.625681 -1.8764,-0.0172913 -2.12659,-0.518362 -0.324209,-0.649319 0.148059,-2.52728 1.30611,-2.57668zm0.920083 0.882154c0.278213,0 0.50374,0.225528 0.50374,0.503736 0,0.278213 -0.225528,0.50374 -0.50374,0.50374 -0.278209,0 -0.503736,-0.225528 -0.503736,-0.50374 0,-0.278209 0.225528,-0.503736 0.503736,-0.503736z"/>
 </g>
</svg>
