<?xml version="1.0" encoding="UTF-8" standalone="no"?>
<!-- Created with Inkscape (http://www.inkscape.org/) -->

<svg
   xmlns:dc="http://purl.org/dc/elements/1.1/"
   xmlns:cc="http://creativecommons.org/ns#"
   xmlns:rdf="http://www.w3.org/1999/02/22-rdf-syntax-ns#"
   xmlns:svg="http://www.w3.org/2000/svg"
   xmlns="http://www.w3.org/2000/svg"
   xmlns:sodipodi="http://sodipodi.sourceforge.net/DTD/sodipodi-0.dtd"
   xmlns:inkscape="http://www.inkscape.org/namespaces/inkscape"
   width="124.75001"
   height="286.0625"
   id="svg5199"
   version="1.1"
   inkscape:version="0.47pre4 r22446"
   sodipodi:docname="Documento nuevo 4">
  <defs
     id="defs5201">
    <inkscape:perspective
       sodipodi:type="inkscape:persp3d"
       inkscape:vp_x="0 : 526.18109 : 1"
       inkscape:vp_y="0 : 1000 : 0"
       inkscape:vp_z="744.09448 : 526.18109 : 1"
       inkscape:persp3d-origin="372.04724 : 350.78739 : 1"
       id="perspective5207" />
    <inkscape:perspective
       id="perspective5148"
       inkscape:persp3d-origin="0.5 : 0.33333333 : 1"
       inkscape:vp_z="1 : 0.5 : 1"
       inkscape:vp_y="0 : 1000 : 0"
       inkscape:vp_x="0 : 0.5 : 1"
       sodipodi:type="inkscape:persp3d" />
  </defs>
  <sodipodi:namedview
     id="base"
     pagecolor="#ffffff"
     bordercolor="#666666"
     borderopacity="1.0"
     inkscape:pageopacity="0.0"
     inkscape:pageshadow="2"
     inkscape:zoom="0.35"
     inkscape:cx="23.80357"
     inkscape:cy="103.03125"
     inkscape:document-units="px"
     inkscape:current-layer="layer1"
     showgrid="false"
     inkscape:window-width="607"
     inkscape:window-height="470"
     inkscape:window-x="0"
     inkscape:window-y="48"
     inkscape:window-maximized="0" />
  <metadata
     id="metadata5204">
    <rdf:RDF>
      <cc:Work
         rdf:about="">
        <dc:format>image/svg+xml</dc:format>
        <dc:type
           rdf:resource="http://purl.org/dc/dcmitype/StillImage" />
        <dc:title></dc:title>
      </cc:Work>
    </rdf:RDF>
  </metadata>
  <g
     inkscape:label="Capa 1"
     inkscape:groupmode="layer"
     id="layer1"
     transform="translate(-326.19643,-349.33093)">
    <path
       id="path39242"
       d="m 449.86347,581.60265 -61.37188,35.43307 0,17.71654 61.37188,-35.43307 0,-17.71654 z"
       style="fill:#3465a4;stroke:none" />
    <path
       sodipodi:nodetypes="ccccc"
       id="path39240"
       d="m 442.94344,585.5294 0,8.85827 -54.18595,31.9498 -0.125,-9 54.31095,-31.80807 z"
       style="fill:#102645;fill-opacity:1;stroke:none" />
    <path
       style="fill:#729fcf;stroke:none"
       d="m 327.36659,580.85265 61.37188,35.43307 0,17.71654 -61.37188,-35.43307 0,-17.71654 z"
       id="path39129" />
    <g
       transform="matrix(-2,0,0,2,264.89356,311.88067)"
       id="g39218">
      <path
         style="fill:#d3d7cf;stroke:none"
         d="m -91.931971,37.452983 -0.124999,97.924207 30.68594,17.71654 0.124999,-97.924211 -30.68594,-17.716536 z"
         id="path39220"
         sodipodi:nodetypes="ccccc" />
      <path
         sodipodi:nodetypes="ccccc"
         id="path39222"
         d="m -91.931969,37.732836 3.06859,1.771654 0,97.71653 -3.06859,-1.77165 0,-97.716534 z"
         style="fill:#35909d;fill-opacity:1;stroke:none" />
      <path
         style="fill:#35909d;fill-opacity:1;stroke:none"
         d="m -87.718796,40.102565 3.06859,1.771654 0,97.716521 -3.06859,-1.77165 0,-97.716525 z"
         id="path39224"
         sodipodi:nodetypes="ccccc" />
      <path
         sodipodi:nodetypes="ccccc"
         id="path39226"
         d="m -83.505621,42.597793 3.06859,1.771654 0,97.716523 -3.06859,-1.77165 0,-97.716527 z"
         style="fill:#35909d;fill-opacity:1;stroke:none" />
      <path
         sodipodi:nodetypes="ccccc"
         id="path39228"
         d="m -79.292435,45.112972 3.06859,1.771654 0,97.716524 -3.06859,-1.77165 0,-97.716528 z"
         style="fill:#35909d;fill-opacity:1;stroke:none" />
      <path
         style="fill:#35909d;fill-opacity:1;stroke:none"
         d="m -75.079259,47.587846 3.06859,1.771654 0,97.71652 -3.06859,-1.77165 0,-97.716524 z"
         id="path39230"
         sodipodi:nodetypes="ccccc" />
      <path
         sodipodi:nodetypes="ccccc"
         id="path39232"
         d="m -70.866075,49.895246 3.06859,1.771654 0,97.71652 -3.06859,-1.77165 0,-97.716524 z"
         style="fill:#35909d;fill-opacity:1;stroke:none" />
      <path
         style="fill:#35909d;fill-opacity:1;stroke:none"
         d="m -66.6529,52.327721 3.06859,1.771654 0,97.716515 -3.06859,-1.77165 0,-97.716519 z"
         id="path39234"
         sodipodi:nodetypes="ccccc" />
    </g>
    <path
       style="fill:#eeeeec;stroke:none"
       d="m 327.38561,385.07171 61.37188,-35.43307 61.37189,35.43307 -61.37189,35.43307 -61.37188,-35.43307 z"
       id="path4724" />
    <g
       id="g5051"
       transform="matrix(2,0,0,2,511.24956,310.75567)">
      <path
         sodipodi:nodetypes="ccccc"
         id="path4720"
         d="m -91.931971,37.452983 -0.124999,97.924207 30.68594,17.71654 0.124999,-97.924211 -30.68594,-17.716536 z"
         style="fill:#d3d7cf;stroke:none" />
      <path
         style="fill:#72c3cf;fill-opacity:1;stroke:none"
         d="m -91.931969,37.732836 3.06859,1.771654 0,97.71653 -3.06859,-1.77165 0,-97.716534 z"
         id="path5022"
         sodipodi:nodetypes="ccccc" />
      <path
         sodipodi:nodetypes="ccccc"
         id="path5024"
         d="m -87.718796,40.102565 3.06859,1.771654 0,97.716521 -3.06859,-1.77165 0,-97.716525 z"
         style="fill:#72c3cf;fill-opacity:1;stroke:none" />
      <path
         style="fill:#72c3cf;fill-opacity:1;stroke:none"
         d="m -83.505621,42.597793 3.06859,1.771654 0,97.716523 -3.06859,-1.77165 0,-97.716527 z"
         id="path5026"
         sodipodi:nodetypes="ccccc" />
      <path
         style="fill:#72c3cf;fill-opacity:1;stroke:none"
         d="m -79.292435,45.112972 3.06859,1.771654 0,97.716524 -3.06859,-1.77165 0,-97.716528 z"
         id="path5030"
         sodipodi:nodetypes="ccccc" />
      <path
         sodipodi:nodetypes="ccccc"
         id="path5032"
         d="m -75.079259,47.587846 3.06859,1.771654 0,97.71652 -3.06859,-1.77165 0,-97.716524 z"
         style="fill:#72c3cf;fill-opacity:1;stroke:none" />
      <path
         style="fill:#72c3cf;fill-opacity:1;stroke:none"
         d="m -70.866075,49.895246 3.06859,1.771654 0,97.71652 -3.06859,-1.77165 0,-97.716524 z"
         id="path5034"
         sodipodi:nodetypes="ccccc" />
      <path
         sodipodi:nodetypes="ccccc"
         id="path5036"
         d="m -66.6529,52.327721 3.06859,1.771654 0,97.716515 -3.06859,-1.77165 0,-97.716519 z"
         style="fill:#72c3cf;fill-opacity:1;stroke:none" />
    </g>
    <path
       style="fill:none;stroke:#ffffff;stroke-width:1px;stroke-linecap:butt;stroke-linejoin:miter;stroke-opacity:1"
       d="m 327.3278,384.97328 61.42969,35.5315 61.37189,-35.43307"
       id="path4726" />
    <path
       id="path5043"
       d="m 327.3278,424.97328 61.42969,35.5315 61.37189,-35.43307"
       style="fill:none;stroke:#ffffff;stroke-width:0.25;stroke-linecap:butt;stroke-linejoin:miter;stroke-miterlimit:4;stroke-opacity:1;stroke-dasharray:none" />
    <path
       style="fill:none;stroke:#ffffff;stroke-width:0.25;stroke-linecap:butt;stroke-linejoin:miter;stroke-miterlimit:4;stroke-opacity:1;stroke-dasharray:none"
       d="m 327.3278,464.97328 61.42969,35.5315 61.37189,-35.43307"
       id="path5045" />
    <path
       id="path5047"
       d="m 327.3278,504.97328 61.42969,35.53151 61.37189,-35.43308"
       style="fill:none;stroke:#ffffff;stroke-width:0.25;stroke-linecap:butt;stroke-linejoin:miter;stroke-miterlimit:4;stroke-opacity:1;stroke-dasharray:none" />
    <path
       style="fill:none;stroke:#ffffff;stroke-width:0.25;stroke-linecap:butt;stroke-linejoin:miter;stroke-miterlimit:4;stroke-opacity:1;stroke-dasharray:none"
       d="m 327.3278,544.97329 61.42969,35.5315 61.37189,-35.43308"
       id="path5049" />
    <path
       style="fill:none;stroke:#2e3436;stroke-width:2;stroke-miterlimit:4;stroke-dasharray:none"
       d="m 388.57143,350.33103 -61.25,35.375 -0.125,213.2499 61.375,35.4375 61.37501,-35.4375 0,-213.1875 -61.37501,-35.4375 0,10e-5 z"
       id="path4728"
       sodipodi:nodetypes="cccccccc" />
    <path
       style="fill:#183867;fill-opacity:1;stroke:none"
       d="m 335.38562,586.51267 0,8.85827 53.37187,30.5748 0,-8.85827 -53.37187,-30.5748 z"
       id="path39236"
       sodipodi:nodetypes="ccccc" />
    <g
       transform="matrix(-0.2,0,0,0.2,398.61376,582.50735)"
       id="g39133">
      <path
         id="path39135"
         d="m 184.11564,131.10235 0,53.1496 30.68594,17.71653 0,-53.1496 -30.68594,-17.71653 z"
         style="fill:#3465a4;fill-opacity:1;stroke:none"
         sodipodi:nodetypes="ccccc" />
      <path
         style="fill:none;stroke:#ffffff;stroke-width:1px;stroke-linecap:butt;stroke-linejoin:miter;stroke-opacity:1"
         d="m 214.80158,148.81888 0,53.1496"
         id="path39137" />
      <path
         sodipodi:nodetypes="ccccc"
         style="fill:#729fcf;fill-opacity:1;stroke:none"
         d="m 245.48752,131.10235 0,53.1496 -30.68594,17.71653 0,-53.1496 30.68594,-17.71653 z"
         id="path39139" />
      <path
         id="path39141"
         d="m 276.17346,113.38581 0,53.1496 -30.68594,17.71653 0,-53.1496 30.68594,-17.71653 z"
         style="fill:#729fcf;fill-opacity:1;stroke:none"
         sodipodi:nodetypes="ccccc" />
      <path
         style="fill:#888a85;fill-opacity:1;stroke:none"
         d="m 276.17346,77.952734 0,17.716535 30.68594,17.716531 0,-17.716531 -30.68594,-17.716535 z"
         id="path39143"
         transform="translate(-92.057816,35.433074)" />
      <path
         id="path39145"
         d="m 214.80158,131.10234 0,17.71654 61.37188,-35.43308 0,-17.716528 -61.37188,35.433068 z"
         style="fill:#d3d7cf;fill-opacity:1;stroke:none"
         sodipodi:nodetypes="ccccc" />
      <path
         style="fill:#eeeeec;stroke:none"
         d="M 276.17346,77.952734 306.8594,95.669269 368.23127,60.236198 337.54533,42.519663 276.17346,77.952734 z"
         id="path39147"
         transform="translate(-92.057816,35.433074)" />
    </g>
    <path
       style="fill:none;stroke:#000000;stroke-width:1px;stroke-linecap:butt;stroke-linejoin:miter;stroke-opacity:1"
       d="m 343.17223,607.37328 0.33839,8.61872 12.625,7 6,-3.875"
       id="path39244"
       sodipodi:nodetypes="cccc" />
    <g
       id="g39246"
       transform="matrix(0.2,0,0,0.2,378.69409,582.00735)">
      <path
         sodipodi:nodetypes="ccccc"
         style="fill:#729fcf;fill-opacity:1;stroke:none"
         d="m 184.11564,131.10235 0,53.1496 30.68594,17.71653 0,-53.1496 -30.68594,-17.71653 z"
         id="path39248" />
      <path
         id="path39250"
         d="m 214.80158,148.81888 0,53.1496"
         style="fill:none;stroke:#ffffff;stroke-width:1px;stroke-linecap:butt;stroke-linejoin:miter;stroke-opacity:1" />
      <path
         id="path39252"
         d="m 245.48752,131.10235 0,53.1496 -30.68594,17.71653 0,-53.1496 30.68594,-17.71653 z"
         style="fill:#3465a4;fill-opacity:1;stroke:none"
         sodipodi:nodetypes="ccccc" />
      <path
         sodipodi:nodetypes="ccccc"
         style="fill:#3465a4;fill-opacity:1;stroke:none"
         d="m 276.17346,113.38581 0,53.1496 -30.68594,17.71653 0,-53.1496 30.68594,-17.71653 z"
         id="path39254" />
      <path
         transform="translate(-92.057816,35.433074)"
         id="path39256"
         d="m 276.17346,77.952734 0,17.716535 30.68594,17.716531 0,-17.716531 -30.68594,-17.716535 z"
         style="fill:#d3d7cf;fill-opacity:1;stroke:none" />
      <path
         sodipodi:nodetypes="ccccc"
         style="fill:#888a85;fill-opacity:1;stroke:none"
         d="m 214.80158,131.10234 0,17.71654 61.37188,-35.43308 0,-17.716528 -61.37188,35.433068 z"
         id="path39258" />
      <path
         transform="translate(-92.057816,35.433074)"
         id="path39260"
         d="M 276.17346,77.952734 306.8594,95.669269 368.23127,60.236198 337.54533,42.519663 276.17346,77.952734 z"
         style="fill:#eeeeec;stroke:none" />
    </g>
    <path
       sodipodi:nodetypes="cccc"
       id="path39262"
       d="m 434.13562,606.87328 -0.33839,8.61872 -12.625,7 -6,-3.875"
       style="fill:none;stroke:#000000;stroke-width:1px;stroke-linecap:butt;stroke-linejoin:miter;stroke-opacity:1" />
  </g>
</svg>
