<?xml version="1.0" encoding="UTF-8" standalone="no"?>
<!-- Created with Inkscape (http://www.inkscape.org/) -->
<svg
   xmlns:dc="http://purl.org/dc/elements/1.1/"
   xmlns:cc="http://creativecommons.org/ns#"
   xmlns:rdf="http://www.w3.org/1999/02/22-rdf-syntax-ns#"
   xmlns:svg="http://www.w3.org/2000/svg"
   xmlns="http://www.w3.org/2000/svg"
   xmlns:sodipodi="http://sodipodi.sourceforge.net/DTD/sodipodi-0.dtd"
   xmlns:inkscape="http://www.inkscape.org/namespaces/inkscape"
   width="24"
   height="38"
   id="svg7594"
   sodipodi:version="0.32"
   inkscape:version="0.46"
   version="1.0"
   sodipodi:docname="hw_building_1.svg"
   inkscape:output_extension="org.inkscape.output.svg.inkscape">
  <defs
     id="defs7596" />
  <sodipodi:namedview
     id="base"
     pagecolor="#ffffff"
     bordercolor="#666666"
     borderopacity="1.0"
     inkscape:pageopacity="0.0"
     inkscape:pageshadow="2"
     inkscape:zoom="17.157895"
     inkscape:cx="12"
     inkscape:cy="19"
     inkscape:document-units="px"
     inkscape:current-layer="layer1"
     showgrid="false"
     inkscape:window-width="1360"
     inkscape:window-height="848"
     inkscape:window-x="163"
     inkscape:window-y="62"
     showguides="true"
     inkscape:guide-bbox="true" />
  <metadata
     id="metadata7599">
    <rdf:RDF>
      <cc:Work
         rdf:about="">
        <dc:format>image/svg+xml</dc:format>
        <dc:type
           rdf:resource="http://purl.org/dc/dcmitype/StillImage" />
        <dc:title>hw_building_1</dc:title>
        <dc:date>2008-05-13</dc:date>
        <dc:creator>
          <cc:Agent>
            <dc:title>Jean Cartier</dc:title>
          </cc:Agent>
        </dc:creator>
        <cc:license
           rdf:resource="http://creativecommons.org/licenses/publicdomain/" />
        <dc:language>fr-FR</dc:language>
        <dc:subject>
          <rdf:Bag>
            <rdf:li>hardware</rdf:li>
            <rdf:li>computer</rdf:li>
            <rdf:li>building</rdf:li>
            <rdf:li>town</rdf:li>
            <rdf:li>city</rdf:li>
          </rdf:Bag>
        </dc:subject>
        <dc:contributor>
          <cc:Agent>
            <dc:title>Jean-Victor Balin (jean.victor.balin@gmail.com)</dc:title>
          </cc:Agent>
        </dc:contributor>
        <dc:description>http://www.jcartier.net</dc:description>
      </cc:Work>
      <cc:License
         rdf:about="http://creativecommons.org/licenses/publicdomain/">
        <cc:permits
           rdf:resource="http://creativecommons.org/ns#Reproduction" />
        <cc:permits
           rdf:resource="http://creativecommons.org/ns#Distribution" />
        <cc:permits
           rdf:resource="http://creativecommons.org/ns#DerivativeWorks" />
      </cc:License>
    </rdf:RDF>
  </metadata>
  <g
     inkscape:label="Calque 1"
     inkscape:groupmode="layer"
     id="layer1">
    <path
       style="opacity:1;fill:#888888;fill-opacity:1;stroke:none;stroke-width:0.69999999;stroke-linecap:round;stroke-linejoin:round;stroke-miterlimit:4;stroke-dasharray:none"
       d=""
       id="path8460" />
    <path
       style="opacity:1;fill:#888888;fill-opacity:1;stroke:none;stroke-width:0.69999999;stroke-linecap:round;stroke-linejoin:round;stroke-miterlimit:4;stroke-dasharray:none"
       d=""
       id="path8462" />
    <path
       style="opacity:1;fill:#888888;fill-opacity:1;stroke:none;stroke-width:0.69999999;stroke-linecap:round;stroke-linejoin:round;stroke-miterlimit:4;stroke-dasharray:none"
       d=""
       id="path8464" />
    <g
       id="g10408">
      <path
         style="fill:#edd400;fill-opacity:1;fill-rule:evenodd;stroke:none;stroke-width:1px;stroke-linecap:butt;stroke-linejoin:miter;stroke-opacity:1"
         d="M 2,31.5 L 12,36.5 L 12,11.5 L 2,6.5 L 2,31.5 z"
         id="path11771" />
      <path
         style="fill:#fce94f;fill-opacity:1;fill-rule:evenodd;stroke:none;stroke-width:1px;stroke-linecap:butt;stroke-linejoin:miter;stroke-opacity:1"
         d="M 12,36.5 L 22,31.5 L 22,6.5 L 12,11.5 L 12,36.5 z"
         id="path11773" />
      <path
         style="fill:#ffffff;fill-opacity:1;fill-rule:evenodd;stroke:none;stroke-width:1px;stroke-linecap:butt;stroke-linejoin:miter;stroke-opacity:1"
         id="path11775"
         sodipodi:nodetypes="czzzz"
         d="M 2,6.5 C 2,5.5 11,1.5 12,1.5 C 13,1.5 22,5.5 22,6.5 C 22,7.5 13,11.5 12,11.5 C 11,11.5 2,7.5 2,6.5 z" />
      <path
         style="fill:#c4a000;fill-opacity:1;fill-rule:evenodd;stroke:none;stroke-width:1px;stroke-linecap:butt;stroke-linejoin:miter;stroke-opacity:1"
         d="M 6,6.5 C 6,5.5 10.574779,3.5 12,3.5 C 13,3.5 18,5.5 18,6.5 C 18,7.5 13,9.5 12,9.5 C 11,9.5 6,7.5 6,6.5 z"
         sodipodi:nodetypes="czzzz"
         id="path11777" />
      <path
         id="path11779"
         d="M 12,1 C 11.708333,1 11.482666,1.0710032 11.125,1.1875 C 10.767334,1.3039968 10.342412,1.4896183 9.84375,1.6875 C 8.8464261,2.0832635 7.6032917,2.6204802 6.40625,3.1875 C 5.2092083,3.7545198 4.0400811,4.3447013 3.15625,4.875 C 2.7143344,5.1401493 2.3447574,5.3916376 2.0625,5.625 C 1.9213713,5.7416812 1.8199,5.8399797 1.71875,5.96875 C 1.6176,6.0975203 1.5,6.25 1.5,6.5 C 1.5,7.5 1.5,30.5 1.5,31.5 C 1.5,31.75 1.6176,31.90248 1.71875,32.03125 C 1.8199,32.16002 1.9213713,32.258319 2.0625,32.375 C 2.3447574,32.608362 2.7143344,32.859851 3.15625,33.125 C 4.0400811,33.655299 5.2092083,34.24548 6.40625,34.8125 C 7.6032917,35.37952 8.8464261,35.916737 9.84375,36.3125 C 10.342412,36.510382 10.767334,36.696003 11.125,36.8125 C 11.482666,36.928997 11.708333,37 12,37 C 12.291667,37 12.517334,36.928997 12.875,36.8125 C 13.232666,36.696003 13.657588,36.510382 14.15625,36.3125 C 15.153574,35.916737 16.396708,35.37952 17.59375,34.8125 C 18.790792,34.24548 19.959919,33.655299 20.84375,33.125 C 21.285666,32.859851 21.655243,32.608362 21.9375,32.375 C 22.078629,32.258319 22.1801,32.16002 22.28125,32.03125 C 22.3824,31.90248 22.5,31.75 22.5,31.5 C 22.5,30.5 22.5,7.5 22.5,6.5 C 22.5,6.25 22.3824,6.0975203 22.28125,5.96875 C 22.1801,5.8399797 22.078629,5.7416812 21.9375,5.625 C 21.655243,5.3916376 21.285666,5.1401493 20.84375,4.875 C 19.959919,4.3447013 18.790792,3.7545198 17.59375,3.1875 C 16.396708,2.6204802 15.153574,2.0832635 14.15625,1.6875 C 13.657588,1.4896183 13.232666,1.3039968 12.875,1.1875 C 12.517334,1.0710032 12.291667,1 12,1 z M 12,2 C 11.958333,2 12.236572,2.0500906 12.5625,2.15625 C 12.888428,2.2624094 13.326787,2.4010067 13.8125,2.59375 C 14.783926,2.9792365 15.978292,3.5045198 17.15625,4.0625 C 18.334208,4.6204802 19.477581,5.2177987 20.3125,5.71875 C 20.729959,5.9692257 21.067414,6.1982062 21.28125,6.375 C 21.388168,6.4633969 21.468826,6.5540633 21.5,6.59375 C 21.5,7.7493984 21.5,30.250602 21.5,31.40625 C 21.468826,31.445937 21.388168,31.536603 21.28125,31.625 C 21.067414,31.801794 20.729959,32.030774 20.3125,32.28125 C 19.477581,32.782201 18.334208,33.37952 17.15625,33.9375 C 15.978292,34.49548 14.783926,35.020763 13.8125,35.40625 C 13.326787,35.598993 12.888428,35.737591 12.5625,35.84375 C 12.236572,35.949909 11.958333,36 12,36 C 12.041667,36 11.763428,35.949909 11.4375,35.84375 C 11.111572,35.737591 10.673213,35.598993 10.1875,35.40625 C 9.2160739,35.020763 8.0217083,34.49548 6.84375,33.9375 C 5.6657917,33.37952 4.5224189,32.782201 3.6875,32.28125 C 3.2700406,32.030774 2.9325863,31.801794 2.71875,31.625 C 2.6118318,31.536603 2.5311742,31.445937 2.5,31.40625 C 2.5,30.250602 2.5,7.7493984 2.5,6.59375 C 2.5311742,6.5540633 2.6118318,6.4633969 2.71875,6.375 C 2.9325863,6.1982062 3.2700406,5.9692257 3.6875,5.71875 C 4.5224189,5.2177987 5.6657917,4.6204802 6.84375,4.0625 C 8.0217083,3.5045198 9.2160739,2.9792365 10.1875,2.59375 C 10.673213,2.4010067 11.111572,2.2624094 11.4375,2.15625 C 11.763428,2.0500906 12.041667,2 12,2 z"
         style="fill:#000000;fill-opacity:1;fill-rule:evenodd;stroke:none;stroke-width:1px;stroke-linecap:butt;stroke-linejoin:miter;stroke-opacity:1" />
      <path
         id="path11781"
         d="M 5,28.1875 L 5,29 L 5,33 L 5,33.3125 L 5.28125,33.4375 L 9.28125,35.4375 L 10,35.8125 L 10,35 L 10,31 L 10,30.6875 L 9.71875,30.5625 L 5.71875,28.5625 L 5,28.1875 z M 6,29.8125 L 9,31.3125 L 9,34.1875 L 6,32.6875 L 6,29.8125 z"
         style="fill:#000000;fill-opacity:1;fill-rule:evenodd;stroke:none;stroke-width:1px;stroke-linecap:butt;stroke-linejoin:miter;stroke-opacity:1" />
      <path
         id="path11783"
         d="M 15.5,23.6875 L 14.78125,24.0625 L 12.78125,25.0625 L 12.5,25.1875 L 12.5,25.5 L 12.5,28.5 L 12.5,29.3125 L 13.21875,28.9375 L 15.21875,27.9375 L 15.5,27.8125 L 15.5,27.5 L 15.5,24.5 L 15.5,23.6875 z M 14.5,25.3125 L 14.5,27.1875 L 13.5,27.6875 L 13.5,25.8125 L 14.5,25.3125 z"
         style="fill:#000000;fill-opacity:1;fill-rule:evenodd;stroke:none;stroke-width:1px;stroke-linecap:butt;stroke-linejoin:miter;stroke-opacity:1" />
      <path
         id="path11785"
         d="M 15.5,17.6875 L 14.78125,18.0625 L 12.78125,19.0625 L 12.5,19.1875 L 12.5,19.5 L 12.5,22.5 L 12.5,23.3125 L 13.21875,22.9375 L 15.21875,21.9375 L 15.5,21.8125 L 15.5,21.5 L 15.5,18.5 L 15.5,17.6875 z M 14.5,19.3125 L 14.5,21.1875 L 13.5,21.6875 L 13.5,19.8125 L 14.5,19.3125 z"
         style="fill:#000000;fill-opacity:1;fill-rule:evenodd;stroke:none;stroke-width:1px;stroke-linecap:butt;stroke-linejoin:miter;stroke-opacity:1" />
      <path
         id="path11787"
         d="M 15.5,11.6875 L 14.78125,12.0625 L 12.78125,13.0625 L 12.5,13.1875 L 12.5,13.5 L 12.5,16.5 L 12.5,17.3125 L 13.21875,16.9375 L 15.21875,15.9375 L 15.5,15.8125 L 15.5,15.5 L 15.5,12.5 L 15.5,11.6875 z M 14.5,13.3125 L 14.5,15.1875 L 13.5,15.6875 L 13.5,13.8125 L 14.5,13.3125 z"
         style="fill:#000000;fill-opacity:1;fill-rule:evenodd;stroke:none;stroke-width:1px;stroke-linecap:butt;stroke-linejoin:miter;stroke-opacity:1" />
      <path
         id="path11789"
         d="M 20.5,21.1875 L 19.78125,21.5625 L 17.78125,22.5625 L 17.5,22.6875 L 17.5,23 L 17.5,26 L 17.5,26.8125 L 18.21875,26.4375 L 20.21875,25.4375 L 20.5,25.3125 L 20.5,25 L 20.5,22 L 20.5,21.1875 z M 19.5,22.8125 L 19.5,24.6875 L 18.5,25.1875 L 18.5,23.3125 L 19.5,22.8125 z"
         style="fill:#000000;fill-opacity:1;fill-rule:evenodd;stroke:none;stroke-width:1px;stroke-linecap:butt;stroke-linejoin:miter;stroke-opacity:1" />
      <path
         id="path11791"
         d="M 20.5,15.1875 L 19.78125,15.5625 L 17.78125,16.5625 L 17.5,16.6875 L 17.5,17 L 17.5,20 L 17.5,20.8125 L 18.21875,20.4375 L 20.21875,19.4375 L 20.5,19.3125 L 20.5,19 L 20.5,16 L 20.5,15.1875 z M 19.5,16.8125 L 19.5,18.6875 L 18.5,19.1875 L 18.5,17.3125 L 19.5,16.8125 z"
         style="fill:#000000;fill-opacity:1;fill-rule:evenodd;stroke:none;stroke-width:1px;stroke-linecap:butt;stroke-linejoin:miter;stroke-opacity:1" />
      <path
         id="path11793"
         d="M 20.5,9.1875 L 19.78125,9.5625 L 17.78125,10.5625 L 17.5,10.6875 L 17.5,11 L 17.5,14 L 17.5,14.8125 L 18.21875,14.4375 L 20.21875,13.4375 L 20.5,13.3125 L 20.5,13 L 20.5,10 L 20.5,9.1875 z M 19.5,10.8125 L 19.5,12.6875 L 18.5,13.1875 L 18.5,11.3125 L 19.5,10.8125 z"
         style="fill:#000000;fill-opacity:1;fill-rule:evenodd;stroke:none;stroke-width:1px;stroke-linecap:butt;stroke-linejoin:miter;stroke-opacity:1" />
      <path
         id="path11795"
         d="M 8.5,23.6875 L 8.5,24.5 L 8.5,27.5 L 8.5,27.8125 L 8.78125,27.9375 L 10.78125,28.9375 L 11.5,29.3125 L 11.5,28.5 L 11.5,25.5 L 11.5,25.1875 L 11.21875,25.0625 L 9.21875,24.0625 L 8.5,23.6875 z M 9.5,25.3125 L 10.5,25.8125 L 10.5,27.6875 L 9.5,27.1875 L 9.5,25.3125 z"
         style="fill:#000000;fill-opacity:1;fill-rule:evenodd;stroke:none;stroke-width:1px;stroke-linecap:butt;stroke-linejoin:miter;stroke-opacity:1" />
      <path
         id="path11797"
         d="M 8.5,17.6875 L 8.5,18.5 L 8.5,21.5 L 8.5,21.8125 L 8.78125,21.9375 L 10.78125,22.9375 L 11.5,23.3125 L 11.5,22.5 L 11.5,19.5 L 11.5,19.1875 L 11.21875,19.0625 L 9.21875,18.0625 L 8.5,17.6875 z M 9.5,19.3125 L 10.5,19.8125 L 10.5,21.6875 L 9.5,21.1875 L 9.5,19.3125 z"
         style="fill:#000000;fill-opacity:1;fill-rule:evenodd;stroke:none;stroke-width:1px;stroke-linecap:butt;stroke-linejoin:miter;stroke-opacity:1" />
      <path
         id="path11799"
         d="M 8.5,11.6875 L 8.5,12.5 L 8.5,15.5 L 8.5,15.8125 L 8.78125,15.9375 L 10.78125,16.9375 L 11.5,17.3125 L 11.5,16.5 L 11.5,14.40625 L 11.5,13.5 L 11.5,13.1875 L 11.21875,13.0625 L 9.21875,12.0625 L 8.5,11.6875 z M 9.5,13.3125 L 10.5,13.8125 L 10.5,14.40625 L 10.5,15.6875 L 9.5,15.1875 L 9.5,13.3125 z"
         style="fill:#000000;fill-opacity:1;fill-rule:evenodd;stroke:none;stroke-width:1px;stroke-linecap:butt;stroke-linejoin:miter;stroke-opacity:1" />
      <path
         id="path11801"
         d="M 3.5,21.1875 L 3.5,22 L 3.5,25 L 3.5,25.3125 L 3.78125,25.4375 L 5.78125,26.4375 L 6.5,26.8125 L 6.5,26 L 6.5,23 L 6.5,22.6875 L 6.21875,22.5625 L 4.21875,21.5625 L 3.5,21.1875 z M 4.5,22.8125 L 5.5,23.3125 L 5.5,25.1875 L 4.5,24.6875 L 4.5,22.8125 z"
         style="fill:#000000;fill-opacity:1;fill-rule:evenodd;stroke:none;stroke-width:1px;stroke-linecap:butt;stroke-linejoin:miter;stroke-opacity:1" />
      <path
         id="path11803"
         d="M 3.5,15.1875 L 3.5,16 L 3.5,19 L 3.5,19.3125 L 3.78125,19.4375 L 5.78125,20.4375 L 6.5,20.8125 L 6.5,20 L 6.5,17 L 6.5,16.6875 L 6.21875,16.5625 L 4.21875,15.5625 L 3.5,15.1875 z M 4.5,16.8125 L 5.5,17.3125 L 5.5,19.1875 L 4.5,18.6875 L 4.5,16.8125 z"
         style="fill:#000000;fill-opacity:1;fill-rule:evenodd;stroke:none;stroke-width:1px;stroke-linecap:butt;stroke-linejoin:miter;stroke-opacity:1" />
      <path
         id="path11805"
         d="M 3.5,9.1875 L 3.5,10 L 3.5,13 L 3.5,13.3125 L 3.78125,13.4375 L 5.78125,14.4375 L 6.5,14.8125 L 6.5,14 L 6.5,11 L 6.5,10.6875 L 6.21875,10.5625 L 4.21875,9.5625 L 3.5,9.1875 z M 4.5,10.8125 L 5.5,11.3125 L 5.5,13.1875 L 4.5,12.6875 L 4.5,10.8125 z"
         style="fill:#000000;fill-opacity:1;fill-rule:evenodd;stroke:none;stroke-width:1px;stroke-linecap:butt;stroke-linejoin:miter;stroke-opacity:1" />
    </g>
  </g>
</svg>
