<?xml version="1.0" encoding="utf-8"?>
<!-- Generator: Adobe Illustrator 14.0.0, SVG Export Plug-In . SVG Version: 6.00 Build 43363)  -->
<!DOCTYPE svg PUBLIC "-//W3C//DTD SVG 1.0//EN" "http://www.w3.org/TR/2001/REC-SVG-20010904/DTD/svg10.dtd">
<svg version="1.0" id="Layer_1" xmlns="http://www.w3.org/2000/svg" xmlns:xlink="http://www.w3.org/1999/xlink" x="0px" y="0px"
	 width="100px" height="75.758px" viewBox="0 0 100 75.758" enable-background="new 0 0 100 75.758" xml:space="preserve">
<path d="M77.569,30.937c-12.388,0-22.43,10.042-22.43,22.431c0,12.388,10.042,22.43,22.43,22.43
	c12.389,0,22.431-10.042,22.431-22.43C100,40.979,89.958,30.937,77.569,30.937z M77.569,65.152c-6.508,0-11.783-5.276-11.783-11.784
	s5.275-11.784,11.783-11.784c6.509,0,11.784,5.276,11.784,11.784S84.078,65.152,77.569,65.152z"/>
<path d="M12.543,50.672C5.616,50.672,0,56.288,0,63.215s5.616,12.543,12.543,12.543c6.927,0,12.543-5.615,12.543-12.543
	S19.47,50.672,12.543,50.672z M12.535,69.579c-3.506,0-6.35-2.844-6.35-6.351s2.843-6.35,6.35-6.35c3.508,0,6.351,2.843,6.351,6.35
	S16.043,69.579,12.535,69.579z"/>
<path d="M77.569,24.64c-1.816,0-3.593,0.173-5.315,0.496c-0.589-9.785-3.469-11.969-4.32-14.976
	c-0.297-1.048,0.596-3.119,0.596-5.063C68.529,4.715,68.425,0,64.385,0c-3.873,0-4.828,2.928-4.828,2.928v6.345
	c0,0.552,0.48,1,1.072,1h1.405l-4.316,8.673l-6.641,5.231l-1.89-2.202l-24.102,5.587V0h-2.693v28.186l-0.222,0.051l-22.085,1.13
	v15.029l2.973,7.38c2.576-2.14,5.882-3.428,9.485-3.428c5.187,0,9.758,2.671,12.419,6.708h27.917
	c-0.038-0.559-0.064-1.121-0.064-1.688c0-13.65,11.105-24.755,24.755-24.755c5.185,0,10.001,1.605,13.981,4.341l2.274-3.27
	C89.202,26.504,83.604,24.64,77.569,24.64z"/>
</svg>
