<?xml version="1.0" encoding="utf-8"?>
<!-- Generator: Adobe Illustrator 14.0.0, SVG Export Plug-In . SVG Version: 6.00 Build 43363)  -->
<!DOCTYPE svg PUBLIC "-//W3C//DTD SVG 1.0//EN" "http://www.w3.org/TR/2001/REC-SVG-20010904/DTD/svg10.dtd">
<svg version="1.0" id="Layer_1" xmlns="http://www.w3.org/2000/svg" xmlns:xlink="http://www.w3.org/1999/xlink" x="0px" y="0px"
	 width="100px" height="100px" viewBox="0 0 100 100" enable-background="new 0 0 100 100" xml:space="preserve">
<path d="M99.979,20.706c-0.236-5.305-2.514-10.374-6.413-14.273C89.479,2.345,83.95,0,78.399,0c-5.037,0-9.701,1.892-13.136,5.326
	L5.326,65.263c-3.662,3.661-5.546,8.644-5.306,14.03c0.236,5.305,2.513,10.374,6.413,14.273C10.521,97.655,16.05,100,21.601,100
	c5.037,0,9.702-1.892,13.136-5.326l59.938-59.937C98.335,31.075,100.219,26.092,99.979,20.706z M91.241,31.304l-26.75,26.75
	c2.225-6.213,0.59-13.755-4.754-19.099c-4.39-4.39-10.262-6.274-15.663-5.576L68.695,8.758c2.518-2.518,5.964-3.904,9.704-3.904
	c4.272,0,8.55,1.826,11.734,5.011c3.04,3.04,4.814,6.966,4.996,11.056C95.309,24.931,93.928,28.618,91.241,31.304z"/>
</svg>
