<?xml version="1.0" encoding="utf-8"?>
<!-- Generator: Adobe Illustrator 15.1.0, SVG Export Plug-In . SVG Version: 6.00 Build 0)  -->
<!DOCTYPE svg PUBLIC "-//W3C//DTD SVG 1.1//EN" "http://www.w3.org/Graphics/SVG/1.1/DTD/svg11.dtd">
<svg version="1.1" id="Layer_1" xmlns="http://www.w3.org/2000/svg" xmlns:xlink="http://www.w3.org/1999/xlink" x="0px" y="0px"
	 width="100px" height="87.5px" viewBox="0 0 100 87.5" enable-background="new 0 0 100 87.5" xml:space="preserve">
<path d="M0,39.156c0,0.091,0.01,0.178,0.013,0.268v-0.536C0.01,38.977,0,39.065,0,39.156z"/>
<circle cx="30.124" cy="30.963" r="3.471"/>
<path d="M68.411,48.263c1.866-0.438,3.023-2.306,2.586-4.174c-0.436-1.864-2.305-3.023-4.17-2.587
	c-1.866,0.438-3.026,2.307-2.589,4.171C64.676,47.54,66.543,48.7,68.411,48.263z"/>
<path d="M90.277,73.61c-4.59,0-10.091-5.177-15.914-10.658c-0.636-0.598-1.28-1.203-1.93-1.811l-1.98-8.454
	c-0.469-2.007-2.476-3.249-4.478-2.78c-1.62,0.379-2.725,1.761-2.851,3.335c-5.806-4.239-12.335-7.409-20.069-7.409V12.5L20.833,0
	L0,12.5v33.333v11.111V87.5h4.167v-5.556h13.89V87.5h4.167v-5.556h16.667V87.5h4.167V56.944v-2.777
	c9.816,0,17.838,7.551,25.596,14.853c7.062,6.647,13.73,12.925,21.625,12.925h1.39V87.5h4.166v-5.556H100V73.61H90.277z
	 M18.056,79.167H4.167V73.61h13.89V79.167z M18.056,70.833H4.167v-5.556h13.89V70.833z M18.056,62.5H4.167v-5.556h13.89V62.5z
	 M38.889,45.833h-4.276l-1.655-7.065c-0.469-2.006-2.474-3.249-4.478-2.778c-2.005,0.469-3.25,2.474-2.78,4.479l1.256,5.364H4.167
	V15.277h34.723V45.833z"/>
</svg>
