<?xml version="1.0" encoding="utf-8"?>
<!-- Generator: Adobe Illustrator 15.1.0, SVG Export Plug-In . SVG Version: 6.00 Build 0)  -->
<!DOCTYPE svg PUBLIC "-//W3C//DTD SVG 1.1//EN" "http://www.w3.org/Graphics/SVG/1.1/DTD/svg11.dtd">
<svg version="1.1" id="Layer_1" xmlns="http://www.w3.org/2000/svg" xmlns:xlink="http://www.w3.org/1999/xlink" x="0px" y="0px"
	 width="100px" height="97.367px" viewBox="0 0 100 97.367" enable-background="new 0 0 100 97.367" xml:space="preserve">
<path d="M75.446,16.855c4.651,0,8.418-3.78,8.418-8.432S80.098,0,75.446,0c-4.653,0-8.435,3.77-8.435,8.422
	C67.012,13.075,70.792,16.855,75.446,16.855z"/>
<path d="M46.437,23.114L33.327,38.25c-0.771,0.959-1.953,1.551-3.272,1.551c-2.35,0-4.241-1.897-4.241-4.237
	c0-1.268,0.549-2.4,1.43-3.177L41.375,16.11c0.783-0.934,1.953-1.537,3.272-1.537l20.459-0.005c1.507,0,2.85,0.604,3.846,1.561
	L82,29.173l10.809-10.792c0.759-0.642,1.742-1.026,2.813-1.026c2.425,0,4.378,1.966,4.378,4.379c0,1.059-0.361,2.016-0.983,2.772
	L85.98,37.642c-3.954,3.949-7.14,0.596-7.14,0.596L70.844,30.2L58.341,44.657l11.457,11.455c0,0,2.413,2.242,1.031,6.705
	L64.41,91.429c-0.509,2.488-2.711,4.353-5.335,4.353c-3.012,0-5.449-2.438-5.449-5.449c0-0.473,0.05-0.934,0.175-1.368l5.273-23.478
	l-13.01-12.651L34.869,65.317c0,0-1.814,2.241-6.616,2.065L5.55,67.42c-2.537,0.049-4.839-1.69-5.41-4.26
	c-0.673-2.935,1.146-5.81,4.079-6.462c0.461-0.108,0.92-0.144,1.369-0.132l19.529,0.057l28.871-33.474L46.437,23.114z"/>
<circle cx="88.504" cy="86.86" r="10.505"/>
</svg>
