<?xml version="1.0" encoding="utf-8"?>
<!-- Generator: Adobe Illustrator 15.1.0, SVG Export Plug-In . SVG Version: 6.00 Build 0)  -->
<!DOCTYPE svg PUBLIC "-//W3C//DTD SVG 1.1//EN" "http://www.w3.org/Graphics/SVG/1.1/DTD/svg11.dtd">
<svg version="1.1" id="Layer_1" xmlns="http://www.w3.org/2000/svg" xmlns:xlink="http://www.w3.org/1999/xlink" x="0px" y="0px"
	 width="100px" height="54.805px" viewBox="0 0 100 54.805" enable-background="new 0 0 100 54.805" xml:space="preserve">
<circle cx="14.466" cy="17.737" r="4.264"/>
<circle cx="77.027" cy="4.167" r="4.264"/>
<path d="M98.857,17.207l-5.006,1.085c1.574-3.747-1.044-5.289-1.044-5.289L82.312,6.087l-4.216,3.005c0,0-4.084,6.25-4.084,6.25
	s-1.974,3.023-0.126,4.636l0.192,2.603L24.779,33.273l-0.903-2.448c1.013-2.233-2.036-4.167-2.036-4.167l-6.306-3.996l-5.082-0.989
	L3.764,32.316c0,0-1.747,2.488,1.239,5.246L0,38.648l1.142,5.268l14.562-3.158l7.155,5.398l3.989-3.207l-2.913-3.977l26.064-5.653
	l-5.192,4.54v16.945H50h5.193V37.859L50,33.319l27.207-5.902l-1.003,4.827l4.959,1.267l4.275-7.878L100,22.474L98.857,17.207z
	 M20.043,34.301l-5.588-2.679l1.379-4.266l5.61,2.642l1.367,3.702L20.043,34.301z M78.814,21.554l-2.77,0.601l-0.29-3.937
	l4.013-4.728L82.79,16.8L78.814,21.554z"/>
</svg>
