<?xml version="1.0" encoding="utf-8"?>
<!-- Generator: Adobe Illustrator 14.0.0, SVG Export Plug-In . SVG Version: 6.00 Build 43363)  -->
<!DOCTYPE svg PUBLIC "-//W3C//DTD SVG 1.0//EN" "http://www.w3.org/TR/2001/REC-SVG-20010904/DTD/svg10.dtd">
<svg version="1.0" id="Layer_1" xmlns="http://www.w3.org/2000/svg" xmlns:xlink="http://www.w3.org/1999/xlink" x="0px" y="0px"
	 width="100px" height="100px" viewBox="0 0 100 100" enable-background="new 0 0 100 100" xml:space="preserve">
<path d="M40.886,61.563L15.89,86.559c10.505,9.813,24.207,14.252,37.605,13.319C55.018,86.312,50.815,72.221,40.886,61.563z"/>
<path d="M57.016,99.506c9.835-1.386,19.336-5.701,27.094-12.948L50,52.449l-6.663,6.663C53.852,70.347,58.414,85.164,57.016,99.506z
	"/>
<path d="M38.437,59.114L13.441,84.11C3.627,73.605-0.812,59.903,0.122,46.504C13.688,44.982,27.778,49.185,38.437,59.114z"/>
<path d="M0.493,42.983c1.386-9.834,5.702-19.335,12.948-27.093L47.551,50l-6.664,6.664C29.652,46.147,14.835,41.586,0.493,42.983z"
	/>
<path d="M61.563,40.886l24.995-24.997c9.814,10.505,14.253,24.208,13.32,37.605C86.312,55.018,72.221,50.815,61.563,40.886z"/>
<path d="M99.506,57.016c-1.386,9.835-5.701,19.336-12.948,27.094L52.449,50l6.663-6.663C70.347,53.852,85.164,58.414,99.506,57.016z
	"/>
<path d="M59.114,38.437L84.11,13.441C73.605,3.627,59.903-0.812,46.504,0.122C44.981,13.688,49.185,27.778,59.114,38.437z"/>
<path d="M42.983,0.493C33.148,1.879,23.647,6.194,15.89,13.441L50,47.551l6.663-6.664C46.147,29.652,41.586,14.835,42.983,0.493z"/>
</svg>
