<?xml version="1.0" encoding="utf-8"?>
<!-- Generator: Adobe Illustrator 15.1.0, SVG Export Plug-In . SVG Version: 6.00 Build 0)  -->
<!DOCTYPE svg PUBLIC "-//W3C//DTD SVG 1.1//EN" "http://www.w3.org/Graphics/SVG/1.1/DTD/svg11.dtd">
<svg version="1.1" id="Layer_1" xmlns="http://www.w3.org/2000/svg" xmlns:xlink="http://www.w3.org/1999/xlink" x="0px" y="0px"
	 width="83.192px" height="100px" viewBox="0 0 83.192 100" enable-background="new 0 0 83.192 100" xml:space="preserve">
<g>
	<g>
		<g>
			<path d="M74.513,62.78V45.967c0-2.384,1.953-4.327,4.352-4.327c2.391,0,4.327,1.943,4.327,4.327v23.024
				c0,3.184-1.147,6.256-3.202,8.658L65.631,92.897c-1.423,1.34-1.774,2.528-1.774,4.328V100H48.232l-0.019-6.604
				c0-2.516-0.205-5.876,2.945-9.174L69.375,65.93c0.646-0.626,1.5-0.968,2.4-0.968c1.905,0,3.456,1.546,3.456,3.449
				c0,0.822-0.292,1.62-0.823,2.248l-8.786,9.412c-0.567,0.668-1.531,1.928-2.011,3.471c-0.26,0.798-0.334,1.58-0.346,2.474h2.825
				c0.013-0.638,0.06-1.149,0.212-1.625c0.277-0.892,0.828-1.69,1.241-2.203l8.922-9.789c1.122-1.13,1.734-2.597,1.734-4.134
				C78.201,65.954,76.811,63.829,74.513,62.78z"/>
		</g>
	</g>
	<g>
		<g>
			<path d="M8.678,62.78V45.967c0-2.384-1.954-4.327-4.353-4.327C1.935,41.641,0,43.583,0,45.967v23.024
				c0,3.184,1.146,6.256,3.201,8.658l14.358,15.246c1.424,1.342,1.772,2.53,1.772,4.33V100h15.628l0.018-6.604
				c0-2.516,0.206-5.876-2.943-9.174L13.819,65.931c-0.652-0.625-1.504-0.966-2.402-0.966c-1.906,0-3.458,1.546-3.458,3.448
				c0,0.822,0.292,1.621,0.823,2.248l8.789,9.413c0.568,0.667,1.531,1.925,2.01,3.468c0.258,0.799,0.331,1.58,0.347,2.475h-2.828
				c-0.012-0.639-0.06-1.15-0.211-1.626c-0.276-0.891-0.828-1.688-1.242-2.2l-8.922-9.792c-1.123-1.13-1.734-2.597-1.734-4.134
				C4.99,65.954,6.377,63.829,8.678,62.78z"/>
		</g>
	</g>
</g>
<path d="M26.565,16.303c1.517,1.011,3.237,2.158,3.237,3.125c0,1.655-1.039,3.194-2.042,4.681c-1.043,1.548-2.122,3.148-2.122,5.033
	h4.164c0-0.612,0.716-1.676,1.411-2.706c1.224-1.817,2.75-4.079,2.75-7.008c0-3.195-2.821-5.077-5.088-6.588
	c-1.518-1.012-3.237-2.158-3.237-3.125c0-1.322,0.633-2.233,1.665-3.608C28.417,4.623,29.802,2.776,29.802,0h-4.164
	c0,1.322-0.633,2.233-1.666,3.608c-1.113,1.484-2.498,3.331-2.498,6.107C21.475,12.91,24.297,14.791,26.565,16.303z"/>
<path d="M40.443,16.303c1.516,1.011,3.234,2.158,3.234,3.125c0,1.655-1.036,3.194-2.039,4.681c-1.044,1.548-2.123,3.148-2.123,5.033
	h4.162c0-0.612,0.719-1.676,1.411-2.706c1.227-1.817,2.753-4.079,2.753-7.008c0-3.195-2.823-5.077-5.091-6.588
	c-1.516-1.012-3.235-2.158-3.235-3.125c0-1.322,0.633-2.233,1.664-3.608C42.293,4.623,43.677,2.776,43.677,0h-4.162
	c0,1.322-0.633,2.233-1.667,3.608c-1.112,1.484-2.498,3.331-2.498,6.107C35.352,12.91,38.174,14.791,40.443,16.303z"/>
<path d="M54.318,16.303c1.519,1.011,3.237,2.158,3.237,3.125c0,1.655-1.038,3.194-2.041,4.681c-1.043,1.548-2.123,3.148-2.123,5.033
	h4.164c0-0.612,0.717-1.676,1.411-2.706c1.226-1.817,2.751-4.079,2.751-7.008c0-3.195-2.821-5.077-5.09-6.588
	c-1.517-1.012-3.236-2.158-3.236-3.125c0-1.322,0.633-2.233,1.666-3.608C56.169,4.623,57.555,2.776,57.555,0h-4.164
	c0,1.322-0.633,2.233-1.664,3.608c-1.113,1.484-2.498,3.331-2.498,6.107C49.229,12.91,52.051,14.791,54.318,16.303z"/>
<path d="M72.462,25.957c-5.46,2.91-10.918,5.823-16.379,8.736h-42.24c0,10.281,6.927,17.408,15.263,20.97v1.231
	c0,0.767,0.621,1.388,1.388,1.388h22.203c0.768,0,1.389-0.621,1.389-1.388v-1.231c8.337-3.562,15.263-10.689,15.263-20.97h-4.427
	c3.213-1.715,6.427-3.427,9.641-5.142C76.932,28.288,74.831,24.694,72.462,25.957z"/>
</svg>
