<?xml version="1.0" encoding="utf-8"?>
<!-- Generator: Adobe Illustrator 14.0.0, SVG Export Plug-In . SVG Version: 6.00 Build 43363)  -->
<!DOCTYPE svg PUBLIC "-//W3C//DTD SVG 1.0//EN" "http://www.w3.org/TR/2001/REC-SVG-20010904/DTD/svg10.dtd">
<svg version="1.0" id="Layer_1" xmlns="http://www.w3.org/2000/svg" xmlns:xlink="http://www.w3.org/1999/xlink" x="0px" y="0px"
	 width="75.344px" height="100px" viewBox="0 0 75.344 100" enable-background="new 0 0 75.344 100" xml:space="preserve">
<path d="M37.674,54.126c7.482,0,10.953,5.679,11.683,13.745c0.174,1.93-0.008,4.743-0.255,8.001
	C48.261,86.697,47.294,100,54.502,100c6.096,0,9.228-11.695,11.035-25.027c1.745-13.197-0.103-19.765,0.806-25.625
	c1.733-11.103,11.425-21.058,8.431-35.214c-1.658-7.853-5.982-11.547-10.266-13.1C54.64-2.558,48.269,4.363,37.674,4.363
	S20.708-2.558,10.835,1.034c-4.28,1.553-8.604,5.247-10.266,13.1C-2.421,28.29,7.267,38.245,9.004,49.348
	c0.908,5.86-0.939,12.427,0.806,25.625C11.617,88.304,14.75,100,20.845,100c7.205,0,6.242-13.303,5.4-24.127
	c-0.248-3.258-0.428-6.071-0.255-8.001C26.717,59.805,30.234,54.126,37.674,54.126z"/>
</svg>
