<?xml version="1.0" encoding="utf-8"?>
<!-- Generator: Adobe Illustrator 14.0.0, SVG Export Plug-In . SVG Version: 6.00 Build 43363)  -->
<!DOCTYPE svg PUBLIC "-//W3C//DTD SVG 1.0//EN" "http://www.w3.org/TR/2001/REC-SVG-20010904/DTD/svg10.dtd">
<svg version="1.0" id="Layer_1" xmlns="http://www.w3.org/2000/svg" xmlns:xlink="http://www.w3.org/1999/xlink" x="0px" y="0px"
	 width="65.311px" height="100px" viewBox="0 0 65.311 100" enable-background="new 0 0 65.311 100" xml:space="preserve">
<path d="M65.189,80.456C59.07,70.44,52.951,60.428,46.831,50.414c3.441,0.819,6.881,1.639,10.321,2.458
	c0.691,0.165,1.412-0.603,0.972-1.263c-4.735-7.102-9.47-14.205-14.204-21.307c2.449,0.459,4.899,0.918,7.348,1.377
	c0.696,0.13,1.403-0.575,0.972-1.264c-6.28-10.008-12.561-20.017-18.84-30.025c-0.012-0.018-0.029-0.026-0.04-0.042
	c-0.019-0.023-0.04-0.042-0.06-0.063c-0.182-0.208-0.41-0.294-0.644-0.283c-0.233-0.011-0.462,0.076-0.644,0.283
	c-0.02,0.021-0.041,0.04-0.06,0.063c-0.011,0.016-0.028,0.024-0.04,0.042c-6.279,10.008-12.559,20.017-18.839,30.025
	c-0.432,0.688,0.274,1.394,0.972,1.264c2.448-0.459,4.897-0.918,7.347-1.377c-4.734,7.102-9.469,14.205-14.204,21.307
	c-0.439,0.66,0.281,1.428,0.972,1.263c3.441-0.819,6.88-1.639,10.321-2.458C12.361,60.428,6.242,70.44,0.122,80.456
	c-0.401,0.657,0.256,1.448,0.972,1.264c9.253-2.399,18.505-4.798,27.758-7.197c0,8.206,0,16.411,0,24.617
	c0,0.469,0.392,0.86,0.86,0.86c1.962,0,3.925,0,5.887,0c0.469,0,0.86-0.392,0.86-0.86c0-8.206,0-16.411,0-24.617
	c9.253,2.399,18.506,4.798,27.758,7.197C64.933,81.904,65.59,81.113,65.189,80.456z"/>
</svg>
