<?xml version="1.0" encoding="utf-8"?>
<!-- Generator: Adobe Illustrator 14.0.0, SVG Export Plug-In . SVG Version: 6.00 Build 43363)  -->
<!DOCTYPE svg PUBLIC "-//W3C//DTD SVG 1.0//EN" "http://www.w3.org/TR/2001/REC-SVG-20010904/DTD/svg10.dtd">
<svg version="1.0" id="Layer_1" xmlns="http://www.w3.org/2000/svg" xmlns:xlink="http://www.w3.org/1999/xlink" x="0px" y="0px"
	 width="97.277px" height="100px" viewBox="0 0 97.277 100" enable-background="new 0 0 97.277 100" xml:space="preserve">
<path d="M35.894,0.173c0-0.154-0.777-0.186-1.717-0.168h-6.483c-0.938-0.018-1.717,0.015-1.717,0.168c0,1.592,0,3.628,0,5.876h9.917
	C35.894,3.801,35.894,1.765,35.894,0.173z"/>
<path d="M77.223,94.053c0.465,0,0.469-0.713,0.013-0.728h0.02c0,0-8.249-0.416-9.099-3.992c-0.135-0.567-0.756-11.812,0.418-15.644
	c1.109-3.62,6.882-3.854,9.486-11.673c2.794-8.389-1.911-20.019-1.911-20.019h-7.433h-1.528H65.66h-7.433
	c0,0-4.705,11.63-1.911,20.019c2.604,7.818,8.377,8.053,9.486,11.673c1.173,3.832,0.552,15.076,0.417,15.644
	c-0.85,3.576-9.099,3.992-9.099,3.992h0.02c-0.456,0.015-0.451,0.728,0.014,0.728H39.77c3.637,0,3.771-2.947,3.771-6.584
	c0,0,0-38.391,0-51.188c0-8.071-7.646-8.142-7.646-10.089c0-4.012,0-12.309,0-19.081h-9.917c0,6.771,0,15.068,0,19.081
	c0,1.947-7.646,2.018-7.646,10.089c0,12.797,0,51.188,0,51.188c0,3.637,0.133,6.584,3.77,6.584H0V100h97.277v-5.947H77.223z"/>
</svg>
