<?xml version="1.0" encoding="UTF-8" standalone="no"?>
<!-- Created with Inkscape (http://www.inkscape.org/) -->
<svg
   xmlns:dc="http://purl.org/dc/elements/1.1/"
   xmlns:cc="http://web.resource.org/cc/"
   xmlns:rdf="http://www.w3.org/1999/02/22-rdf-syntax-ns#"
   xmlns:svg="http://www.w3.org/2000/svg"
   xmlns="http://www.w3.org/2000/svg"
   xmlns:sodipodi="http://sodipodi.sourceforge.net/DTD/sodipodi-0.dtd"
   xmlns:inkscape="http://www.inkscape.org/namespaces/inkscape"
   width="340.44745"
   height="500.00003"
   id="svg2160"
   sodipodi:version="0.32"
   inkscape:version="0.45.1"
   sodipodi:docbase="/home/ben/Images/SVG/Motifs"
   sodipodi:docname="batik_02_simple.svg"
   inkscape:output_extension="org.inkscape.output.svg.inkscape"
   version="1.0">
  <defs
     id="defs2162" />
  <sodipodi:namedview
     id="base"
     pagecolor="#ffffff"
     bordercolor="#666666"
     borderopacity="1.0"
     inkscape:pageopacity="0.0"
     inkscape:pageshadow="2"
     inkscape:zoom="0.7"
     inkscape:cx="75.635708"
     inkscape:cy="199.10456"
     inkscape:document-units="px"
     inkscape:current-layer="layer1"
     inkscape:window-width="1024"
     inkscape:window-height="722"
     inkscape:window-x="0"
     inkscape:window-y="45" />
  <metadata
     id="metadata2165">
    <rdf:RDF>
      <cc:Work
         rdf:about="">
        <dc:format>image/svg+xml</dc:format>
        <dc:type
           rdf:resource="http://purl.org/dc/dcmitype/StillImage" />
        <dc:title>Indonesian Antelope Batik </dc:title>
        <dc:creator>
          <cc:Agent>
            <dc:title>Benjamin Pavie</dc:title>
          </cc:Agent>
        </dc:creator>
        <cc:license
           rdf:resource="http://web.resource.org/cc/PublicDomain" />
        <dc:subject>
          <rdf:Bag>
            <rdf:li>Batik</rdf:li>
            <rdf:li>antelope</rdf:li>
            <rdf:li>indonesian</rdf:li>
          </rdf:Bag>
        </dc:subject>
      </cc:Work>
      <cc:License
         rdf:about="http://web.resource.org/cc/PublicDomain">
        <cc:permits
           rdf:resource="http://web.resource.org/cc/Reproduction" />
        <cc:permits
           rdf:resource="http://web.resource.org/cc/Distribution" />
        <cc:permits
           rdf:resource="http://web.resource.org/cc/DerivativeWorks" />
      </cc:License>
    </rdf:RDF>
  </metadata>
  <g
     inkscape:label="Calque 1"
     inkscape:groupmode="layer"
     id="layer1"
     transform="translate(394.38986,-1779.4704)">
    <path
       style="fill:#000000"
       d="M -55.056883,2254.7447 C -54.835068,2267.0723 -55.131801,2277.9377 -70.163997,2278.3063 C -178.22046,2276.7735 -282.40195,2279.4862 -390.42918,2277.3812 C -389.77152,2271.5907 -371.92963,2264.746 -362.31848,2258.823 C -357.76874,2243.6401 -350.13411,2227.5318 -342.44832,2212.643 C -336.81263,2190.2353 -345.50713,2166.119 -333.1517,2146.7556 C -327.68129,2132.0435 -359.75347,2111.3704 -360.62147,2089.5697 C -358.43586,2078.0893 -356.4989,2066.0912 -348.35158,2058.5994 C -353.22432,2055.2715 -357.68671,2053.9329 -362.28835,2049.665 C -370.08335,2045.4003 -382.68092,2038.0433 -366.5184,2038.1994 C -335.62822,2036.0687 -312.71355,2021.4739 -280.27379,2016.4223 C -256.96888,2022.3458 -230.9855,2035.258 -206.04762,2030.0075 C -185.2634,2024.8715 -152.23851,2028.0237 -141.96024,2003.1798 C -138.39431,1985.4363 -134.46357,1969.0227 -131.88815,1949.7467 C -129.31829,1941.0219 -121.56011,1903.8668 -135.61497,1919.3433 C -149.4408,1931.9993 -164.35547,1932.92 -180.45093,1941.6776 C -179.37832,1934.6848 -178.24497,1934.268 -174.70159,1927.3877 C -156.55184,1911.6785 -158.21344,1899.739 -179.87677,1904.0812 C -196.11972,1899.8504 -222.25622,1905.3626 -232.34902,1890.3512 C -233.40263,1879.6223 -218.11498,1880.895 -211.6824,1875.0525 C -197.4677,1870.557 -183.02067,1867.9205 -168.56139,1870.363 C -154.08616,1877.1769 -143.39229,1873.3352 -144.08306,1853.915 C -139.89934,1839.0477 -142.72958,1831.6908 -135.81891,1818.066 C -131.00673,1805.1133 -122.44531,1778.5464 -129.13642,1782.667 C -124.05314,1789.9151 -118.91345,1796.0737 -108.71864,1793.067 C -100.25065,1793.0008 -91.314886,1795.2693 -92.707998,1790.8327 C -92.383032,1812.0011 -95.66524,1830.4479 -92.175373,1852.3082 C -94.154159,1869.2446 -95.121184,1879.5127 -70.46251,1879.5331 C -55.919055,1887.8889 -59.89308,1905.2932 -83.666514,1906.4892 C -93.181858,1909.1665 -83.462792,1934.1649 -85.177139,1947.0415 C -82.898235,1991.5216 -80.28098,2036.5023 -90.06048,2080.4202 C -101.57436,2106.1132 -117.64676,2128.8884 -138.54715,2147.5262 C -154.01106,2166.3897 -128.94164,2180.2982 -112.87084,2191.4757 C -96.71046,2204.8217 -75.610762,2212.587 -65.076241,2231.773 C -60.049784,2238.8031 -55.264147,2245.7573 -55.056883,2254.7447 z "
       id="path3673"
       sodipodi:nodetypes="ccccccccccccccccccccccccccccccccccc" />
    <path
       style="fill:#3d8baf"
       d="M -59.640844,2255.6232 C -61.846734,2239.9149 -70.882597,2226.9951 -82.768598,2216.5846 C -97.500879,2203.6811 -115.9287,2195.2981 -130.37248,2182.3515 C -137.99086,2175.5228 -148.64547,2168.389 -149.40444,2157.3351 C -145.60519,2145.3902 -134.65258,2138.6086 -126.80874,2129.3724 C -111.24573,2111.0467 -94.170204,2090.9732 -90.250912,2067.571 C -81.668881,2016.3275 -87.227128,1962.6916 -91.257334,1910.4822 C -94.040567,1903.4234 -93.580878,1897.1685 -94.228228,1890.0885 C -94.817192,1883.6469 -94.754286,1874.9909 -95.301853,1868.1947 C -96.417994,1854.3416 -96.20788,1840.1371 -96.426575,1826.4533 C -96.591515,1816.1329 -91.728644,1804.2224 -95.555601,1793.7404 C -103.01984,1794.1219 -112.6293,1799.0567 -119.88116,1793.741 C -129.36338,1786.7903 -129.34578,1805.9042 -130.53402,1810.3274 C -131.96697,1815.6614 -138.81304,1826.7702 -133.50348,1829.6812 C -124.75113,1827.1383 -113.95332,1833.3248 -118.75763,1843.4702 C -121.44046,1852.4629 -132.50703,1857.4998 -140.44664,1855.9066 C -144.9975,1864.1 -146.10647,1873.6944 -150.66662,1882.2713 C -154.95617,1894.8011 -159.85854,1906.9791 -165.62158,1918.7249 C -166.69493,1925.2939 -184.13006,1937.4357 -171.92373,1937.4626 C -156.51714,1931.5288 -142.39733,1921.3252 -130.90905,1909.5396 C -126.30735,1896.5432 -117.59948,1904.5481 -123.77966,1914.7641 C -124.63599,1925.5667 -126.12358,1936.6327 -127.67905,1947.54 C -130.06911,1964.2997 -135.16034,1980.1399 -138.65528,1996.5369 C -140.20136,2003.7905 -147.05665,2013.4581 -138.28172,2017.1711 C -140.34326,2025.5319 -136.27451,2034.0269 -134.65738,2042.89 C -131.7408,2058.8752 -137.0816,2081.5955 -155.3566,2085.3153 C -162.71461,2086.813 -167.56594,2091.404 -172.19928,2097.4734 C -182.34415,2110.7628 -202.43535,2113.9343 -217.704,2106.7934 C -228.49495,2108.8639 -237.78316,2118.2216 -250.88994,2116.3301 C -268.16044,2113.8377 -279.77808,2098.6067 -283.55436,2082.7025 C -287.03895,2069.5034 -289.06526,2054.8393 -286.60141,2041.6059 C -284.36322,2029.5844 -276.84277,2013.5544 -298.88836,2022.0886 C -318.4675,2029.6681 -342.14646,2037.489 -361.07297,2043.3971 C -356.12213,2053.4179 -344.54785,2047.4867 -341.66115,2056.0705 C -339.82783,2061.5219 -349.59487,2070.2979 -352.81072,2079.4747 C -357.7689,2093.6233 -350.78417,2105.3503 -343.07439,2116.3372 C -335.3234,2127.3828 -324.90631,2143.019 -334.43547,2156.1684 C -342.11376,2166.7637 -339.96197,2180.0157 -337.17804,2191.918 C -335.32521,2199.8396 -335.8664,2207.6728 -339.68813,2215.4809 C -345.09892,2226.5355 -355.45628,2237.8242 -353.63262,2250.9533 C -347.15122,2249.5419 -339.66948,2244.4741 -332.28478,2242.1872 C -331.86499,2229.8652 -328.05049,2219.213 -322.04604,2207.979 C -310.13055,2190.1076 -288.08152,2178.4803 -282.53522,2156.6663 C -273.51923,2144.2905 -285.96049,2175.4205 -270.56318,2171.0495 C -246.42929,2178.1537 -220.50054,2180.4973 -195.77002,2174.5693 C -187.15954,2172.8594 -178.98426,2169.8795 -170.76049,2166.5876 C -163.10258,2168.0328 -163.90947,2179.5859 -158.2247,2184.5087 C -146.35777,2197.1337 -131.15611,2206.1929 -116.02541,2214.3162 C -105.58034,2219.1386 -95.13926,2224.8829 -86.427592,2232.1367 C -79.322285,2238.699 -75.120226,2247.869 -71.101451,2256.2056 C -67.280446,2256.547 -63.412533,2256.3066 -59.640844,2255.6232 z M -55.056883,2254.7447 C -54.037722,2266.6169 -52.357764,2273.0317 -57.342951,2279.1675 C -162.90095,2278.9262 -288.1438,2279.9567 -394.35909,2279.1675 C -395.19711,2274.3339 -378.71904,2266.5177 -369.2999,2261.4447 C -359.79497,2250.3799 -356.52382,2234.735 -348.27898,2222.4954 C -339.36574,2209.2634 -341.66077,2193.345 -345.12978,2178.7533 C -347.83983,2167.354 -339.40555,2157.3405 -336.18845,2146.8854 C -333.13921,2136.9758 -340.94128,2128.3228 -345.97288,2120.0527 C -352.35011,2109.5709 -363.08732,2099.098 -360.6175,2086.2717 C -358.61318,2075.8628 -356.09091,2065.3255 -348.35156,2058.5994 C -353.2243,2055.2716 -358.11102,2053.5153 -363.24269,2049.9831 C -370.50767,2044.9825 -382.62098,2040.2778 -367.15462,2036.9269 C -338.69323,2030.7604 -308.81067,2009.4426 -278.36672,2013.8545 C -256.27472,2017.0559 -234.92853,2032.4918 -211.10348,2029.9318 C -190.61238,2020.6405 -162.53219,2028.2042 -146.93969,2010.115 C -141.80973,1992.5076 -138.54975,1974.472 -134.57905,1955.9934 C -131.72222,1942.6985 -127.46147,1929.356 -130.41221,1917.3205 C -146.14618,1931.4293 -166.8226,1938.7444 -185.66284,1947.7754 C -191.65897,1941.4575 -168.18904,1919.6974 -164.36564,1905.7679 C -182.84008,1904.0434 -206.96427,1902.4711 -219.67056,1899.1771 C -232.37687,1895.8833 -240.81625,1893.4855 -231.6041,1884.2468 C -222.39196,1875.008 -197.72787,1870.1267 -181.01538,1869.0715 C -171.13989,1868.4481 -160.39037,1873.219 -150.98154,1871.772 C -146.29926,1860.6525 -143.39449,1848.8138 -141.19751,1837.1241 C -143.80415,1832.1587 -138.18266,1823.2395 -135.84066,1815.4313 C -133.04436,1806.1083 -128.24681,1796.7216 -130.79775,1787.2864 C -133.6862,1779.4547 -127.86201,1775.6857 -123.04009,1784.7605 C -117.46003,1795.262 -99.405358,1792.9851 -93.385281,1785.7997 C -89.648439,1785.1843 -86.306789,1797.3586 -89.320496,1803.2993 C -92.713856,1817.3986 -92.640857,1832.2725 -92.228029,1846.8561 C -92.015976,1854.3474 -90.947012,1862.9248 -90.512012,1870.9303 C -88.682169,1879.1702 -76.403652,1874.7215 -69.497122,1878.5725 C -61.171199,1883.215 -53.658904,1893.9871 -61.840578,1902.2928 C -68.877233,1909.4361 -80.991393,1902.578 -86.773658,1909.4042 C -81.711505,1963.7312 -74.872667,2020.771 -86.600546,2074.5232 C -92.621254,2102.1178 -114.83582,2125.0619 -134.16536,2144.0276 C -142.73509,2152.436 -145.54065,2163.0001 -136.26736,2171.2214 C -118.71653,2186.7812 -97.7582,2198.8669 -80.086848,2213.5157 C -67.214832,2224.1861 -56.501547,2237.9157 -55.056883,2254.7447 z M -59.758735,2274.8318 C -49.486449,2261.5559 -65.132863,2259.5741 -75.321618,2258.907 C -94.416676,2257.6133 -113.51261,2255.607 -132.68481,2257.3949 C -143.38778,2258.3929 -150.9991,2250.1226 -159.51971,2245.7504 C -176.46395,2247.565 -189.44536,2252.624 -204.28054,2255.688 C -217.28026,2258.3729 -229.83368,2257.6377 -242.52958,2260.5819 C -251.03571,2259.1112 -237.39485,2243.7133 -251.07641,2248.7294 C -271.4644,2251.6975 -288.87839,2264.3901 -309.25512,2267.4418 C -321.93525,2270.6627 -316.03168,2258.3457 -308.92972,2255.7623 C -304.30305,2251.0933 -286.45158,2239.7011 -301.66471,2238.336 C -316.95665,2239.9072 -332.30506,2245.1332 -345.50118,2252.8034 C -356.03718,2258.9273 -367.6926,2263.319 -377.97836,2269.5975 C -361.70612,2272.3504 -332.6653,2273.429 -312.47326,2273.6826 C -228.30772,2274.7399 -143.99698,2275.4749 -59.758735,2274.8318 z M -304.22202,2261.9225 C -293.66412,2259.0959 -283.88305,2256.3141 -274.53319,2252.3877 C -261.02282,2250.575 -270.22741,2239.4804 -274.37715,2233.2107 C -279.92923,2220.3453 -287.63917,2208.4071 -292.42081,2195.0971 C -295.75949,2182.8378 -307.68078,2196.8054 -312.75982,2202.6253 C -319.83647,2211.031 -324.92017,2221.7038 -326.25395,2232.5756 C -326.18679,2246.4642 -309.55003,2231.7644 -301.17134,2234.8974 C -294.86338,2234.7008 -288.74166,2235.3583 -290.48412,2243.072 C -294.08356,2249.7704 -298.93719,2253.4135 -304.35279,2256.2561 C -307.6697,2258.8593 -310.21305,2262.2231 -304.22202,2261.9225 z M -231.56842,2256.0534 C -223.90329,2252.1644 -244.91356,2244.2528 -235.22267,2254.5841 C -234.04538,2255.0088 -232.83918,2256.2819 -231.56842,2256.0534 z M -81.828451,2255.333 C -74.436708,2250.7108 -84.951861,2239.6206 -89.887037,2234.7223 C -100.17205,2225.2556 -113.50133,2219.9865 -125.48286,2213.3995 C -139.01915,2208.2467 -148.29113,2194.5765 -162.0226,2190.7717 C -157.9088,2208.3766 -147.06662,2224.8999 -137.20196,2238.2793 C -132.95276,2244.0425 -125.86144,2251.9933 -119.3699,2253.0453 C -106.76128,2252.8832 -94.327775,2253.8324 -81.828451,2255.333 z M -220.07399,2254.7388 C -201.68146,2252.7045 -183.76545,2246.8577 -166.57009,2240.8635 C -173.61477,2227.075 -182.40298,2214.3422 -188.75034,2200.3421 C -191.44066,2187.964 -196.11491,2173.9265 -211.44621,2181.369 C -228.06653,2182.6346 -244.87607,2180.3906 -260.94481,2178.1383 C -267.96691,2191.3318 -258.49931,2204.7279 -252.22834,2216.1506 C -244.19735,2230.7542 -234.1299,2244.1001 -221.48466,2255.0071 L -220.07399,2254.7388 L -220.07399,2254.7388 z M -135.1594,2253.5529 C -119.58734,2257.2592 -138.48105,2242.9366 -142.24998,2237.5472 C -152.51388,2222.8705 -161.98085,2207.4893 -167.51484,2190.235 C -169.14203,2181.424 -175.22862,2170.5767 -185.47372,2176.4164 C -193.00786,2182.4628 -185.78864,2195.4924 -183.08015,2203.2654 C -176.05028,2215.0644 -171.2784,2228.2661 -161.30413,2238.0125 C -156.74983,2242.4627 -148.68227,2246.7791 -142.78344,2251.3849 C -140.78423,2252.9458 -137.77251,2253.211 -135.1594,2253.5529 z M -256.44125,2246.4645 C -252.29005,2242.3974 -237.23856,2247.4241 -240.41884,2240.6769 C -251.43546,2225.7603 -262.42396,2209.8661 -268.04941,2191.8393 C -260.24252,2176.7605 -278.39043,2167.9634 -288.36207,2177.6679 C -297.33819,2184.1915 -284.54422,2192.8215 -285.62676,2201.2476 C -281.1899,2211.6781 -274.74541,2221.3257 -270.70479,2232.5125 C -266.91138,2237.2526 -262.15892,2244.8732 -256.44125,2246.4645 z M -249.39406,2112.2908 C -237.98071,2113.8126 -215.98368,2095.0984 -233.963,2106.6523 C -249.20598,2114.7484 -273.19403,2105.9811 -270.5788,2088.167 C -268.40379,2073.3515 -237.54313,2085.6981 -244.82772,2099.7353 C -249.96901,2109.6423 -271.66355,2093.1984 -259.79602,2089.5199 C -254.11482,2087.759 -245.44684,2099.3076 -255.72615,2095.7582 C -255.91333,2102.0091 -242.27531,2092.6973 -255.45628,2087.522 C -270.9339,2081.445 -268.23931,2105.8016 -252.78378,2105.6322 C -233.66472,2105.4228 -240.82326,2082.9945 -254.28024,2079.0878 C -268.53607,2074.9493 -276.99479,2083.0195 -272.93277,2094.9023 C -269.40431,2105.2244 -260.07203,2110.8671 -249.39406,2112.2908 z M -238.36658,2104.6203 C -221.77678,2088.6427 -253.15803,2107.0947 -238.36658,2104.6203 z M -198.2246,2105.1602 C -193.01254,2099.8243 -215.72358,2100.0203 -202.48199,2105.0001 C -201.14406,2105.3512 -199.59635,2105.4745 -198.2246,2105.1602 z M -195.22782,2104.5184 C -195.52222,2104.1395 -195.41836,2105.1081 -195.22782,2104.5184 z M -185.47184,2101.521 C -194.67444,2098.7897 -211.07291,2088.9465 -206.21725,2078.9991 C -201.16974,2068.6585 -180.7521,2076.3998 -178.81327,2086.5732 C -177.20653,2095.0042 -191.91687,2094.8794 -196.84529,2090.3066 C -206.15756,2081.6662 -193.58868,2076.1298 -188.12452,2083.6249 C -182.14563,2091.826 -200.68367,2082.4382 -191.85555,2089.5268 C -184.48246,2095.4472 -181.41555,2083.8248 -188.14457,2079.6239 C -197.75865,2073.6218 -208.73683,2082.5993 -199.44904,2090.9544 C -194.4964,2095.6351 -185.17364,2100.4506 -179.32335,2094.0022 C -171.80811,2087.632 -180.51284,2076.7827 -187.50947,2073.5859 C -194.82765,2070.2422 -207.31445,2070.1662 -209.24322,2080.0427 C -210.73755,2087.6946 -204.20182,2095.5714 -197.83221,2099.2615 C -194.8589,2100.984 -189.68319,2103.9427 -185.47184,2101.521 z M -216.95131,2100.1944 C -198.17902,2093.0818 -214.23929,2084.3576 -226.08679,2090.094 C -232.22832,2093.0678 -239.12548,2081.6316 -229.93116,2080.094 C -217.93885,2081.3202 -223.90684,2086.5334 -228.69301,2086.2271 C -221.87915,2091.3415 -215.05144,2083.3609 -224.14114,2078.7043 C -234.26886,2073.5159 -242.18501,2083.1293 -234.44976,2091.0594 C -225.82819,2099.898 -207.52533,2087.7508 -214.12303,2095.0525 C -223.67239,2105.6209 -254.66787,2083.8514 -236.01859,2074.3935 C -229.25036,2070.2949 -211.98414,2079.4692 -216.34299,2078.9565 C -220.50918,2071.4125 -233.02949,2067.3072 -240.29578,2072.5015 C -248.68608,2081.8373 -239.99702,2097.7838 -228.17054,2098.8369 C -224.45912,2099.1673 -220.71679,2100.7286 -216.95131,2100.1944 z M -280.20725,2070.7664 C -285.56823,2075.1618 -281.95032,2087.3449 -274.63233,2085.001 C -278.23535,2078.9216 -283.43784,2076.8292 -280.20725,2070.7664 z M -170.32934,2088.0272 C -166.71498,2074.2061 -180.62738,2090.5649 -170.32934,2088.0272 z M -162.50509,2086.3883 C -159.47309,2072.0688 -174.41797,2086.9054 -162.50509,2086.3883 z M -172.17567,2078.8223 C -176.35399,2073.3573 -181.69804,2065.5725 -172.87178,2060.4721 C -164.21209,2055.4678 -145.45905,2062.6613 -152.56793,2072.6748 C -161.17783,2084.8026 -178.6912,2062.1286 -161.58738,2067.2176 C -151.16452,2070.3189 -171.21482,2072.9812 -155.86908,2072.5619 C -148.39146,2062.4342 -178.90504,2058.5865 -172.65396,2071.7948 C -167.68931,2082.2848 -149.95906,2080.9283 -147.46016,2071.7285 C -144.09677,2059.3461 -165.44573,2053.0029 -176.22345,2059.1792 C -183.28991,2063.2287 -179.90382,2080.5805 -172.17567,2078.8223 z M -273.49689,2074.2091 C -271.72634,2068.6841 -284.57534,2054.8427 -279.74029,2046.0549 C -285.00869,2052.062 -281.47424,2071.5385 -273.49689,2074.2091 z M -248.15649,2077.1414 C -247.37499,2071.3345 -262.61795,2074.6484 -268.05308,2068.1544 C -272.7855,2062.5001 -272.73188,2053.7125 -268.28927,2050.1547 C -262.02339,2045.1368 -251.35831,2047.4677 -246.60507,2055.2443 C -239.89233,2066.2267 -252.89152,2068.9991 -260.41627,2065.2414 C -268.36509,2061.2719 -260.56846,2049.6507 -254.298,2055.4609 C -252.98697,2063.5904 -247.99825,2065.0099 -250.37531,2055.4267 C -260.2291,2043.8788 -275.99458,2061.2439 -260.55357,2068.1643 C -253.3784,2071.3801 -242.85564,2070.7673 -242.16735,2061.59 C -241.86661,2049.8625 -258.41456,2040.7667 -268.09888,2046.2132 C -277.97676,2051.7684 -276.26673,2066.87 -266.19546,2072.382 C -261.39781,2076.1041 -253.89392,2075.4094 -248.15649,2077.1414 z M -212.23355,2074.5741 C -201.51623,2063.8894 -227.15835,2073.2995 -212.23355,2074.5741 z M -185.24009,2068.0363 C -187.35655,2061.9252 -214.20747,2066.3333 -194.92029,2067.6663 C -191.39011,2067.9103 -183.89689,2071.9147 -185.24009,2068.0363 z M -214.22961,2063.611 C -222.20903,2066.3812 -240.14368,2060.0649 -239.24365,2047.8821 C -238.50753,2037.9179 -227.16959,2037.5885 -220.61256,2041.6672 C -212.64407,2046.6239 -211.77819,2042.8637 -219.87032,2038.942 C -230.45303,2033.8134 -244.21592,2038.7841 -241.19647,2052.2114 C -238.19098,2063.5075 -226.07249,2066.8929 -215.85514,2067.3386 C -207.23543,2067.7145 -200.00584,2058.6728 -214.22961,2063.611 z M -141.47154,2067.4317 C -132.87152,2053.7539 -157.06384,2058.8217 -141.47153,2067.4317 L -141.47154,2067.4317 z M -235.40331,2068.1194 C -232.57298,2057.2755 -250.84536,2070.6697 -235.40331,2068.1194 z M -188.65552,2061.6988 C -178.60268,2060.0033 -196.85083,2057.3003 -198.63536,2056.2416 C -202.55736,2053.9148 -208.95637,2032.212 -195.34155,2033.378 C -187.20558,2033.3076 -177.14366,2041.0462 -184.53674,2049.4961 C -192.95501,2059.1177 -204.40326,2037.5352 -191.24088,2039.9456 C -187.20095,2040.6854 -190.15899,2042.4989 -192.26021,2046.0846 C -177.30992,2047.9528 -187.67264,2032.341 -197.38467,2038.1808 C -203.66487,2041.9571 -200.12309,2054.9521 -190.5631,2055.951 C -179.70919,2057.0852 -173.94328,2040.8841 -182.51366,2034.7707 C -190.75528,2028.8918 -207.5134,2028.5794 -208.68681,2041.7836 C -209.76388,2053.9039 -199.44673,2063.5187 -188.65552,2061.6988 z M -256.88047,2061.7582 C -253.29112,2055.7282 -264.89352,2058.706 -256.88047,2061.7582 z M -218.78244,2060.0458 C -206.63035,2056.9485 -233.70154,2061.3911 -233.01247,2051.2668 C -233.22913,2041.8832 -217.36138,2046.1193 -217.68626,2052.7446 C -231.53525,2046.126 -225.24589,2058.4194 -216.1523,2053.7136 C -215.38653,2047.0339 -229.32988,2038.5927 -234.43538,2046.3462 C -239.82806,2055.1378 -225.40786,2061.1545 -218.78244,2060.0458 z M -154.48896,2055.7151 C -146.24213,2057.3112 -130.5418,2042.5453 -145.40677,2051.2384 C -157.86265,2058.5227 -174.79914,2041.5049 -170.13638,2033.3606 C -163.47653,2021.7279 -142.28418,2027.6853 -140.62669,2040.4514 C -136.97114,2022.7769 -155.55125,2022.7533 -166.4161,2024.9789 C -181.67933,2028.1056 -173.10794,2047.8215 -163.39424,2053.6693 C -160.80493,2055.2281 -157.44061,2055.1438 -154.48896,2055.7151 z M -152.27678,2048.4887 C -135.67361,2043.2167 -150.60738,2048.0676 -158.83781,2044.3113 C -170.03472,2039.2012 -145.6702,2032.4775 -153.91988,2041.5607 C -165.50257,2035.0189 -143.02327,2046.9603 -149.76489,2036.3808 C -155.1677,2027.9021 -170.34165,2036.4678 -162.98891,2045.3804 C -159.87047,2047.6726 -156.13749,2049.7146 -152.27678,2048.4887 z M -273.82661,2045.7902 C -272.86592,2039.6133 -280.96186,2031.5998 -275.46719,2024.7471 C -264.09414,2015.5326 -283.83366,2023.1345 -280.90528,2032.7618 C -279.93192,2036.0428 -278.05463,2047.6015 -273.82661,2045.7902 z M -243.85077,2045.1653 C -237.04805,2036.482 -248.66831,2022.1362 -245.0017,2040.5414 C -248.788,2042.5887 -247.46109,2048.1976 -243.85077,2045.1653 z M -250.82491,2041.9767 C -242.86014,2037.9509 -255.62166,2020.5898 -250.59979,2033.6346 C -247.98686,2037.3969 -260.49556,2042.9528 -250.82491,2041.9767 z M -266.98062,2040.308 C -274.979,2035.611 -259.80872,2021.1696 -257.85583,2033.4119 C -269.25649,2030.5663 -257.68791,2042.3486 -254.59113,2032.3823 C -256.27059,2023.5394 -275.57181,2022.0384 -272.6021,2033.8919 C -272.43799,2036.1011 -270.26509,2041.8023 -266.98062,2040.308 z M -178.82311,2033.4739 C -166.43427,2020.1274 -200.63999,2028.8789 -178.82311,2033.4739 z M -144.21076,2022.1835 C -139.93565,2011.5034 -158.64097,2024.4244 -144.21076,2022.1835 z M -64.147715,1887.3115 C -69.427383,1879.6867 -82.755875,1876.4888 -89.119703,1883.0722 C -88.007074,1889.8081 -93.728701,1902.458 -83.155619,1902.4223 C -73.077135,1902.3883 -59.164119,1902.008 -64.147715,1887.3115 z M -168.87556,1900.7787 C -158.5312,1904.046 -148.54749,1880.0581 -158.39487,1877.7025 C -168.9881,1872.9857 -184.79772,1872.4705 -195.79713,1875.452 C -206.79654,1878.4337 -216.57881,1879.7128 -224.53352,1884.5495 C -230.76124,1888.3362 -224.7795,1893.4252 -214.84189,1895.719 C -204.90426,1898.0128 -184.39929,1900.8852 -168.87556,1900.7787 z M -130.7376,1848.9848 C -120.74161,1846.5742 -122.37291,1830.08 -133.68648,1835.6245 C -140.62465,1836.5738 -142.16683,1855.1283 -130.73762,1848.9848 L -130.7376,1848.9848 z "
       id="path3675"
       sodipodi:nodetypes="csscsscssscssccccccccsscssscscsscssssssccccccccccccccccssssscsssccsccczssccscsccscsscsssssccscscccccscsccccccccccccccccccsccccccccccccscccssccccccccccssscsssssccccccccssssssccsssccsccssscccscccccccccssscssscccccssssccscscccccsscssscssccccccscsscssssscccccccccsscssscscscscccccccccccccccccccccsccczszccccc" />
  </g>
</svg>
