<?xml version="1.0" encoding="UTF-8" standalone="no"?>
<!-- Created with Inkscape (http://www.inkscape.org/) -->

<svg
   xmlns:dc="http://purl.org/dc/elements/1.1/"
   xmlns:cc="http://creativecommons.org/ns#"
   xmlns:rdf="http://www.w3.org/1999/02/22-rdf-syntax-ns#"
   xmlns:svg="http://www.w3.org/2000/svg"
   xmlns="http://www.w3.org/2000/svg"
   xmlns:sodipodi="http://sodipodi.sourceforge.net/DTD/sodipodi-0.dtd"
   xmlns:inkscape="http://www.inkscape.org/namespaces/inkscape"
   width="236.20236"
   height="108.59375"
   id="svg39635"
   version="1.1"
   inkscape:version="0.47pre4 r22446"
   sodipodi:docname="Documento nuevo 112">
  <defs
     id="defs39637">
    <inkscape:perspective
       sodipodi:type="inkscape:persp3d"
       inkscape:vp_x="0 : 526.18109 : 1"
       inkscape:vp_y="0 : 1000 : 0"
       inkscape:vp_z="744.09448 : 526.18109 : 1"
       inkscape:persp3d-origin="372.04724 : 350.78739 : 1"
       id="perspective39643" />
    <inkscape:perspective
       id="perspective39407"
       inkscape:persp3d-origin="0.5 : 0.33333333 : 1"
       inkscape:vp_z="1 : 0.5 : 1"
       inkscape:vp_y="0 : 1000 : 0"
       inkscape:vp_x="0 : 0.5 : 1"
       sodipodi:type="inkscape:persp3d" />
  </defs>
  <sodipodi:namedview
     id="base"
     pagecolor="#ffffff"
     bordercolor="#666666"
     borderopacity="1.0"
     inkscape:pageopacity="0.0"
     inkscape:pageshadow="2"
     inkscape:zoom="1.4"
     inkscape:cx="72.522152"
     inkscape:cy="33.321109"
     inkscape:document-units="px"
     inkscape:current-layer="layer1"
     showgrid="false"
     inkscape:window-width="1280"
     inkscape:window-height="950"
     inkscape:window-x="0"
     inkscape:window-y="25"
     inkscape:window-maximized="1" />
  <metadata
     id="metadata39640">
    <rdf:RDF>
      <cc:Work
         rdf:about="">
        <dc:format>image/svg+xml</dc:format>
        <dc:type
           rdf:resource="http://purl.org/dc/dcmitype/StillImage" />
        <dc:title></dc:title>
      </cc:Work>
    </rdf:RDF>
  </metadata>
  <g
     inkscape:label="Capa 1"
     inkscape:groupmode="layer"
     id="layer1"
     transform="translate(-187.89882,-482.49444)">
    <g
       transform="translate(192.94493,467.55694)"
       id="g34916"
       clip-path="none">
      <path
         sodipodi:nodetypes="ccccc"
         id="path34918"
         d="m 138.08673,51.377931 0,53.433069 30.68594,17.71654 0,-53.433074 -30.68594,-17.716535 z"
         style="fill:#c17d11;stroke:none" />
      <path
         sodipodi:nodetypes="ccccc"
         style="fill:#8f5902;stroke:none"
         d="m 230.14455,33.661395 0,53.433071 -61.37188,35.433074 0,-53.433074 61.37188,-35.433071 z"
         id="path34920" />
      <path
         id="path34922"
         d="M 199.45861,15.94486 138.08673,51.377931 168.77267,69.094466 230.14455,33.661395 199.45861,15.94486 z"
         style="fill:#e9b96e;stroke:none" />
      <g
         id="g34924"
         transform="matrix(0.2,0,0,0.2,101.2636,32.472422)">
        <g
           style="fill:#729fcf"
           id="g34926">
          <path
             sodipodi:nodetypes="ccccc"
             style="fill:#729fcf;fill-opacity:1;stroke:none"
             d="m 184.11564,131.10235 0,53.1496 30.68594,17.71653 0,-53.1496 -30.68594,-17.71653 z"
             id="path34928" />
          <path
             id="path34930"
             d="m 214.80158,148.81888 0,53.1496"
             style="fill:#729fcf;stroke:#ffffff;stroke-width:5px;stroke-linecap:butt;stroke-linejoin:miter;stroke-opacity:1" />
        </g>
        <g
           style="fill:#729fcf"
           id="g34932"
           transform="translate(30.685937,17.716532)">
          <path
             id="path34934"
             d="m 184.11564,131.10235 0,53.1496 30.68594,17.71653 0,-53.1496 -30.68594,-17.71653 z"
             style="fill:#729fcf;fill-opacity:1;stroke:none"
             sodipodi:nodetypes="ccccc" />
          <path
             style="fill:#729fcf;stroke:#ffffff;stroke-width:5px;stroke-linecap:butt;stroke-linejoin:miter;stroke-opacity:1"
             d="m 214.80158,148.81888 0,53.1496"
             id="path34936" />
        </g>
        <g
           style="fill:#729fcf"
           transform="translate(61.371876,35.433066)"
           id="g34938">
          <path
             sodipodi:nodetypes="ccccc"
             style="fill:#729fcf;fill-opacity:1;stroke:none"
             d="m 184.11564,131.10235 0,53.1496 30.68594,17.71653 0,-53.1496 -30.68594,-17.71653 z"
             id="path34940" />
          <path
             id="path34942"
             d="m 214.80158,148.81888 0,53.1496"
             style="fill:#729fcf;stroke:#ffffff;stroke-width:5px;stroke-linecap:butt;stroke-linejoin:miter;stroke-opacity:1" />
        </g>
        <g
           style="fill:#729fcf"
           id="g34944"
           transform="translate(92.057815,53.149602)">
          <path
             id="path34946"
             d="m 184.11564,131.10235 0,53.1496 30.68594,17.71653 0,-53.1496 -30.68594,-17.71653 z"
             style="fill:#729fcf;fill-opacity:1;stroke:none"
             sodipodi:nodetypes="ccccc" />
          <path
             style="fill:#729fcf;stroke:#ffffff;stroke-width:5px;stroke-linecap:butt;stroke-linejoin:miter;stroke-opacity:1"
             d="m 214.80158,148.81888 0,53.1496"
             id="path34948" />
        </g>
        <g
           style="fill:#729fcf"
           transform="translate(122.74375,70.866137)"
           id="g34950">
          <path
             sodipodi:nodetypes="ccccc"
             style="fill:#729fcf;fill-opacity:1;stroke:none"
             d="m 184.11564,131.10235 0,53.1496 30.68594,17.71653 0,-53.1496 -30.68594,-17.71653 z"
             id="path34952" />
          <path
             id="path34954"
             d="m 214.80158,148.81888 0,53.1496"
             style="fill:#729fcf;stroke:#ffffff;stroke-width:5px;stroke-linecap:butt;stroke-linejoin:miter;stroke-opacity:1" />
        </g>
      </g>
      <g
         transform="matrix(0.2,0,0,0.2,113.53797,57.047226)"
         id="g34956">
        <g
           style="fill:#3465a4"
           id="g34958"
           transform="matrix(-1,0,0,1,490.97504,-53.149611)">
          <path
             id="path34960"
             d="m 184.11564,131.10235 0,53.1496 30.68594,17.71653 0,-53.1496 -30.68594,-17.71653 z"
             style="fill:#3465a4;fill-opacity:1;stroke:none"
             sodipodi:nodetypes="ccccc" />
          <path
             style="fill:#3465a4;stroke:#ffffff;stroke-width:5px;stroke-linecap:butt;stroke-linejoin:miter;stroke-opacity:1"
             d="m 214.80158,148.81888 0,53.1496"
             id="path34962" />
        </g>
        <g
           style="fill:#3465a4"
           transform="matrix(-1,0,0,1,521.66098,-70.866146)"
           id="g34964">
          <path
             sodipodi:nodetypes="ccccc"
             style="fill:#3465a4;fill-opacity:1;stroke:none"
             d="m 184.11564,131.10235 0,53.1496 30.68594,17.71653 0,-53.1496 -30.68594,-17.71653 z"
             id="path34966" />
          <path
             id="path34968"
             d="m 214.80158,148.81888 0,53.1496"
             style="fill:#3465a4;stroke:#ffffff;stroke-width:1.25;stroke-linecap:butt;stroke-linejoin:miter;stroke-miterlimit:4;stroke-opacity:1;stroke-dasharray:none" />
        </g>
        <g
           style="fill:#3465a4"
           transform="matrix(-1,0,0,1,552.34691,-88.582681)"
           id="g34970">
          <path
             sodipodi:nodetypes="ccccc"
             style="fill:#3465a4;fill-opacity:1;stroke:none"
             d="m 184.11564,131.10235 0,53.1496 30.68594,17.71653 0,-53.1496 -30.68594,-17.71653 z"
             id="path34972" />
          <path
             id="path34974"
             d="m 214.80158,148.81888 0,53.1496"
             style="fill:#3465a4;stroke:#ffffff;stroke-width:1.25;stroke-linecap:butt;stroke-linejoin:miter;stroke-miterlimit:4;stroke-opacity:1;stroke-dasharray:none" />
        </g>
        <g
           style="fill:#3465a4;stroke-width:1.25;stroke-miterlimit:4;stroke-dasharray:none"
           id="g34976"
           transform="matrix(-1,0,0,1,583.03285,-106.29922)">
          <path
             id="path34978"
             d="m 184.11564,131.10235 0,53.1496 30.68594,17.71653 0,-53.1496 -30.68594,-17.71653 z"
             style="fill:#3465a4;fill-opacity:1;stroke:none"
             sodipodi:nodetypes="ccccc" />
          <path
             style="fill:#3465a4;stroke:#ffffff;stroke-width:1.25;stroke-linecap:butt;stroke-linejoin:miter;stroke-miterlimit:4;stroke-opacity:1;stroke-dasharray:none"
             d="m 214.80158,148.81888 0,53.1496"
             id="path34980" />
        </g>
        <g
           style="fill:#3465a4"
           transform="matrix(-1,0,0,1,613.7188,-124.01574)"
           id="g34982">
          <path
             sodipodi:nodetypes="ccccc"
             style="fill:#3465a4;fill-opacity:1;stroke:none"
             d="m 184.11564,131.10235 0,53.1496 30.68594,17.71653 0,-53.1496 -30.68594,-17.71653 z"
             id="path34984" />
          <path
             id="path34986"
             d="m 214.80158,148.81888 0,53.1496"
             style="fill:#3465a4;stroke:#ffffff;stroke-width:1.25;stroke-linecap:butt;stroke-linejoin:miter;stroke-miterlimit:4;stroke-opacity:1;stroke-dasharray:none" />
        </g>
        <g
           style="fill:#3465a4;stroke-width:1.25;stroke-miterlimit:4;stroke-dasharray:none"
           id="g34988"
           transform="matrix(-1,0,0,1,644.40474,-141.73228)">
          <path
             id="path34990"
             d="m 184.11564,131.10235 0,53.1496 30.68594,17.71653 0,-53.1496 -30.68594,-17.71653 z"
             style="fill:#3465a4;fill-opacity:1;stroke:none"
             sodipodi:nodetypes="ccccc" />
          <path
             style="fill:#3465a4;stroke:#ffffff;stroke-width:1.25;stroke-linecap:butt;stroke-linejoin:miter;stroke-miterlimit:4;stroke-opacity:1;stroke-dasharray:none"
             d="m 214.80158,148.81888 0,53.1496"
             id="path34992" />
        </g>
        <g
           style="fill:#3465a4;stroke-width:1.25;stroke-miterlimit:4;stroke-dasharray:none"
           id="g34994"
           transform="matrix(-1,0,0,1,675.09067,-159.44881)">
          <path
             id="path34996"
             d="m 184.11564,131.10235 0,53.1496 30.68594,17.71653 0,-53.1496 -30.68594,-17.71653 z"
             style="fill:#3465a4;fill-opacity:1;stroke:none"
             sodipodi:nodetypes="ccccc" />
          <path
             style="fill:#3465a4;stroke:#ffffff;stroke-width:1.25;stroke-linecap:butt;stroke-linejoin:miter;stroke-miterlimit:4;stroke-opacity:1;stroke-dasharray:none"
             d="m 214.80158,148.81888 0,53.1496"
             id="path34998" />
        </g>
        <g
           style="fill:#3465a4"
           transform="matrix(-1,0,0,1,705.77661,-177.16535)"
           id="g35000">
          <path
             sodipodi:nodetypes="ccccc"
             style="fill:#3465a4;fill-opacity:1;stroke:none"
             d="m 184.11564,131.10235 0,53.1496 30.68594,17.71653 0,-53.1496 -30.68594,-17.71653 z"
             id="path35002" />
          <path
             id="path35004"
             d="m 214.80158,148.81888 0,53.1496"
             style="fill:#3465a4;stroke:#ffffff;stroke-width:1.25;stroke-linecap:butt;stroke-linejoin:miter;stroke-miterlimit:4;stroke-opacity:1;stroke-dasharray:none" />
        </g>
        <g
           style="fill:#3465a4"
           transform="matrix(-1,0,0,1,736.46256,-194.88189)"
           id="g35006">
          <path
             sodipodi:nodetypes="ccccc"
             style="fill:#3465a4;fill-opacity:1;stroke:none"
             d="m 184.11564,131.10235 0,53.1496 30.68594,17.71653 0,-53.1496 -30.68594,-17.71653 z"
             id="path35008" />
          <path
             id="path35010"
             d="m 214.80158,148.81888 0,53.1496"
             style="fill:#3465a4;stroke:#ffffff;stroke-width:1.25;stroke-linecap:butt;stroke-linejoin:miter;stroke-miterlimit:4;stroke-opacity:1;stroke-dasharray:none" />
        </g>
        <g
           style="fill:#3465a4"
           transform="matrix(-1,0,0,1,767.14849,-212.59842)"
           id="g35012">
          <path
             sodipodi:nodetypes="ccccc"
             style="fill:#3465a4;fill-opacity:1;stroke:none"
             d="m 184.11564,131.10235 0,53.1496 30.68594,17.71653 0,-53.1496 -30.68594,-17.71653 z"
             id="path35014" />
          <path
             id="path35016"
             d="m 214.80158,148.81888 0,53.1496"
             style="fill:#3465a4;stroke:#ffffff;stroke-width:1.25;stroke-linecap:butt;stroke-linejoin:miter;stroke-miterlimit:4;stroke-opacity:1;stroke-dasharray:none" />
        </g>
      </g>
      <g
         transform="matrix(0.2,0,0,0.2,101.2636,50.472422)"
         id="g35018">
        <g
           style="fill:#729fcf"
           id="g35020">
          <path
             id="path35022"
             d="m 184.11564,131.10235 0,53.1496 30.68594,17.71653 0,-53.1496 -30.68594,-17.71653 z"
             style="fill:#729fcf;fill-opacity:1;stroke:none"
             sodipodi:nodetypes="ccccc" />
          <path
             style="fill:#729fcf;stroke:#ffffff;stroke-width:5px;stroke-linecap:butt;stroke-linejoin:miter;stroke-opacity:1"
             d="m 214.80158,148.81888 0,53.1496"
             id="path35024" />
        </g>
        <g
           style="fill:#729fcf"
           transform="translate(30.685937,17.716532)"
           id="g35026">
          <path
             sodipodi:nodetypes="ccccc"
             style="fill:#729fcf;fill-opacity:1;stroke:none"
             d="m 184.11564,131.10235 0,53.1496 30.68594,17.71653 0,-53.1496 -30.68594,-17.71653 z"
             id="path35028" />
          <path
             id="path35030"
             d="m 214.80158,148.81888 0,53.1496"
             style="fill:#729fcf;stroke:#ffffff;stroke-width:5px;stroke-linecap:butt;stroke-linejoin:miter;stroke-opacity:1" />
        </g>
        <g
           style="fill:#729fcf"
           id="g35032"
           transform="translate(61.371876,35.433066)">
          <path
             id="path35034"
             d="m 184.11564,131.10235 0,53.1496 30.68594,17.71653 0,-53.1496 -30.68594,-17.71653 z"
             style="fill:#729fcf;fill-opacity:1;stroke:none"
             sodipodi:nodetypes="ccccc" />
          <path
             style="fill:#729fcf;stroke:#ffffff;stroke-width:5px;stroke-linecap:butt;stroke-linejoin:miter;stroke-opacity:1"
             d="m 214.80158,148.81888 0,53.1496"
             id="path35036" />
        </g>
        <g
           style="fill:#729fcf"
           transform="translate(92.057815,53.149602)"
           id="g35038">
          <path
             sodipodi:nodetypes="ccccc"
             style="fill:#729fcf;fill-opacity:1;stroke:none"
             d="m 184.11564,131.10235 0,53.1496 30.68594,17.71653 0,-53.1496 -30.68594,-17.71653 z"
             id="path35040" />
          <path
             id="path35042"
             d="m 214.80158,148.81888 0,53.1496"
             style="fill:#729fcf;stroke:#ffffff;stroke-width:5px;stroke-linecap:butt;stroke-linejoin:miter;stroke-opacity:1" />
        </g>
        <g
           style="fill:#729fcf"
           id="g35044"
           transform="translate(122.74375,70.866137)">
          <path
             id="path35046"
             d="m 184.11564,131.10235 0,53.1496 30.68594,17.71653 0,-53.1496 -30.68594,-17.71653 z"
             style="fill:#729fcf;fill-opacity:1;stroke:none"
             sodipodi:nodetypes="ccccc" />
          <path
             style="fill:#729fcf;stroke:#ffffff;stroke-width:5px;stroke-linecap:butt;stroke-linejoin:miter;stroke-opacity:1"
             d="m 214.80158,148.81888 0,53.1496"
             id="path35048" />
        </g>
      </g>
      <g
         id="g35050"
         transform="matrix(0.2,0,0,0.2,113.53797,75.047226)">
        <g
           transform="matrix(-1,0,0,1,490.97504,-53.149611)"
           id="g35052"
           style="fill:#3465a4">
          <path
             sodipodi:nodetypes="ccccc"
             style="fill:#3465a4;fill-opacity:1;stroke:none"
             d="m 184.11564,131.10235 0,53.1496 30.68594,17.71653 0,-53.1496 -30.68594,-17.71653 z"
             id="path35054" />
          <path
             id="path35056"
             d="m 214.80158,148.81888 0,53.1496"
             style="fill:#3465a4;stroke:#ffffff;stroke-width:5px;stroke-linecap:butt;stroke-linejoin:miter;stroke-opacity:1" />
        </g>
        <g
           id="g35058"
           transform="matrix(-1,0,0,1,521.66098,-70.866146)"
           style="fill:#3465a4">
          <path
             id="path35060"
             d="m 184.11564,131.10235 0,53.1496 30.68594,17.71653 0,-53.1496 -30.68594,-17.71653 z"
             style="fill:#3465a4;fill-opacity:1;stroke:none"
             sodipodi:nodetypes="ccccc" />
          <path
             style="fill:#3465a4;stroke:#ffffff;stroke-width:1.25;stroke-linecap:butt;stroke-linejoin:miter;stroke-miterlimit:4;stroke-opacity:1;stroke-dasharray:none"
             d="m 214.80158,148.81888 0,53.1496"
             id="path35062" />
        </g>
        <g
           id="g35064"
           transform="matrix(-1,0,0,1,552.34691,-88.582681)"
           style="fill:#3465a4">
          <path
             id="path35066"
             d="m 184.11564,131.10235 0,53.1496 30.68594,17.71653 0,-53.1496 -30.68594,-17.71653 z"
             style="fill:#3465a4;fill-opacity:1;stroke:none"
             sodipodi:nodetypes="ccccc" />
          <path
             style="fill:#3465a4;stroke:#ffffff;stroke-width:1.25;stroke-linecap:butt;stroke-linejoin:miter;stroke-miterlimit:4;stroke-opacity:1;stroke-dasharray:none"
             d="m 214.80158,148.81888 0,53.1496"
             id="path35068" />
        </g>
        <g
           transform="matrix(-1,0,0,1,583.03285,-106.29922)"
           id="g35070"
           style="fill:#3465a4;stroke-width:1.25;stroke-miterlimit:4;stroke-dasharray:none">
          <path
             sodipodi:nodetypes="ccccc"
             style="fill:#3465a4;fill-opacity:1;stroke:none"
             d="m 184.11564,131.10235 0,53.1496 30.68594,17.71653 0,-53.1496 -30.68594,-17.71653 z"
             id="path35072" />
          <path
             id="path35074"
             d="m 214.80158,148.81888 0,53.1496"
             style="fill:#3465a4;stroke:#ffffff;stroke-width:1.25;stroke-linecap:butt;stroke-linejoin:miter;stroke-miterlimit:4;stroke-opacity:1;stroke-dasharray:none" />
        </g>
        <g
           id="g35076"
           transform="matrix(-1,0,0,1,613.7188,-124.01574)"
           style="fill:#3465a4">
          <path
             id="path35078"
             d="m 184.11564,131.10235 0,53.1496 30.68594,17.71653 0,-53.1496 -30.68594,-17.71653 z"
             style="fill:#3465a4;fill-opacity:1;stroke:none"
             sodipodi:nodetypes="ccccc" />
          <path
             style="fill:#3465a4;stroke:#ffffff;stroke-width:1.25;stroke-linecap:butt;stroke-linejoin:miter;stroke-miterlimit:4;stroke-opacity:1;stroke-dasharray:none"
             d="m 214.80158,148.81888 0,53.1496"
             id="path35080" />
        </g>
        <g
           transform="matrix(-1,0,0,1,644.40474,-141.73228)"
           id="g35082"
           style="fill:#3465a4;stroke-width:1.25;stroke-miterlimit:4;stroke-dasharray:none">
          <path
             sodipodi:nodetypes="ccccc"
             style="fill:#3465a4;fill-opacity:1;stroke:none"
             d="m 184.11564,131.10235 0,53.1496 30.68594,17.71653 0,-53.1496 -30.68594,-17.71653 z"
             id="path35084" />
          <path
             id="path35086"
             d="m 214.80158,148.81888 0,53.1496"
             style="fill:#3465a4;stroke:#ffffff;stroke-width:1.25;stroke-linecap:butt;stroke-linejoin:miter;stroke-miterlimit:4;stroke-opacity:1;stroke-dasharray:none" />
        </g>
        <g
           transform="matrix(-1,0,0,1,675.09067,-159.44881)"
           id="g35088"
           style="fill:#3465a4;stroke-width:1.25;stroke-miterlimit:4;stroke-dasharray:none">
          <path
             sodipodi:nodetypes="ccccc"
             style="fill:#3465a4;fill-opacity:1;stroke:none"
             d="m 184.11564,131.10235 0,53.1496 30.68594,17.71653 0,-53.1496 -30.68594,-17.71653 z"
             id="path35090" />
          <path
             id="path35092"
             d="m 214.80158,148.81888 0,53.1496"
             style="fill:#3465a4;stroke:#ffffff;stroke-width:1.25;stroke-linecap:butt;stroke-linejoin:miter;stroke-miterlimit:4;stroke-opacity:1;stroke-dasharray:none" />
        </g>
        <g
           id="g35094"
           transform="matrix(-1,0,0,1,705.77661,-177.16535)"
           style="fill:#3465a4">
          <path
             id="path35096"
             d="m 184.11564,131.10235 0,53.1496 30.68594,17.71653 0,-53.1496 -30.68594,-17.71653 z"
             style="fill:#3465a4;fill-opacity:1;stroke:none"
             sodipodi:nodetypes="ccccc" />
          <path
             style="fill:#3465a4;stroke:#ffffff;stroke-width:1.25;stroke-linecap:butt;stroke-linejoin:miter;stroke-miterlimit:4;stroke-opacity:1;stroke-dasharray:none"
             d="m 214.80158,148.81888 0,53.1496"
             id="path35098" />
        </g>
        <g
           id="g35100"
           transform="matrix(-1,0,0,1,736.46256,-194.88189)"
           style="fill:#3465a4">
          <path
             id="path35102"
             d="m 184.11564,131.10235 0,53.1496 30.68594,17.71653 0,-53.1496 -30.68594,-17.71653 z"
             style="fill:#3465a4;fill-opacity:1;stroke:none"
             sodipodi:nodetypes="ccccc" />
          <path
             style="fill:#3465a4;stroke:#ffffff;stroke-width:1.25;stroke-linecap:butt;stroke-linejoin:miter;stroke-miterlimit:4;stroke-opacity:1;stroke-dasharray:none"
             d="m 214.80158,148.81888 0,53.1496"
             id="path35104" />
        </g>
        <g
           id="g35106"
           transform="matrix(-1,0,0,1,767.14849,-212.59842)"
           style="fill:#3465a4">
          <path
             id="path35108"
             d="m 184.11564,131.10235 0,53.1496 30.68594,17.71653 0,-53.1496 -30.68594,-17.71653 z"
             style="fill:#3465a4;fill-opacity:1;stroke:none"
             sodipodi:nodetypes="ccccc" />
          <path
             style="fill:#3465a4;stroke:#ffffff;stroke-width:1.25;stroke-linecap:butt;stroke-linejoin:miter;stroke-miterlimit:4;stroke-opacity:1;stroke-dasharray:none"
             d="m 214.80158,148.81888 0,53.1496"
             id="path35110" />
        </g>
      </g>
      <g
         id="g35112"
         transform="matrix(0.2,0,0,0.2,156.49829,71.220456)">
        <path
           sodipodi:nodetypes="ccccc"
           style="fill:#729fcf;fill-opacity:1;stroke:none"
           d="m 184.11564,131.10235 0,53.1496 30.68594,17.71653 0,-53.1496 -30.68594,-17.71653 z"
           id="path35114" />
        <path
           id="path35116"
           d="m 214.80158,148.81888 0,53.1496"
           style="fill:none;stroke:#ffffff;stroke-width:1px;stroke-linecap:butt;stroke-linejoin:miter;stroke-opacity:1" />
        <path
           id="path35118"
           d="m 245.48752,131.10235 0,53.1496 -30.68594,17.71653 0,-53.1496 30.68594,-17.71653 z"
           style="fill:#3465a4;fill-opacity:1;stroke:none"
           sodipodi:nodetypes="ccccc" />
        <path
           sodipodi:nodetypes="ccccc"
           style="fill:#3465a4;fill-opacity:1;stroke:none"
           d="m 276.17346,113.38581 0,53.1496 -30.68594,17.71653 0,-53.1496 30.68594,-17.71653 z"
           id="path35120" />
        <path
           transform="translate(-92.057816,35.433074)"
           id="path35122"
           d="m 276.17346,77.952734 0,17.716535 30.68594,17.716531 0,-17.716531 -30.68594,-17.716535 z"
           style="fill:#c17d11;stroke:none" />
        <path
           sodipodi:nodetypes="ccccc"
           style="fill:#8f5902;stroke:none"
           d="m 214.80158,131.10234 0,17.71654 61.37188,-35.43308 0,-17.716528 -61.37188,35.433068 z"
           id="path35124" />
        <path
           transform="translate(-92.057816,35.433074)"
           id="path35126"
           d="M 276.17346,77.952734 306.8594,95.669269 368.23127,60.236198 337.54533,42.519663 276.17346,77.952734 z"
           style="fill:#e9b96e;stroke:none" />
      </g>
      <path
         style="fill:none;stroke:#ffffff;stroke-width:0.25;stroke-linecap:butt;stroke-linejoin:miter;stroke-miterlimit:4;stroke-opacity:1;stroke-dasharray:none"
         d="m 205.59579,97.440923 0,10.629917"
         id="path35128" />
      <g
         id="g35130"
         transform="matrix(0.2,0,0,0.2,131.94954,13.614156)">
        <path
           transform="translate(-92.057816,35.433074)"
           id="path35132"
           d="m 245.48752,95.669269 0,35.433071 30.68594,17.71654 0,-35.43308 -30.68594,-17.716531 z"
           style="fill:#c17d11;stroke:none" />
        <path
           sodipodi:nodetypes="ccccc"
           style="fill:#8f5902;stroke:none"
           d="m 230.14455,122.24408 0,35.43307 -46.02891,26.57481 0,-35.43308 46.02891,-26.5748 z"
           id="path35134" />
        <path
           transform="translate(-92.057816,35.433074)"
           id="path35136"
           d="M 245.48752,95.669269 291.51643,69.094466 322.20236,86.811002 276.17346,113.3858 245.48752,95.669269 z"
           style="fill:#e4aa50;fill-opacity:1;stroke:none" />
      </g>
      <path
         id="path35138"
         d="m 199.46875,15.9375 -61.375,35.4375 0,53.4375 30.6875,17.71875 24.78125,-14.3125 5.90625,3.40625 6.125,-3.5625 6.125,-3.53125 0,-6.78125 18.4375,-10.65625 0,-53.4375 -30.6875,-17.71875 z"
         style="fill:none;stroke:#2e3436;stroke-width:2;stroke-linecap:butt;stroke-linejoin:miter;stroke-miterlimit:4;stroke-opacity:1;stroke-dasharray:none" />
    </g>
    <g
       id="g39266"
       transform="translate(4.783179,-1.6440674)">
      <path
         style="fill:#8f5902;fill-opacity:1;stroke:none"
         d="m 276.18516,520.57894 0,53.43307 -30.68594,17.71654 0,-53.43307 30.68594,-17.71654 z"
         id="path35142"
         sodipodi:nodetypes="ccccc" />
      <path
         id="path35144"
         d="m 184.12734,502.8624 0,53.43308 61.37188,35.43307 0,-53.43307 -61.37188,-35.43308 z"
         style="fill:#c17d11;fill-opacity:1;stroke:none"
         sodipodi:nodetypes="ccccc" />
      <path
         style="fill:#e9b96e;stroke:none"
         d="m 214.81328,485.14587 61.37188,35.43307 -30.68594,17.71654 -61.37188,-35.43308 30.68594,-17.71653 z"
         id="path35146" />
      <g
         style="fill:#3465a4"
         transform="matrix(-0.2,0,0,0.2,313.00829,501.67343)"
         id="g35148">
        <g
           id="g35150"
           style="fill:#3465a4">
          <path
             id="path35152"
             d="m 184.11564,131.10235 0,53.1496 30.68594,17.71653 0,-53.1496 -30.68594,-17.71653 z"
             style="fill:#3465a4;fill-opacity:1;stroke:none"
             sodipodi:nodetypes="ccccc" />
          <path
             style="fill:#3465a4;stroke:#ffffff;stroke-width:5px;stroke-linecap:butt;stroke-linejoin:miter;stroke-opacity:1"
             d="m 214.80158,148.81888 0,53.1496"
             id="path35154" />
        </g>
        <g
           transform="translate(30.685937,17.716532)"
           id="g35156"
           style="fill:#3465a4">
          <path
             sodipodi:nodetypes="ccccc"
             style="fill:#3465a4;fill-opacity:1;stroke:none"
             d="m 184.11564,131.10235 0,53.1496 30.68594,17.71653 0,-53.1496 -30.68594,-17.71653 z"
             id="path35158" />
          <path
             id="path35160"
             d="m 214.80158,148.81888 0,53.1496"
             style="fill:#3465a4;stroke:#ffffff;stroke-width:5px;stroke-linecap:butt;stroke-linejoin:miter;stroke-opacity:1" />
        </g>
        <g
           id="g35162"
           transform="translate(61.371876,35.433066)"
           style="fill:#3465a4">
          <path
             id="path35164"
             d="m 184.11564,131.10235 0,53.1496 30.68594,17.71653 0,-53.1496 -30.68594,-17.71653 z"
             style="fill:#3465a4;fill-opacity:1;stroke:none"
             sodipodi:nodetypes="ccccc" />
          <path
             style="fill:#3465a4;stroke:#ffffff;stroke-width:5px;stroke-linecap:butt;stroke-linejoin:miter;stroke-opacity:1"
             d="m 214.80158,148.81888 0,53.1496"
             id="path35166" />
        </g>
        <g
           transform="translate(92.057815,53.149602)"
           id="g35168"
           style="fill:#3465a4">
          <path
             sodipodi:nodetypes="ccccc"
             style="fill:#3465a4;fill-opacity:1;stroke:none"
             d="m 184.11564,131.10235 0,53.1496 30.68594,17.71653 0,-53.1496 -30.68594,-17.71653 z"
             id="path35170" />
          <path
             id="path35172"
             d="m 214.80158,148.81888 0,53.1496"
             style="fill:#3465a4;stroke:#ffffff;stroke-width:5px;stroke-linecap:butt;stroke-linejoin:miter;stroke-opacity:1" />
        </g>
        <g
           id="g35174"
           transform="translate(122.74375,70.866137)"
           style="fill:#3465a4">
          <path
             id="path35176"
             d="m 184.11564,131.10235 0,53.1496 30.68594,17.71653 0,-53.1496 -30.68594,-17.71653 z"
             style="fill:#3465a4;fill-opacity:1;stroke:none"
             sodipodi:nodetypes="ccccc" />
          <path
             style="fill:#3465a4;stroke:#ffffff;stroke-width:5px;stroke-linecap:butt;stroke-linejoin:miter;stroke-opacity:1"
             d="m 214.80158,148.81888 0,53.1496"
             id="path35178" />
        </g>
      </g>
      <g
         style="fill:#729fcf"
         id="g35180"
         transform="matrix(-0.2,0,0,0.2,300.73392,526.24824)">
        <g
           transform="matrix(-1,0,0,1,490.97504,-53.149611)"
           id="g35182"
           style="fill:#729fcf">
          <path
             sodipodi:nodetypes="ccccc"
             style="fill:#729fcf;fill-opacity:1;stroke:none"
             d="m 184.11564,131.10235 0,53.1496 30.68594,17.71653 0,-53.1496 -30.68594,-17.71653 z"
             id="path35184" />
          <path
             id="path35186"
             d="m 214.80158,148.81888 0,53.1496"
             style="fill:#729fcf;stroke:#ffffff;stroke-width:5px;stroke-linecap:butt;stroke-linejoin:miter;stroke-opacity:1" />
        </g>
        <g
           id="g35188"
           transform="matrix(-1,0,0,1,521.66098,-70.866146)"
           style="fill:#729fcf">
          <path
             id="path35190"
             d="m 184.11564,131.10235 0,53.1496 30.68594,17.71653 0,-53.1496 -30.68594,-17.71653 z"
             style="fill:#729fcf;fill-opacity:1;stroke:none"
             sodipodi:nodetypes="ccccc" />
          <path
             style="fill:#729fcf;stroke:#ffffff;stroke-width:1.25;stroke-linecap:butt;stroke-linejoin:miter;stroke-miterlimit:4;stroke-opacity:1;stroke-dasharray:none"
             d="m 214.80158,148.81888 0,53.1496"
             id="path35192" />
        </g>
        <g
           id="g35194"
           transform="matrix(-1,0,0,1,552.34691,-88.582681)"
           style="fill:#729fcf">
          <path
             id="path35196"
             d="m 184.11564,131.10235 0,53.1496 30.68594,17.71653 0,-53.1496 -30.68594,-17.71653 z"
             style="fill:#729fcf;fill-opacity:1;stroke:none"
             sodipodi:nodetypes="ccccc" />
          <path
             style="fill:#729fcf;stroke:#ffffff;stroke-width:1.25;stroke-linecap:butt;stroke-linejoin:miter;stroke-miterlimit:4;stroke-opacity:1;stroke-dasharray:none"
             d="m 214.80158,148.81888 0,53.1496"
             id="path35198" />
        </g>
        <g
           transform="matrix(-1,0,0,1,583.03285,-106.29922)"
           id="g35200"
           style="fill:#729fcf;stroke-width:1.25;stroke-miterlimit:4;stroke-dasharray:none">
          <path
             sodipodi:nodetypes="ccccc"
             style="fill:#729fcf;fill-opacity:1;stroke:none"
             d="m 184.11564,131.10235 0,53.1496 30.68594,17.71653 0,-53.1496 -30.68594,-17.71653 z"
             id="path35202" />
          <path
             id="path35204"
             d="m 214.80158,148.81888 0,53.1496"
             style="fill:#729fcf;stroke:#ffffff;stroke-width:1.25;stroke-linecap:butt;stroke-linejoin:miter;stroke-miterlimit:4;stroke-opacity:1;stroke-dasharray:none" />
        </g>
        <g
           id="g35206"
           transform="matrix(-1,0,0,1,613.7188,-124.01574)"
           style="fill:#729fcf">
          <path
             id="path35208"
             d="m 184.11564,131.10235 0,53.1496 30.68594,17.71653 0,-53.1496 -30.68594,-17.71653 z"
             style="fill:#729fcf;fill-opacity:1;stroke:none"
             sodipodi:nodetypes="ccccc" />
          <path
             style="fill:#729fcf;stroke:#ffffff;stroke-width:1.25;stroke-linecap:butt;stroke-linejoin:miter;stroke-miterlimit:4;stroke-opacity:1;stroke-dasharray:none"
             d="m 214.80158,148.81888 0,53.1496"
             id="path35210" />
        </g>
        <g
           transform="matrix(-1,0,0,1,644.40474,-141.73228)"
           id="g35212"
           style="fill:#729fcf;stroke-width:1.25;stroke-miterlimit:4;stroke-dasharray:none">
          <path
             sodipodi:nodetypes="ccccc"
             style="fill:#729fcf;fill-opacity:1;stroke:none"
             d="m 184.11564,131.10235 0,53.1496 30.68594,17.71653 0,-53.1496 -30.68594,-17.71653 z"
             id="path35214" />
          <path
             id="path35216"
             d="m 214.80158,148.81888 0,53.1496"
             style="fill:#729fcf;stroke:#ffffff;stroke-width:1.25;stroke-linecap:butt;stroke-linejoin:miter;stroke-miterlimit:4;stroke-opacity:1;stroke-dasharray:none" />
        </g>
        <g
           transform="matrix(-1,0,0,1,675.09067,-159.44881)"
           id="g35218"
           style="fill:#729fcf;stroke-width:1.25;stroke-miterlimit:4;stroke-dasharray:none">
          <path
             sodipodi:nodetypes="ccccc"
             style="fill:#729fcf;fill-opacity:1;stroke:none"
             d="m 184.11564,131.10235 0,53.1496 30.68594,17.71653 0,-53.1496 -30.68594,-17.71653 z"
             id="path35220" />
          <path
             id="path35222"
             d="m 214.80158,148.81888 0,53.1496"
             style="fill:#729fcf;stroke:#ffffff;stroke-width:1.25;stroke-linecap:butt;stroke-linejoin:miter;stroke-miterlimit:4;stroke-opacity:1;stroke-dasharray:none" />
        </g>
        <g
           id="g35224"
           transform="matrix(-1,0,0,1,705.77661,-177.16535)"
           style="fill:#729fcf">
          <path
             id="path35226"
             d="m 184.11564,131.10235 0,53.1496 30.68594,17.71653 0,-53.1496 -30.68594,-17.71653 z"
             style="fill:#729fcf;fill-opacity:1;stroke:none"
             sodipodi:nodetypes="ccccc" />
          <path
             style="fill:#729fcf;stroke:#ffffff;stroke-width:1.25;stroke-linecap:butt;stroke-linejoin:miter;stroke-miterlimit:4;stroke-opacity:1;stroke-dasharray:none"
             d="m 214.80158,148.81888 0,53.1496"
             id="path35228" />
        </g>
        <g
           id="g35230"
           transform="matrix(-1,0,0,1,736.46256,-194.88189)"
           style="fill:#729fcf">
          <path
             id="path35232"
             d="m 184.11564,131.10235 0,53.1496 30.68594,17.71653 0,-53.1496 -30.68594,-17.71653 z"
             style="fill:#729fcf;fill-opacity:1;stroke:none"
             sodipodi:nodetypes="ccccc" />
          <path
             style="fill:#729fcf;stroke:#ffffff;stroke-width:1.25;stroke-linecap:butt;stroke-linejoin:miter;stroke-miterlimit:4;stroke-opacity:1;stroke-dasharray:none"
             d="m 214.80158,148.81888 0,53.1496"
             id="path35234" />
        </g>
        <g
           id="g35236"
           transform="matrix(-1,0,0,1,767.14849,-212.59842)"
           style="fill:#729fcf">
          <path
             id="path35238"
             d="m 184.11564,131.10235 0,53.1496 30.68594,17.71653 0,-53.1496 -30.68594,-17.71653 z"
             style="fill:#729fcf;fill-opacity:1;stroke:none"
             sodipodi:nodetypes="ccccc" />
          <path
             style="fill:#729fcf;stroke:#ffffff;stroke-width:1.25;stroke-linecap:butt;stroke-linejoin:miter;stroke-miterlimit:4;stroke-opacity:1;stroke-dasharray:none"
             d="m 214.80158,148.81888 0,53.1496"
             id="path35240" />
        </g>
      </g>
      <g
         style="fill:#3465a4"
         id="g35242"
         transform="matrix(-0.2,0,0,0.2,313.00829,519.67343)">
        <g
           id="g35244"
           style="fill:#3465a4">
          <path
             sodipodi:nodetypes="ccccc"
             style="fill:#3465a4;fill-opacity:1;stroke:none"
             d="m 184.11564,131.10235 0,53.1496 30.68594,17.71653 0,-53.1496 -30.68594,-17.71653 z"
             id="path35246" />
          <path
             id="path35248"
             d="m 214.80158,148.81888 0,53.1496"
             style="fill:#3465a4;stroke:#ffffff;stroke-width:5px;stroke-linecap:butt;stroke-linejoin:miter;stroke-opacity:1" />
        </g>
        <g
           id="g35250"
           transform="translate(30.685937,17.716532)"
           style="fill:#3465a4">
          <path
             id="path35252"
             d="m 184.11564,131.10235 0,53.1496 30.68594,17.71653 0,-53.1496 -30.68594,-17.71653 z"
             style="fill:#3465a4;fill-opacity:1;stroke:none"
             sodipodi:nodetypes="ccccc" />
          <path
             style="fill:#3465a4;stroke:#ffffff;stroke-width:5px;stroke-linecap:butt;stroke-linejoin:miter;stroke-opacity:1"
             d="m 214.80158,148.81888 0,53.1496"
             id="path35254" />
        </g>
        <g
           transform="translate(61.371876,35.433066)"
           id="g35256"
           style="fill:#3465a4">
          <path
             sodipodi:nodetypes="ccccc"
             style="fill:#3465a4;fill-opacity:1;stroke:none"
             d="m 184.11564,131.10235 0,53.1496 30.68594,17.71653 0,-53.1496 -30.68594,-17.71653 z"
             id="path35258" />
          <path
             id="path35260"
             d="m 214.80158,148.81888 0,53.1496"
             style="fill:#3465a4;stroke:#ffffff;stroke-width:5px;stroke-linecap:butt;stroke-linejoin:miter;stroke-opacity:1" />
        </g>
        <g
           id="g35262"
           transform="translate(92.057815,53.149602)"
           style="fill:#3465a4">
          <path
             id="path35264"
             d="m 184.11564,131.10235 0,53.1496 30.68594,17.71653 0,-53.1496 -30.68594,-17.71653 z"
             style="fill:#3465a4;fill-opacity:1;stroke:none"
             sodipodi:nodetypes="ccccc" />
          <path
             style="fill:#3465a4;stroke:#ffffff;stroke-width:5px;stroke-linecap:butt;stroke-linejoin:miter;stroke-opacity:1"
             d="m 214.80158,148.81888 0,53.1496"
             id="path35266" />
        </g>
        <g
           transform="translate(122.74375,70.866137)"
           id="g35268"
           style="fill:#3465a4">
          <path
             sodipodi:nodetypes="ccccc"
             style="fill:#3465a4;fill-opacity:1;stroke:none"
             d="m 184.11564,131.10235 0,53.1496 30.68594,17.71653 0,-53.1496 -30.68594,-17.71653 z"
             id="path35270" />
          <path
             id="path35272"
             d="m 214.80158,148.81888 0,53.1496"
             style="fill:#3465a4;stroke:#ffffff;stroke-width:5px;stroke-linecap:butt;stroke-linejoin:miter;stroke-opacity:1" />
        </g>
      </g>
      <g
         style="fill:#729fcf"
         transform="matrix(-0.2,0,0,0.2,300.73392,544.24824)"
         id="g35274">
        <g
           style="fill:#729fcf"
           id="g35276"
           transform="matrix(-1,0,0,1,490.97504,-53.149611)">
          <path
             id="path35278"
             d="m 184.11564,131.10235 0,53.1496 30.68594,17.71653 0,-53.1496 -30.68594,-17.71653 z"
             style="fill:#729fcf;fill-opacity:1;stroke:none"
             sodipodi:nodetypes="ccccc" />
          <path
             style="fill:#729fcf;stroke:#ffffff;stroke-width:5px;stroke-linecap:butt;stroke-linejoin:miter;stroke-opacity:1"
             d="m 214.80158,148.81888 0,53.1496"
             id="path35280" />
        </g>
        <g
           style="fill:#729fcf"
           transform="matrix(-1,0,0,1,521.66098,-70.866146)"
           id="g35282">
          <path
             sodipodi:nodetypes="ccccc"
             style="fill:#729fcf;fill-opacity:1;stroke:none"
             d="m 184.11564,131.10235 0,53.1496 30.68594,17.71653 0,-53.1496 -30.68594,-17.71653 z"
             id="path35284" />
          <path
             id="path35286"
             d="m 214.80158,148.81888 0,53.1496"
             style="fill:#729fcf;stroke:#ffffff;stroke-width:1.25;stroke-linecap:butt;stroke-linejoin:miter;stroke-miterlimit:4;stroke-opacity:1;stroke-dasharray:none" />
        </g>
        <g
           style="fill:#729fcf"
           transform="matrix(-1,0,0,1,552.34691,-88.582681)"
           id="g35288">
          <path
             sodipodi:nodetypes="ccccc"
             style="fill:#729fcf;fill-opacity:1;stroke:none"
             d="m 184.11564,131.10235 0,53.1496 30.68594,17.71653 0,-53.1496 -30.68594,-17.71653 z"
             id="path35290" />
          <path
             id="path35292"
             d="m 214.80158,148.81888 0,53.1496"
             style="fill:#729fcf;stroke:#ffffff;stroke-width:1.25;stroke-linecap:butt;stroke-linejoin:miter;stroke-miterlimit:4;stroke-opacity:1;stroke-dasharray:none" />
        </g>
        <g
           style="fill:#729fcf;stroke-width:1.25;stroke-miterlimit:4;stroke-dasharray:none"
           id="g35294"
           transform="matrix(-1,0,0,1,583.03285,-106.29922)">
          <path
             id="path35296"
             d="m 184.11564,131.10235 0,53.1496 30.68594,17.71653 0,-53.1496 -30.68594,-17.71653 z"
             style="fill:#729fcf;fill-opacity:1;stroke:none"
             sodipodi:nodetypes="ccccc" />
          <path
             style="fill:#729fcf;stroke:#ffffff;stroke-width:1.25;stroke-linecap:butt;stroke-linejoin:miter;stroke-miterlimit:4;stroke-opacity:1;stroke-dasharray:none"
             d="m 214.80158,148.81888 0,53.1496"
             id="path35298" />
        </g>
        <g
           style="fill:#729fcf"
           transform="matrix(-1,0,0,1,613.7188,-124.01574)"
           id="g35300">
          <path
             sodipodi:nodetypes="ccccc"
             style="fill:#729fcf;fill-opacity:1;stroke:none"
             d="m 184.11564,131.10235 0,53.1496 30.68594,17.71653 0,-53.1496 -30.68594,-17.71653 z"
             id="path35302" />
          <path
             id="path35304"
             d="m 214.80158,148.81888 0,53.1496"
             style="fill:#729fcf;stroke:#ffffff;stroke-width:1.25;stroke-linecap:butt;stroke-linejoin:miter;stroke-miterlimit:4;stroke-opacity:1;stroke-dasharray:none" />
        </g>
        <g
           style="fill:#729fcf;stroke-width:1.25;stroke-miterlimit:4;stroke-dasharray:none"
           id="g35306"
           transform="matrix(-1,0,0,1,644.40474,-141.73228)">
          <path
             id="path35308"
             d="m 184.11564,131.10235 0,53.1496 30.68594,17.71653 0,-53.1496 -30.68594,-17.71653 z"
             style="fill:#729fcf;fill-opacity:1;stroke:none"
             sodipodi:nodetypes="ccccc" />
          <path
             style="fill:#729fcf;stroke:#ffffff;stroke-width:1.25;stroke-linecap:butt;stroke-linejoin:miter;stroke-miterlimit:4;stroke-opacity:1;stroke-dasharray:none"
             d="m 214.80158,148.81888 0,53.1496"
             id="path35310" />
        </g>
        <g
           style="fill:#729fcf;stroke-width:1.25;stroke-miterlimit:4;stroke-dasharray:none"
           id="g35312"
           transform="matrix(-1,0,0,1,675.09067,-159.44881)">
          <path
             id="path35314"
             d="m 184.11564,131.10235 0,53.1496 30.68594,17.71653 0,-53.1496 -30.68594,-17.71653 z"
             style="fill:#729fcf;fill-opacity:1;stroke:none"
             sodipodi:nodetypes="ccccc" />
          <path
             style="fill:#729fcf;stroke:#ffffff;stroke-width:1.25;stroke-linecap:butt;stroke-linejoin:miter;stroke-miterlimit:4;stroke-opacity:1;stroke-dasharray:none"
             d="m 214.80158,148.81888 0,53.1496"
             id="path35316" />
        </g>
        <g
           style="fill:#729fcf"
           transform="matrix(-1,0,0,1,705.77661,-177.16535)"
           id="g35318">
          <path
             sodipodi:nodetypes="ccccc"
             style="fill:#729fcf;fill-opacity:1;stroke:none"
             d="m 184.11564,131.10235 0,53.1496 30.68594,17.71653 0,-53.1496 -30.68594,-17.71653 z"
             id="path35320" />
          <path
             id="path35322"
             d="m 214.80158,148.81888 0,53.1496"
             style="fill:#729fcf;stroke:#ffffff;stroke-width:1.25;stroke-linecap:butt;stroke-linejoin:miter;stroke-miterlimit:4;stroke-opacity:1;stroke-dasharray:none" />
        </g>
        <g
           style="fill:#729fcf"
           transform="matrix(-1,0,0,1,736.46256,-194.88189)"
           id="g35324">
          <path
             sodipodi:nodetypes="ccccc"
             style="fill:#729fcf;fill-opacity:1;stroke:none"
             d="m 184.11564,131.10235 0,53.1496 30.68594,17.71653 0,-53.1496 -30.68594,-17.71653 z"
             id="path35326" />
          <path
             id="path35328"
             d="m 214.80158,148.81888 0,53.1496"
             style="fill:#729fcf;stroke:#ffffff;stroke-width:1.25;stroke-linecap:butt;stroke-linejoin:miter;stroke-miterlimit:4;stroke-opacity:1;stroke-dasharray:none" />
        </g>
        <g
           style="fill:#729fcf"
           transform="matrix(-1,0,0,1,767.14849,-212.59842)"
           id="g35330">
          <path
             sodipodi:nodetypes="ccccc"
             style="fill:#729fcf;fill-opacity:1;stroke:none"
             d="m 184.11564,131.10235 0,53.1496 30.68594,17.71653 0,-53.1496 -30.68594,-17.71653 z"
             id="path35332" />
          <path
             id="path35334"
             d="m 214.80158,148.81888 0,53.1496"
             style="fill:#729fcf;stroke:#ffffff;stroke-width:1.25;stroke-linecap:butt;stroke-linejoin:miter;stroke-miterlimit:4;stroke-opacity:1;stroke-dasharray:none" />
        </g>
      </g>
      <g
         transform="matrix(-0.2,0,0,0.2,257.7736,540.42147)"
         id="g35336">
        <path
           id="path35338"
           d="m 184.11564,131.10235 0,53.1496 30.68594,17.71653 0,-53.1496 -30.68594,-17.71653 z"
           style="fill:#3465a4;fill-opacity:1;stroke:none"
           sodipodi:nodetypes="ccccc" />
        <path
           style="fill:none;stroke:#ffffff;stroke-width:1px;stroke-linecap:butt;stroke-linejoin:miter;stroke-opacity:1"
           d="m 214.80158,148.81888 0,53.1496"
           id="path35340" />
        <path
           sodipodi:nodetypes="ccccc"
           style="fill:#729fcf;fill-opacity:1;stroke:none"
           d="m 245.48752,131.10235 0,53.1496 -30.68594,17.71653 0,-53.1496 30.68594,-17.71653 z"
           id="path35342" />
        <path
           id="path35344"
           d="m 276.17346,113.38581 0,53.1496 -30.68594,17.71653 0,-53.1496 30.68594,-17.71653 z"
           style="fill:#729fcf;fill-opacity:1;stroke:none"
           sodipodi:nodetypes="ccccc" />
        <path
           style="fill:#8f5902;fill-opacity:1;stroke:none"
           d="m 276.17346,77.952734 0,17.716535 30.68594,17.716531 0,-17.716531 -30.68594,-17.716535 z"
           id="path35346"
           transform="translate(-92.057816,35.433074)" />
        <path
           id="path35348"
           d="m 214.80158,131.10234 0,17.71654 61.37188,-35.43308 0,-17.716528 -61.37188,35.433068 z"
           style="fill:#c17d11;fill-opacity:1;stroke:none"
           sodipodi:nodetypes="ccccc" />
        <path
           style="fill:#e9b96e;stroke:none"
           d="M 276.17346,77.952734 306.8594,95.669269 368.23127,60.236198 337.54533,42.519663 276.17346,77.952734 z"
           id="path35350"
           transform="translate(-92.057816,35.433074)" />
      </g>
      <path
         id="path35352"
         d="m 208.6761,566.64193 0,10.62992"
         style="fill:none;stroke:#ffffff;stroke-width:0.25;stroke-linecap:butt;stroke-linejoin:miter;stroke-miterlimit:4;stroke-opacity:1;stroke-dasharray:none" />
      <g
         transform="matrix(-0.2,0,0,0.2,282.32235,482.81517)"
         id="g35354">
        <path
           style="fill:#8f5902;fill-opacity:1;stroke:none"
           d="m 245.48752,95.669269 0,35.433071 30.68594,17.71654 0,-35.43308 -30.68594,-17.716531 z"
           id="path35356"
           transform="translate(-92.057816,35.433074)" />
        <path
           id="path35358"
           d="m 230.14455,122.24408 0,35.43307 -46.02891,26.57481 0,-35.43308 46.02891,-26.5748 z"
           style="fill:#c17d11;fill-opacity:1;stroke:none"
           sodipodi:nodetypes="ccccc" />
        <path
           style="fill:#e4aa50;fill-opacity:1;stroke:none"
           d="M 245.48752,95.669269 291.51643,69.094466 322.20236,86.811002 276.17346,113.3858 245.48752,95.669269 z"
           id="path35360"
           transform="translate(-92.057816,35.433074)" />
      </g>
      <path
         style="fill:none;stroke:#2e3436;stroke-width:2;stroke-linecap:butt;stroke-linejoin:miter;stroke-miterlimit:4;stroke-opacity:1;stroke-dasharray:none"
         d="m 214.80314,485.13851 61.375,35.4375 0,53.4375 -30.6875,17.71875 -24.78125,-14.3125 -5.90625,3.40625 -6.125,-3.5625 -6.125,-3.53125 0,-6.78125 -18.4375,-10.65625 0,-53.4375 30.6875,-17.71875 z"
         id="path35362" />
    </g>
  </g>
</svg>
