<?xml version="1.0" encoding="UTF-8" standalone="no"?>
<!-- Created with Inkscape (http://www.inkscape.org/) -->

<svg
   xmlns:dc="http://purl.org/dc/elements/1.1/"
   xmlns:cc="http://creativecommons.org/ns#"
   xmlns:rdf="http://www.w3.org/1999/02/22-rdf-syntax-ns#"
   xmlns:svg="http://www.w3.org/2000/svg"
   xmlns="http://www.w3.org/2000/svg"
   xmlns:sodipodi="http://sodipodi.sourceforge.net/DTD/sodipodi-0.dtd"
   xmlns:inkscape="http://www.inkscape.org/namespaces/inkscape"
   width="79.718651"
   height="73.84375"
   id="svg10717"
   version="1.1"
   inkscape:version="0.47pre4 r22446"
   sodipodi:docname="Documento nuevo 54">
  <defs
     id="defs10719">
    <inkscape:perspective
       sodipodi:type="inkscape:persp3d"
       inkscape:vp_x="0 : 526.18109 : 1"
       inkscape:vp_y="0 : 1000 : 0"
       inkscape:vp_z="744.09448 : 526.18109 : 1"
       inkscape:persp3d-origin="372.04724 : 350.78739 : 1"
       id="perspective10725" />
    <inkscape:perspective
       id="perspective10688"
       inkscape:persp3d-origin="0.5 : 0.33333333 : 1"
       inkscape:vp_z="1 : 0.5 : 1"
       inkscape:vp_y="0 : 1000 : 0"
       inkscape:vp_x="0 : 0.5 : 1"
       sodipodi:type="inkscape:persp3d" />
  </defs>
  <sodipodi:namedview
     id="base"
     pagecolor="#ffffff"
     bordercolor="#666666"
     borderopacity="1.0"
     inkscape:pageopacity="0.0"
     inkscape:pageshadow="2"
     inkscape:zoom="0.35"
     inkscape:cx="39.85933"
     inkscape:cy="36.921877"
     inkscape:document-units="px"
     inkscape:current-layer="layer1"
     showgrid="false"
     inkscape:window-width="607"
     inkscape:window-height="470"
     inkscape:window-x="0"
     inkscape:window-y="48"
     inkscape:window-maximized="0" />
  <metadata
     id="metadata10722">
    <rdf:RDF>
      <cc:Work
         rdf:about="">
        <dc:format>image/svg+xml</dc:format>
        <dc:type
           rdf:resource="http://purl.org/dc/dcmitype/StillImage" />
        <dc:title></dc:title>
      </cc:Work>
    </rdf:RDF>
  </metadata>
  <g
     inkscape:label="Capa 1"
     inkscape:groupmode="layer"
     id="layer1"
     transform="translate(-310.14067,-495.44031)">
    <g
       id="g6075"
       transform="translate(142.85942,-76.078122)">
      <path
         id="path5978"
         d="m 168.77267,591.72438 30.68594,-17.71653 30.68594,17.71653 -30.68594,17.71654 -30.68594,-17.71654 z"
         style="fill:#cab594;fill-opacity:1;stroke:none" />
      <path
         style="fill:#81673d;fill-opacity:1;stroke:none"
         d="m 184.29242,600.37029 15.30181,-8.8345 0.0411,8.8345 0,8.85827 -15.34296,8.85827 0,-17.71654 z"
         id="path6002"
         sodipodi:nodetypes="cccccc" />
      <path
         style="fill:#cab594;fill-opacity:1;stroke:none"
         d="m 184.29242,618.08683 15.34297,8.85827 15.34297,-8.85827 -15.34297,-8.85827 -15.34297,8.85827 z"
         id="path6004" />
      <path
         sodipodi:nodetypes="cccccc"
         id="path6006"
         d="m 214.97836,600.37029 -15.30181,-8.8345 -0.0412,8.8345 0,8.85827 15.34298,8.85827 0,-17.71654 z"
         style="fill:#9e845b;fill-opacity:1;stroke:none" />
      <path
         sodipodi:nodetypes="ccccccccc"
         id="path5968"
         d="m 168.77267,627.15746 30.78039,17.13867 -0.0945,-23.13867 -15.34294,-8.85827 -0.0396,-11.73936 -15.30344,-8.83545 0,35.43308 3e-5,0 4e-5,0 z"
         style="fill:#9e845b;fill-opacity:1;stroke:none" />
      <path
         style="fill:#81673d;fill-opacity:1;stroke:none"
         d="m 230.14455,627.15746 -30.60361,17.669 -0.0823,-23.669 15.34294,-8.85827 -0.17477,-11.61562 15.51777,-8.95919 0,35.43308 -3e-5,0 z"
         id="path5984"
         sodipodi:nodetypes="cccccccc" />
      <path
         style="fill:#9e845b;fill-opacity:1;stroke:none"
         d="m 214.80151,636.01573 15.30181,8.8345 0.0412,-8.8345 0,-8.85827 -15.34297,-8.85827 0,17.71654 z"
         id="path5986"
         sodipodi:nodetypes="cccccc" />
      <path
         style="fill:#cab594;fill-opacity:1;stroke:none"
         d="m 214.80151,618.29919 15.34297,-8.85827 15.34298,8.85827 -15.34298,8.85827 -15.34297,-8.85827 z"
         id="path5988" />
      <path
         sodipodi:nodetypes="cccccc"
         id="path5990"
         d="m 245.48746,636.01573 -15.30181,8.8345 -0.0411,-8.8345 0,-8.85827 15.34297,-8.85827 0,17.71654 z"
         style="fill:#81673d;fill-opacity:1;stroke:none" />
      <path
         id="path6000"
         d="m 216.45836,623.66766 0,13.2874 11.50723,6.6437 0,-13.2874 -11.50723,-6.6437 z"
         style="fill:#364e59;stroke:none" />
      <path
         sodipodi:nodetypes="ccccc"
         style="fill:#804d00;fill-opacity:1;stroke:none"
         d="m 186.99952,626.67869 0,10.62992 6.13719,3.54331 0,-10.62992 -6.13719,-3.54331 z"
         id="path5994" />
      <path
         id="path6025"
         d="m 172.77267,598.58265 3.83575,2.21456 0,8.85827 -3.83575,-2.21456 0,-8.85827 z"
         style="fill:#19aeff;stroke:none" />
      <path
         style="fill:#19aeff;stroke:none"
         d="m 176.60842,600.79721 3.83574,2.21457 0,8.85827 -3.83574,-2.21457 0,-8.85827 z"
         id="path6027" />
      <path
         id="path6053"
         d="m 176.60842,600.79721 0,8.85827 0,-8.85827 z"
         style="fill:#ffffff;stroke:#ffffff;stroke-width:0.25;stroke-linecap:butt;stroke-linejoin:miter;stroke-miterlimit:4;stroke-opacity:1;stroke-dasharray:none"
         sodipodi:nodetypes="ccc" />
      <path
         style="fill:#19aeff;stroke:none"
         d="m 172.77267,616.58265 3.83575,2.21456 0,8.85827 -3.83575,-2.21456 0,-8.85827 z"
         id="path6029" />
      <path
         id="path6031"
         d="m 176.60842,618.79721 3.83574,2.21457 0,8.85827 -3.83574,-2.21457 0,-8.85827 z"
         style="fill:#19aeff;stroke:none" />
      <path
         style="fill:#0084c8;stroke:none"
         d="m 195.95139,597.22636 -3.83575,2.21456 0,14.23945 3.83575,-2.21456 0,-14.23945 z"
         id="path6039"
         sodipodi:nodetypes="ccccc" />
      <path
         id="path6041"
         d="m 191.01997,600.13974 -3.83574,2.21457 0,8.85827 3.83574,-2.21457 0,-8.85827 z"
         style="fill:#0084c8;stroke:none" />
      <path
         id="path6045"
         d="m 226.14455,598.58265 -3.83575,2.21456 0,8.85827 3.83575,-2.21456 0,-8.85827 z"
         style="fill:#0084c8;stroke:none" />
      <path
         style="fill:#0084c8;stroke:none"
         d="m 222.3088,600.79721 -3.83574,2.21457 0,8.85827 3.83574,-2.21457 0,-8.85827 z"
         id="path6047" />
      <path
         id="path6051"
         d="m 193.32142,630.70076 0,10.62992 1.74277,1.06455 0,-10.62992 -1.74277,-1.06455 z"
         style="fill:#19aeff;fill-opacity:1;stroke:none"
         sodipodi:nodetypes="ccccc" />
      <path
         sodipodi:nodetypes="ccc"
         style="fill:#ffffff;stroke:#ffffff;stroke-width:0.25;stroke-linecap:butt;stroke-linejoin:miter;stroke-miterlimit:4;stroke-opacity:1;stroke-dasharray:none"
         d="m 176.60842,618.79721 0,8.85827 0,-8.85827 z"
         id="path6055" />
      <path
         id="path6073"
         d="m 222.74714,600.94276 0,8.85827 0,-8.85827 z"
         style="fill:#ffffff;stroke:#ffffff;stroke-width:0.25;stroke-linecap:butt;stroke-linejoin:miter;stroke-miterlimit:4;stroke-opacity:1;stroke-dasharray:none"
         sodipodi:nodetypes="ccc" />
    </g>
    <path
       style="fill:none;stroke:#2d2d2d;stroke-width:3;stroke-miterlimit:4;stroke-dasharray:none"
       d="m 342.32817,496.94031 -30.6875,17.71875 0,35.40625 24.53125,14.1875 1.75,1.0625 0,-0.0625 4.3125,2.5 0.1562,0 15.28125,-8.8125 1.65625,0.9375 11.5,6.65625 2.125,1.25 0.0937,0 15.3125,-8.84375 0,-17.71875 -15.34375,-8.84375 0,-17.71875 -30.6875,-17.71875 10e-5,0 z"
       id="path6102"
       sodipodi:nodetypes="ccccccccccccccccccc" />
  </g>
</svg>
