<?xml version="1.0" encoding="UTF-8" standalone="no"?>
<!-- Created with Inkscape (http://www.inkscape.org/) -->

<svg
   xmlns:dc="http://purl.org/dc/elements/1.1/"
   xmlns:cc="http://creativecommons.org/ns#"
   xmlns:rdf="http://www.w3.org/1999/02/22-rdf-syntax-ns#"
   xmlns:svg="http://www.w3.org/2000/svg"
   xmlns="http://www.w3.org/2000/svg"
   xmlns:sodipodi="http://sodipodi.sourceforge.net/DTD/sodipodi-0.dtd"
   xmlns:inkscape="http://www.inkscape.org/namespaces/inkscape"
   width="309.09506"
   height="455.25137"
   id="svg7108"
   version="1.1"
   inkscape:version="0.48.1 r9760"
   sodipodi:docname="New document 13">
  <defs
     id="defs7110">
    <filter
       inkscape:collect="always"
       id="filter7748"
       x="-0.10815569"
       width="1.2163115"
       y="-0.068664372"
       height="1.1373287"
       color-interpolation-filters="sRGB">
      <feGaussianBlur
         inkscape:collect="always"
         stdDeviation="11.452108"
         id="feGaussianBlur7750" />
    </filter>
  </defs>
  <sodipodi:namedview
     id="base"
     pagecolor="#ffffff"
     bordercolor="#666666"
     borderopacity="1.0"
     inkscape:pageopacity="0.0"
     inkscape:pageshadow="2"
     inkscape:zoom="0.35598399"
     inkscape:cx="133.969"
     inkscape:cy="147.78171"
     inkscape:document-units="px"
     inkscape:current-layer="layer1"
     showgrid="false"
     inkscape:window-width="1230"
     inkscape:window-height="776"
     inkscape:window-x="50"
     inkscape:window-y="24"
     inkscape:window-maximized="1"
     fit-margin-top="0"
     fit-margin-left="0"
     fit-margin-right="0"
     fit-margin-bottom="0" />
  <metadata
     id="metadata7113">
    <rdf:RDF>
      <cc:Work
         rdf:about="">
        <dc:format>image/svg+xml</dc:format>
        <dc:type
           rdf:resource="http://purl.org/dc/dcmitype/StillImage" />
        <dc:title></dc:title>
      </cc:Work>
    </rdf:RDF>
  </metadata>
  <g
     inkscape:label="Layer 1"
     inkscape:groupmode="layer"
     id="layer1"
     transform="translate(-7.4519689,-3.4425749)">
    <g
       id="g7752">
      <path
         inkscape:connector-curvature="0"
         id="rect7709"
         d="m 161.99958,30.927635 -30.5626,52.96875 61.1563,0 -30.5937,-52.96875 z m -39.3126,57.4375 0,11.5625 78.625,0 0,-11.5625 -78.625,0 z m -15.125,16.687495 0,11.53125 108.9063,0 0,-11.53125 -108.9063,0 z m -12.375001,16.65625 0,11.53125 133.656301,0 0,-11.53125 -133.656301,0 z m -21.4687,16.65625 0,11.5625 176.593701,0 0,-11.5625 -176.593701,0 z m -14.03125,16.65625 0,11.5625 204.624951,0 0,-11.5625 -204.624951,0 z m -24.75,16.65625 0,11.5625 254.124951,0 0,-11.5625 -254.124951,0 z m 11.5625,14.53125 0,212.875 11.5625,0 0,-212.875 -11.5625,0 z m 219.468751,0 0,212.875 11.5625,0 0,-212.875 -11.5625,0 z m -231.031251,216.6875 0,11.53125 254.124951,0 0,-11.53125 -254.124951,0 z m 72.624951,16.78125 0,11.53125 108.9063,0 0,-11.53125 -108.9063,0 z"
         style="fill:#000000;fill-opacity:1;stroke:none;filter:url(#filter7748)" />
      <g
         transform="matrix(0.57757372,0,0,0.57757372,-45.927035,45.731381)"
         id="g7693">
        <rect
           style="fill:#000000;fill-opacity:1;stroke:none"
           id="rect7118"
           width="440"
           height="20"
           x="140"
           y="218.07648" />
        <rect
           y="189.22794"
           x="182.85715"
           height="20"
           width="354.28571"
           id="rect7120"
           style="fill:#000000;fill-opacity:1;stroke:none" />
        <rect
           style="fill:#000000;fill-opacity:1;stroke:none"
           id="rect7122"
           width="305.71426"
           height="20"
           x="207.14287"
           y="160.37946" />
        <rect
           y="131.53098"
           x="244.28574"
           height="20"
           width="231.42854"
           id="rect7124"
           style="fill:#000000;fill-opacity:1;stroke:none" />
        <g
           id="g7689"
           transform="translate(-1.4285355,0)">
          <rect
             transform="matrix(0,-1,-1,0,0,0)"
             style="fill:#000000;fill-opacity:1;stroke:none"
             id="rect7128"
             width="368.57144"
             height="20"
             x="-611.79065"
             y="-181.42854" />
          <rect
             y="-561.42853"
             x="-611.79065"
             height="20"
             width="368.57144"
             id="rect7130"
             style="fill:#000000;fill-opacity:1;stroke:none"
             transform="matrix(0,-1,-1,0,0,0)" />
        </g>
        <rect
           y="618.36371"
           x="140"
           height="20"
           width="440"
           id="rect7132"
           style="fill:#000000;fill-opacity:1;stroke:none" />
        <rect
           y="647.42535"
           x="265.71429"
           height="20"
           width="188.5714"
           id="rect7134"
           style="fill:#000000;fill-opacity:1;stroke:none" />
        <rect
           y="102.68245"
           x="265.71429"
           height="20"
           width="188.5714"
           id="rect7136"
           style="fill:#000000;fill-opacity:1;stroke:none" />
        <path
           sodipodi:type="star"
           style="fill:#000000;fill-opacity:1;stroke:none"
           id="path7161"
           sodipodi:sides="3"
           sodipodi:cx="297.12875"
           sodipodi:cy="33.567173"
           sodipodi:r1="40.218895"
           sodipodi:r2="20.109447"
           sodipodi:arg1="0.52359878"
           sodipodi:arg2="1.5707963"
           inkscape:flatsided="true"
           inkscape:rounded="0"
           inkscape:randomized="0"
           d="m 331.95934,53.676621 -69.66117,-10e-7 34.83058,-60.328342 z"
           inkscape:transform-center-y="-15.284189"
           transform="matrix(1.5201004,0,0,1.5201004,-91.665537,-15.536681)" />
        <rect
           style="fill:#000000;fill-opacity:1;stroke:none"
           id="rect7671"
           width="136.13"
           height="20"
           x="291.935"
           y="73.833939" />
      </g>
    </g>
  </g>
</svg>
